<svg preserveAspectRatio="none" width="100%" height="100%" overflow="visible" style="display: block;" viewBox="0 0 25 14" fill="none" xmlns="http://www.w3.org/2000/svg">
<path id="Caret Down" d="M24.667 1.99251L13.3039 13.6579C13.1984 13.7663 13.0731 13.8524 12.9351 13.9111C12.7972 13.9698 12.6493 14 12.5 14C12.3507 14 12.2028 13.9698 12.0649 13.9111C11.9269 13.8524 11.8016 13.7663 11.6961 13.6579L0.333001 1.99251C0.119784 1.77362 0 1.47674 0 1.16718C0 0.857628 0.119784 0.56075 0.333001 0.34186C0.546219 0.12297 0.835403 0 1.13694 0C1.43847 0 1.72766 0.12297 1.94087 0.34186L12.5 11.1834L23.0591 0.34186C23.1647 0.233477 23.29 0.147503 23.428 0.0888461C23.5659 0.0301896 23.7138 0 23.8631 0C24.0124 0 24.1602 0.0301896 24.2981 0.0888461C24.4361 0.147503 24.5614 0.233477 24.667 0.34186C24.7726 0.450243 24.8563 0.578913 24.9135 0.720522C24.9706 0.862132 25 1.01391 25 1.16718C25 1.32046 24.9706 1.47224 24.9135 1.61385C24.8563 1.75546 24.7726 1.88413 24.667 1.99251Z" fill="var(--fill-0, #16252D)"/>
</svg>
