<svg preserveAspectRatio="none" width="100%" height="100%" overflow="visible" style="display: block;" viewBox="0 0 32.4989 35.8333" fill="none" xmlns="http://www.w3.org/2000/svg">
<path id="vector" d="M1.2511 17.675C1.2061 17.675 1.15938 17.6733 1.11438 17.6683C0.42771 17.5933 -0.0688578 16.9751 0.00780888 16.2901C0.611142 10.7601 3.94778 5.99993 8.93278 3.55326C9.32111 3.36326 9.77786 3.38658 10.1445 3.61491C10.5112 3.84324 10.7345 4.24505 10.7345 4.67672V9.75993C10.7345 10.4499 10.1745 11.0099 9.48453 11.0099C8.79453 11.0099 8.23453 10.4499 8.23453 9.75993V6.85832C5.02787 9.08832 2.92609 12.5916 2.49275 16.5633C2.42109 17.2016 1.8811 17.675 1.2511 17.675ZM23.5662 32.465C28.5512 30.0183 31.8878 25.2567 32.4911 19.7284C32.5678 19.0417 32.0712 18.425 31.3846 18.35C30.6962 18.28 30.0828 18.7699 30.0078 19.4566C29.5728 23.4282 27.4729 26.9299 24.2662 29.1616V26.26C24.2662 25.57 23.7062 25.01 23.0162 25.01C22.3262 25.01 21.7662 25.57 21.7662 26.26V31.3434C21.7662 31.775 21.9894 32.1767 22.356 32.405C22.5577 32.53 22.7879 32.5934 23.0162 32.5934C23.2046 32.5934 23.3912 32.55 23.5662 32.465ZM22.0911 8.33333C19.7928 8.33333 17.9245 6.46333 17.9245 4.16667C17.9245 1.87 19.7928 0 22.0911 0C24.3895 0 26.2578 1.87 26.2578 4.16667C26.2578 6.46333 24.3895 8.33333 22.0911 8.33333ZM22.0911 2.5C21.1711 2.5 20.4245 3.24833 20.4245 4.16667C20.4245 5.085 21.1711 5.83333 22.0911 5.83333C23.0111 5.83333 23.7578 5.085 23.7578 4.16667C23.7578 3.24833 23.0111 2.5 22.0911 2.5ZM25.4145 19.1667H18.7511C16.4028 19.1667 14.9995 17.7701 14.9995 15.4317C14.9995 12.7267 16.6745 10 20.4161 10H23.7495C27.4911 10 29.1661 12.7284 29.1661 15.4317C29.1661 17.7701 27.7628 19.1667 25.4145 19.1667ZM20.4161 12.5C17.8795 12.5 17.4995 14.3367 17.4995 15.4317C17.4995 16.3901 17.7794 16.6667 18.7511 16.6667H25.4145C26.3862 16.6667 26.6661 16.3901 26.6661 15.4317C26.6661 14.3367 26.2861 12.5 23.7495 12.5H20.4161ZM8.75781 25C6.45948 25 4.59114 23.13 4.59114 20.8333C4.59114 18.5367 6.45948 16.6667 8.75781 16.6667C11.0561 16.6667 12.9245 18.5367 12.9245 20.8333C12.9245 23.13 11.0561 25 8.75781 25ZM8.75781 19.1667C7.83781 19.1667 7.09114 19.915 7.09114 20.8333C7.09114 21.7517 7.83781 22.5 8.75781 22.5C9.67781 22.5 10.4245 21.7517 10.4245 20.8333C10.4245 19.915 9.67781 19.1667 8.75781 19.1667ZM12.0812 35.8333H5.41776C3.06943 35.8333 1.66613 34.4367 1.66613 32.0984C1.66613 29.3934 3.34113 26.6667 7.0828 26.6667H10.4161C14.1578 26.6667 15.8328 29.3951 15.8328 32.0984C15.8328 34.4367 14.4295 35.8333 12.0812 35.8333ZM7.0828 29.1667C4.54613 29.1667 4.16613 31.0034 4.16613 32.0984C4.16613 33.0567 4.4461 33.3333 5.41776 33.3333H12.0812C13.0528 33.3333 13.3328 33.0567 13.3328 32.0984C13.3328 31.0034 12.9528 29.1667 10.4161 29.1667H7.0828Z" fill="var(--fill-0, #4644B8)"/>
</svg>
