<svg preserveAspectRatio="none" width="100%" height="100%" overflow="visible" style="display: block;" viewBox="0 0 21.4993 16.5" fill="none" xmlns="http://www.w3.org/2000/svg">
<path id="vector" d="M21.188 7.15302C20.781 6.45802 20.055 6.04299 19.248 6.04199H18.499V5.75C18.499 3.332 17.167 2 14.749 2H9.06006L7.28003 0.220001C7.13903 0.0790012 6.949 0 6.75 0H3.75C1.332 0 0 1.332 0 3.75V14.246C0 14.25 0.00195312 14.253 0.00195312 14.257C0.00195312 14.647 0.103059 15.037 0.310059 15.39C0.718059 16.085 1.44398 16.5 2.25098 16.5H15.032C16.392 16.5 17.6471 15.764 18.3091 14.58L21.2119 9.379C21.6029 8.678 21.595 7.84602 21.188 7.15302ZM3.74902 1.5H6.43799L8.21802 3.28C8.35902 3.421 8.54905 3.5 8.74805 3.5H14.748C16.325 3.5 16.998 4.173 16.998 5.75V6.04199L6.46899 6.03601C6.46799 6.03601 6.46706 6.03601 6.46606 6.03601C5.10506 6.03601 3.84899 6.77201 3.18799 7.95801L1.49902 10.988V3.75C1.49902 2.173 2.17202 1.5 3.74902 1.5ZM19.9021 8.64801L16.999 13.849C16.603 14.559 15.849 15.001 15.032 15.001H2.25098C1.86198 15.001 1.669 14.743 1.604 14.632C1.54 14.522 1.40995 14.231 1.59595 13.897L4.49902 8.69C4.89502 7.979 5.64904 7.53799 6.46704 7.53799C6.46804 7.53799 6.46799 7.53799 6.46899 7.53799L19.248 7.54501C19.637 7.54501 19.83 7.80401 19.894 7.91501C19.959 8.02201 20.0891 8.31401 19.9021 8.64801Z" fill="var(--fill-0, #757575)"/>
</svg>
