<svg preserveAspectRatio="none" width="100%" height="100%" overflow="visible" style="display: block;" viewBox="0 0 17.5 17.5" fill="none" xmlns="http://www.w3.org/2000/svg">
<path id="vector" d="M17.5 0.75V5.75C17.5 6.164 17.164 6.5 16.75 6.5C16.336 6.5 16 6.164 16 5.75V2.56104L8.28003 10.281C8.13403 10.427 7.942 10.501 7.75 10.501C7.558 10.501 7.36597 10.428 7.21997 10.281C6.92697 9.98801 6.92697 9.51297 7.21997 9.21997L14.9399 1.5H11.75C11.336 1.5 11 1.164 11 0.75C11 0.336 11.336 0 11.75 0H16.75C16.848 0 16.9451 0.0201055 17.0371 0.0581055C17.2201 0.134105 17.3661 0.280111 17.4431 0.464111C17.4801 0.555111 17.5 0.652 17.5 0.75ZM16.75 9C16.336 9 16 9.336 16 9.75V13.75C16 15.327 15.327 16 13.75 16H3.75C2.173 16 1.5 15.327 1.5 13.75V3.75C1.5 2.173 2.173 1.5 3.75 1.5H7.75C8.164 1.5 8.5 1.164 8.5 0.75C8.5 0.336 8.164 0 7.75 0H3.75C1.332 0 0 1.332 0 3.75V13.75C0 16.168 1.332 17.5 3.75 17.5H13.75C16.168 17.5 17.5 16.168 17.5 13.75V9.75C17.5 9.336 17.164 9 16.75 9Z" fill="var(--fill-0, #222222)"/>
</svg>
