<svg preserveAspectRatio="none" width="100%" height="100%" overflow="visible" style="display: block;" viewBox="0 0 3.005 19" fill="none" xmlns="http://www.w3.org/2000/svg">
<path id="vector" d="M1.505 3C0.676005 3 0 2.329 0 1.5C0 0.671 0.666995 0 1.495 0H1.505C2.334 0 3.005 0.671 3.005 1.5C3.005 2.329 2.334 3 1.505 3ZM3.005 9.5C3.005 8.671 2.334 8 1.505 8H1.495C0.666995 8 0 8.671 0 9.5C0 10.329 0.676005 11 1.505 11C2.334 11 3.005 10.329 3.005 9.5ZM3.005 17.5C3.005 16.671 2.334 16 1.505 16H1.495C0.666995 16 0 16.671 0 17.5C0 18.329 0.676005 19 1.505 19C2.334 19 3.005 18.329 3.005 17.5Z" fill="var(--fill-0, #282828)"/>
</svg>
