<svg preserveAspectRatio="none" width="100%" height="100%" overflow="visible" style="display: block;" viewBox="0 0 271.162 421.403" fill="none" xmlns="http://www.w3.org/2000/svg">
<path id="Vector" d="M135.581 421.398C126.429 421.398 117.495 419.623 109.033 416.12L32.3498 384.373C15.8586 377.545 4.99926 361.598 4.69044 343.748L2.68589 227.861C2.68589 227.861 2.33215 207.625 2.33215 207.613L0.00755233 73.2416C-0.0205225 71.7256 0.0300122 70.1983 0.153542 68.7104C1.78188 49.1815 15.6509 33.2013 34.7305 28.8048L108.062 4.44705C113.407 2.67834 118.921 1.42059 124.458 0.713101C128.13 0.241444 131.875 0 135.581 0C139.287 0 143.032 0.241444 146.71 0.713101C152.241 1.42059 157.754 2.67834 163.089 4.44705L236.426 28.8048C245.69 30.9441 253.877 35.8572 260.132 43.0331C266.443 50.282 270.205 59.1593 271.003 68.7104C271.132 70.2376 271.182 71.7649 271.154 73.2472L268.824 207.653L268.476 227.867L266.466 343.754C266.163 361.598 255.303 377.545 238.807 384.378L162.129 416.125C153.667 419.629 144.739 421.403 135.581 421.403V421.398Z" fill="var(--fill-0, #97B9FF)"/>
</svg>
