<svg preserveAspectRatio="none" width="100%" height="100%" overflow="visible" style="display: block;" viewBox="0 0 41.9314 60.5" fill="none" xmlns="http://www.w3.org/2000/svg">
<g id="Group 236">
<path id="Vector" d="M5.79449 29.2882C6.97347 29.8156 8.33859 29.2882 8.86603 28.0782C10.9758 23.2692 15.7227 20.1667 20.966 20.1667C26.2094 20.1667 30.9563 23.2692 33.066 28.0782C33.4383 28.9469 34.3071 29.4744 35.2068 29.4744C35.5171 29.4744 35.8273 29.4123 36.1376 29.2882C37.3165 28.7608 37.844 27.3956 37.3476 26.2167C35.5171 22.0592 32.2283 18.8326 28.226 17.0641C29.9635 15.2646 31.0804 12.7826 31.0804 10.0833C31.0804 4.52974 26.5506 0 20.9971 0C15.4435 0 10.9137 4.52974 10.9137 10.0833C10.9137 12.8136 11.9996 15.2646 13.7681 17.0641C9.76577 18.8326 6.47706 22.0592 4.64654 26.2167C4.11911 27.3956 4.64654 28.7608 5.85654 29.2882H5.79449ZM15.5055 10.0833C15.5055 7.10487 17.9565 4.65385 20.935 4.65385C23.9135 4.65385 26.3645 7.10487 26.3645 10.0833C26.3645 13.0618 23.9135 15.5128 20.935 15.5128C17.9565 15.5128 15.5055 13.0618 15.5055 10.0833Z" fill="var(--fill-0, white)"/>
<path id="Vector_2" d="M41.1634 32.67C40.4188 31.6462 39.2398 31.0256 37.9367 31.0256H3.9326C2.66055 31.0256 1.45055 31.6462 0.705938 32.67C-0.0076521 33.6938 -0.193805 34.9969 0.209528 36.1449L2.3503 42.35C2.87773 43.9323 4.39799 44.9872 6.07337 44.9872H6.63183L8.86568 56.1254C9.36209 58.6385 11.627 60.5 14.2021 60.5H27.7293C30.3044 60.5 32.5382 58.6695 33.0657 56.1254L35.2995 44.9872H35.858C37.5334 44.9872 39.0226 43.9323 39.5811 42.35L41.7218 36.1449C42.1252 34.9659 41.939 33.6628 41.2254 32.67H41.1634ZM28.4739 55.2256C28.4118 55.5979 28.0706 55.8462 27.6982 55.8462H14.1711C13.7988 55.8462 13.4885 55.5979 13.3954 55.2256L11.3477 44.9872H30.4906L28.4429 55.2256H28.4739ZM35.3306 40.3333H6.56978L4.95645 35.6795H36.8818L35.2685 40.3333H35.3306Z" fill="var(--fill-0, white)"/>
</g>
</svg>
