<svg preserveAspectRatio="none" width="100%" height="100%" overflow="visible" style="display: block;" viewBox="0 0 39 40" fill="none" xmlns="http://www.w3.org/2000/svg">
<g id="fluent:search-16-filled">
<g id="fluent:search-16-filled_2">
</g>
<path id="Vector" d="M14.4688 27.4129C12.0876 27.1048 9.87074 26.0042 8.158 24.2799C6.44525 22.5555 5.3312 20.3026 4.98664 17.8665C4.64208 15.4305 5.08604 12.9457 6.25044 10.7933C7.41484 8.64087 9.23542 6.93953 11.433 5.95015C13.6307 4.96076 16.084 4.73795 18.4169 5.31586C20.7499 5.89377 22.8336 7.24051 24.3487 9.14959C25.8638 11.0587 26.7265 13.4247 26.8047 15.885C26.8829 18.3452 26.1721 20.7639 24.7815 22.7701L33.5885 31.8001C33.7681 31.9717 33.9122 32.1787 34.0121 32.4087C34.112 32.6387 34.1658 32.887 34.1701 33.1388C34.1744 33.3905 34.1293 33.6406 34.0373 33.8741C33.9454 34.1075 33.8085 34.3196 33.6349 34.4977C33.4613 34.6757 33.2545 34.8161 33.0269 34.9104C32.7993 35.0047 32.5555 35.051 32.31 35.0466C32.0645 35.0421 31.8225 34.987 31.5982 34.8845C31.374 34.7821 31.1721 34.6343 31.0048 34.4501L22.1977 25.4201C19.9561 27.0547 17.1976 27.766 14.4688 27.4129ZM21.0152 10.9472C19.819 9.72022 18.245 8.95657 16.5614 8.78641C14.8777 8.61624 13.1887 9.05007 11.7819 10.014C10.3752 10.9779 9.33791 12.4123 8.84671 14.0727C8.35552 15.7331 8.44085 17.5168 9.08817 19.12C9.73549 20.7231 10.9047 22.0464 12.3967 22.8644C13.8887 23.6825 15.611 23.9446 17.2703 23.6062C18.9296 23.2678 20.4232 22.3498 21.4965 21.0086C22.5699 19.6674 23.1566 17.986 23.1567 16.2508C23.1567 15.2658 22.9675 14.2905 22.5999 13.3805C22.2324 12.4705 21.6943 11.6437 21.0152 10.9472Z" fill="var(--fill-0, #4644B8)"/>
</g>
</svg>
