<svg preserveAspectRatio="none" width="100%" height="100%" overflow="visible" style="display: block;" viewBox="0 0 318.995 49.0726" fill="none" xmlns="http://www.w3.org/2000/svg">
<g id="Group 1">
<path id="Path 1" d="M24.5349 4.03993e-08C19.6821 0.000278503 14.9384 1.43954 10.9036 4.1358C6.86886 6.83205 3.7242 10.6642 1.86732 15.1476C0.0104434 19.6311 -0.475256 24.5645 0.471641 29.324C1.41854 34.0834 3.75551 38.4553 7.18702 41.8866C10.6185 45.3179 14.9905 47.6546 19.75 48.6012C24.5096 49.5479 29.4429 49.0619 33.9263 47.2047C38.4096 45.3476 42.2416 42.2027 44.9376 38.1678C47.6336 34.1328 49.0726 29.3891 49.0726 24.5363C49.0726 21.314 48.4379 18.1233 47.2048 15.1463C45.9716 12.1694 44.1641 9.46444 41.8856 7.18602C39.607 4.90759 36.902 3.10029 33.925 1.86731C30.9479 0.634329 27.7572 -0.000184861 24.5349 4.03993e-08ZM29.3219 16.4138L34.4652 11.2523C34.6676 11.0501 34.9421 10.9365 35.2283 10.9365C35.5144 10.9365 35.7889 11.0501 35.9914 11.2523L37.8414 13.0939C38.0436 13.2964 38.1572 13.5709 38.1572 13.857C38.1572 14.1432 38.0436 14.4176 37.8414 14.6201L32.6982 19.7817C32.2521 20.2298 31.6464 20.4823 31.0141 20.4838C30.3819 20.4852 29.7749 20.2354 29.3268 19.7894C28.8788 19.3434 28.6262 18.7376 28.6248 18.1053C28.6233 17.4731 28.8731 16.8662 29.3191 16.4181M15.4015 26.9115L8.11542 26.9354C7.97379 26.9353 7.83358 26.9072 7.70281 26.8528C7.57203 26.7984 7.45324 26.7188 7.35323 26.6186C7.25321 26.5183 7.17392 26.3993 7.11989 26.2684C7.06587 26.1374 7.03815 25.9972 7.03834 25.8555L7.02989 23.2494C7.02914 22.9633 7.14201 22.6885 7.3437 22.4855C7.54538 22.2825 7.8194 22.1678 8.10556 22.1667L15.3917 22.1428C15.7045 22.1418 16.0145 22.2024 16.3039 22.3212C16.5933 22.4399 16.8565 22.6146 17.0785 22.8351C17.3004 23.0555 17.4767 23.3176 17.5974 23.6062C17.718 23.8949 17.7807 24.2044 17.7817 24.5173C17.7827 24.8301 17.7221 25.1401 17.6033 25.4295C17.4845 25.7189 17.3099 25.9821 17.0894 26.2041C16.8689 26.426 16.6069 26.6023 16.3182 26.723C16.0296 26.8436 15.72 26.9063 15.4072 26.9073M19.7972 19.7267C19.5759 19.948 19.3133 20.1235 19.0243 20.2432C18.7352 20.363 18.4254 20.4246 18.1125 20.4246C17.7997 20.4246 17.4899 20.363 17.2008 20.2432C16.9118 20.1235 16.6492 19.948 16.4279 19.7267L11.2847 14.5596C11.0825 14.3571 10.9689 14.0826 10.9689 13.7965C10.9689 13.5103 11.0825 13.2358 11.2847 13.0334L13.1319 11.1932C13.3344 10.991 13.6089 10.8774 13.895 10.8774C14.1812 10.8774 14.4557 10.991 14.6581 11.1932L19.8014 16.3533C20.0226 16.5745 20.1981 16.8372 20.3179 17.1262C20.4376 17.4152 20.4992 17.725 20.4992 18.0379C20.4992 18.3508 20.4376 18.6606 20.3179 18.9496C20.1981 19.2387 20.0226 19.5013 19.8014 19.7225M25.8556 42.03L23.2494 42.0385C22.9633 42.0392 22.6885 41.9264 22.4855 41.7247C22.2825 41.523 22.1679 41.249 22.1667 40.9628L22.1428 33.6767C22.1407 33.0449 22.3898 32.4381 22.8351 31.9899C23.2804 31.5417 23.8855 31.2888 24.5173 31.2867C25.1491 31.2846 25.7559 31.5337 26.2041 31.979C26.6523 32.4243 26.9052 33.0294 26.9073 33.6612L26.9312 40.9473C26.932 41.2335 26.8191 41.5083 26.6174 41.7113C26.4157 41.9143 26.1417 42.0289 25.8556 42.03ZM24.5574 17.781C24.2442 17.7824 23.9338 17.7222 23.6439 17.6035C23.3541 17.4849 23.0904 17.3103 22.8681 17.0897C22.6458 16.8691 22.4692 16.6068 22.3483 16.3178C22.2275 16.0289 22.1648 15.719 22.1639 15.4058L22.14 8.11963C22.1398 7.978 22.1675 7.83772 22.2215 7.7068C22.2756 7.57589 22.3549 7.45689 22.4549 7.35661C22.5549 7.25634 22.6737 7.17674 22.8044 7.12237C22.9352 7.068 23.0754 7.03992 23.2171 7.03974L25.8232 7.03129C25.9649 7.03073 26.1054 7.05813 26.2365 7.1119C26.3677 7.16567 26.487 7.24477 26.5875 7.34468C26.6881 7.44458 26.7679 7.56333 26.8226 7.69413C26.8772 7.82493 26.9055 7.96521 26.9059 8.10696L26.9298 15.3931C26.9313 15.7063 26.871 16.0167 26.7524 16.3066C26.6338 16.5964 26.4592 16.8601 26.2386 17.0824C26.0179 17.3047 25.7557 17.4813 25.4667 17.6022C25.1778 17.723 24.8678 17.7857 24.5546 17.7866M37.7893 36.0434L35.9379 37.8738C35.7354 38.076 35.4609 38.1896 35.1748 38.1896C34.8886 38.1896 34.6141 38.076 34.4116 37.8738L29.2684 32.7137C28.8224 32.2656 28.5726 31.6586 28.5741 31.0264C28.5748 30.7133 28.6372 30.4035 28.7576 30.1145C28.8781 29.8256 29.0543 29.5632 29.2762 29.3423C29.498 29.1215 29.7612 28.9465 30.0507 28.8273C30.3402 28.7082 30.6504 28.6472 30.9634 28.648C31.5957 28.6494 32.2015 28.902 32.6475 29.3501L37.7907 34.5102C37.9929 34.7127 38.1065 34.9871 38.1065 35.2733C38.1065 35.5595 37.9929 35.8339 37.7907 36.0364M40.9699 26.9073L33.6837 26.9312C33.3709 26.9322 33.0609 26.8716 32.7715 26.7528C32.4821 26.6341 32.2189 26.4594 31.997 26.2389C31.775 26.0185 31.5987 25.7564 31.4781 25.4678C31.3574 25.1791 31.2948 24.8696 31.2938 24.5567C31.2927 24.2439 31.3533 23.9339 31.4721 23.6445C31.5909 23.3551 31.7655 23.0919 31.986 22.8699C32.2065 22.648 32.4686 22.4717 32.7572 22.351C33.0458 22.2304 33.3554 22.1677 33.6683 22.1667L40.9544 22.1428C41.0961 22.1422 41.2366 22.1696 41.3677 22.2234C41.4989 22.2772 41.6182 22.3563 41.7187 22.4562C41.8193 22.5561 41.8992 22.6748 41.9538 22.8056C42.0084 22.9364 42.0367 23.0767 42.0371 23.2185L42.0455 25.8246C42.0461 25.9663 42.0187 26.1068 41.9649 26.2379C41.9112 26.3691 41.8321 26.4884 41.7321 26.5889C41.6322 26.6895 41.5135 26.7693 41.3827 26.824C41.2519 26.8786 41.1116 26.9069 40.9699 26.9073Z" fill="var(--fill-0, #4644B8)"/>
<path id="Path 2" d="M11.1733 34.5102L16.3701 29.3008C16.5909 29.0789 16.8533 28.9027 17.1423 28.7822C17.4312 28.6618 17.7411 28.5994 18.0541 28.5987C18.3672 28.598 18.6773 28.6589 18.9668 28.7781C19.2563 28.8972 19.5195 29.0722 19.7414 29.293C19.9633 29.5139 20.1395 29.7763 20.26 30.0652C20.3804 30.3542 20.4428 30.664 20.4435 30.9771C20.4442 31.2902 20.3833 31.6003 20.2641 31.8898C20.145 32.1793 19.97 32.4425 19.7492 32.6644L14.5524 37.8738C14.4593 37.9669 14.3488 38.0407 14.2272 38.0911C14.1055 38.1415 13.9752 38.1674 13.8435 38.1674C13.7119 38.1674 13.5815 38.1415 13.4599 38.0911C13.3382 38.0407 13.2277 37.9669 13.1346 37.8738L11.1804 35.9266C11.0873 35.8335 11.0134 35.723 10.963 35.6013C10.9127 35.4797 10.8867 35.3493 10.8867 35.2177C10.8867 35.086 10.9127 34.9557 10.963 34.834C11.0134 34.7124 11.0873 34.6019 11.1804 34.5088" fill="var(--fill-0, #D8E530)"/>
<path id="Path 3" d="M28.5074 24.1618C28.5818 24.9475 28.4216 25.7376 28.047 26.4323C27.6724 27.1269 27.1002 27.6949 26.4028 28.0643C25.7054 28.4337 24.9141 28.588 24.129 28.5077C23.3438 28.4274 22.6002 28.116 21.992 27.613C21.3838 27.1101 20.9385 26.438 20.7123 25.6819C20.4861 24.9258 20.4892 24.1196 20.7213 23.3652C20.9533 22.6109 21.4038 21.9423 22.0158 21.444C22.6279 20.9457 23.3739 20.6401 24.1596 20.5659C24.6812 20.5164 25.2075 20.5702 25.7083 20.7241C26.2091 20.8781 26.6747 21.1292 27.0785 21.4631C27.4822 21.797 27.8162 22.2072 28.0614 22.6703C28.3066 23.1333 28.4581 23.6402 28.5074 24.1618Z" fill="var(--fill-0, #D8E530)"/>
<path id="Path 4" d="M79.4554 35.6858V36.4011H74.0094L69.107 28.5377H64.8508V36.4011H59.7441V12.5688C63.1486 12.5688 66.5192 12.535 69.9236 12.5688C71.0231 12.5087 72.123 12.677 73.1543 13.0629C74.1856 13.4488 75.1258 14.0441 75.9157 14.8112C76.7057 15.5782 77.3283 16.5005 77.7444 17.52C78.1604 18.5395 78.3609 19.6341 78.3332 20.7348C78.3706 22.1888 77.9892 23.6228 77.2346 24.8662C76.4801 26.1095 75.384 27.1098 74.077 27.7478L79.4554 35.6858ZM69.8898 24.349C70.3697 24.3555 70.8457 24.2623 71.2877 24.0753C71.7297 23.8884 72.1281 23.6117 72.4578 23.2629C72.7874 22.9141 73.041 22.5007 73.2027 22.0488C73.3644 21.5969 73.4305 21.1164 73.397 20.6377C73.4256 20.165 73.3553 19.6915 73.1906 19.2474C73.0258 18.8034 72.7702 18.3987 72.4401 18.059C72.1101 17.7194 71.7128 17.4524 71.2736 17.2751C70.8345 17.0977 70.3632 17.014 69.8898 17.0291H64.7832V24.3505L69.8898 24.349Z" fill="var(--fill-0, #16252D)"/>
<path id="Path 5" d="M97.0025 17.0629H87.5369V21.8964H96.3886V26.3568H87.5369V31.8041H97.2743V36.4349H82.3965V12.6025H97.0025V17.0629Z" fill="var(--fill-0, #16252D)"/>
<path id="Path 6" d="M107.261 32.4856L105.422 36.4278H100.111V35.7464L111.074 12.4012H113.421L124.315 35.7562V36.4377H119.038L117.166 32.4954L107.261 32.4856ZM108.929 28.1955H115.533L112.231 20.3322L108.929 28.1955Z" fill="var(--fill-0, #16252D)"/>
<path id="Path 7" d="M136.006 12.6377C143.598 12.6377 147.684 18.392 147.684 24.4518C147.785 30.5454 143.701 36.4349 136.006 36.4349H127.154V12.6406L136.006 12.6377ZM135.938 31.8393C140.33 31.8393 142.611 28.2983 142.611 24.4856C142.611 20.6729 140.261 17.2347 135.938 17.2347H132.227V31.8393H135.938Z" fill="var(--fill-0, #16252D)"/>
<path id="Path 8" d="M158.398 22.2385L160.746 17.5064L163.606 12.6039H169.02V13.353L160.853 26.9031V36.4363H155.743V26.9002L147.537 13.3502V12.6011H153.018L155.975 17.6697L158.228 22.2315L158.398 22.2385Z" fill="var(--fill-0, #16252D)"/>
<path id="Path 9" d="M171.856 17.0291V12.6039H189.492V17.0291H183.156V36.4349H178.22V17.0291H171.856Z" fill="var(--fill-0, #16252D)"/>
<path id="Path 10" d="M203.03 36.8432C201.404 36.9073 199.782 36.6309 198.269 36.0315C196.756 35.4322 195.385 34.5231 194.244 33.3627C193.103 32.2023 192.217 30.8162 191.643 29.2933C191.069 27.7704 190.819 26.1443 190.911 24.5194C190.893 22.9101 191.196 21.3133 191.799 19.8214C192.403 18.3296 193.297 16.9724 194.429 15.8282C195.561 14.6841 196.908 13.7758 198.394 13.1559C199.879 12.536 201.472 12.2168 203.082 12.2168C204.691 12.2168 206.285 12.536 207.77 13.1559C209.255 13.7758 210.603 14.6841 211.735 15.8282C212.866 16.9724 213.76 18.3296 214.364 19.8214C214.968 21.3133 215.27 22.9101 215.253 24.5194C215.336 26.1512 215.078 27.7825 214.495 29.3088C213.912 30.8351 213.016 32.2228 211.866 33.3829C210.715 34.543 209.335 35.4501 207.813 36.0459C206.292 36.6418 204.663 36.9133 203.03 36.8432ZM203.098 32.1786C206.809 32.1786 210.178 29.7274 210.178 24.518C210.178 19.4494 206.843 16.9263 203.132 16.9263C199.387 16.9263 196.051 19.479 196.051 24.518C196.051 29.7274 199.289 32.1786 203.098 32.1786Z" fill="var(--fill-0, #16252D)"/>
<path id="Path 11" d="M232.308 13.0122L237.448 27.7872H237.55L239.559 19.8549L241.942 12.6039H247.293V13.353L239.087 36.639H236.053L231.321 23.7704H231.219L226.624 36.639H223.491L215.252 13.353V12.6039H220.602L223.02 19.8887L225.164 27.7872H225.265L230.235 13.0122H232.308Z" fill="var(--fill-0, #16252D)"/>
<path id="Path 12" d="M260.827 36.8432C259.201 36.9073 257.58 36.6309 256.066 36.0315C254.553 35.4322 253.182 34.5231 252.041 33.3627C250.9 32.2024 250.014 30.8162 249.44 29.2933C248.866 27.7704 248.617 26.1443 248.708 24.5194C248.691 22.9101 248.993 21.3133 249.596 19.8214C250.2 18.3296 251.094 16.9724 252.226 15.8282C253.358 14.6841 254.706 13.7758 256.191 13.1559C257.676 12.536 259.269 12.2168 260.879 12.2168C262.488 12.2168 264.082 12.536 265.567 13.1559C267.052 13.7758 268.4 14.6841 269.532 15.8282C270.664 16.9724 271.557 18.3296 272.161 19.8214C272.765 21.3133 273.067 22.9101 273.05 24.5194C273.134 26.1512 272.875 27.7825 272.292 29.3088C271.709 30.8351 270.813 32.2228 269.663 33.3829C268.512 34.543 267.132 35.4501 265.61 36.0459C264.089 36.6418 262.46 36.9133 260.827 36.8432ZM260.896 32.1786C264.608 32.1786 267.978 29.7274 267.978 24.518C267.978 19.4494 264.642 16.9263 260.93 16.9263C257.185 16.9263 253.85 19.479 253.85 24.518C253.85 29.7274 257.088 32.1786 260.896 32.1786Z" fill="var(--fill-0, #16252D)"/>
<path id="Path 13" d="M295.597 35.6858V36.4011H290.151L285.248 28.5377H280.999V36.4011H275.893V12.5688C279.297 12.5688 282.668 12.535 286.072 12.5688C287.172 12.5087 288.272 12.677 289.303 13.0629C290.334 13.4488 291.274 14.0441 292.064 14.8112C292.854 15.5782 293.477 16.5005 293.893 17.52C294.309 18.5395 294.509 19.6341 294.482 20.7348C294.519 22.1888 294.138 23.6228 293.383 24.8662C292.629 26.1095 291.533 27.1098 290.226 27.7478L295.597 35.6858ZM286.031 24.349C286.511 24.3555 286.987 24.2623 287.429 24.0753C287.871 23.8884 288.27 23.6117 288.599 23.2629C288.929 22.9141 289.182 22.5007 289.344 22.0488C289.506 21.5969 289.572 21.1164 289.538 20.6377C289.567 20.165 289.497 19.6915 289.332 19.2474C289.167 18.8034 288.912 18.3987 288.582 18.059C288.251 17.7194 287.854 17.4524 287.415 17.2751C286.976 17.0977 286.505 17.014 286.031 17.0291H280.925V24.3505L286.031 24.349Z" fill="var(--fill-0, #16252D)"/>
<path id="Path 14" d="M303.506 22.4427C304.895 22.5609 306.294 22.4108 307.626 22.0006C308.886 21.3191 309.362 19.5156 310.008 16.825C310.825 13.8683 312.903 11.548 318.145 12.6377V16.1097C317.773 16.0098 317.384 15.9888 317.004 16.0481C316.623 16.1074 316.26 16.2456 315.936 16.454C315.612 16.6623 315.335 16.9361 315.124 17.2578C314.912 17.5794 314.77 17.9418 314.707 18.3216C314.279 20.6592 313.246 22.8437 311.711 24.6574L318.995 35.6886V36.4349H313.242L307.247 26.6299C306.01 26.8329 304.755 26.9131 303.502 26.8693V36.4349H298.434V12.6039H303.502L303.506 22.4427Z" fill="var(--fill-0, #16252D)"/>
</g>
</svg>
