<svg preserveAspectRatio="none" width="100%" height="100%" overflow="visible" style="display: block;" viewBox="0 0 20.4998 20.501" fill="none" xmlns="http://www.w3.org/2000/svg">
<path id="vector" d="M9.75 18H3.75C2.173 18 1.5 17.327 1.5 15.75V3.75C1.5 2.173 2.173 1.5 3.75 1.5H9V3.75C9 6.168 10.332 7.5 12.75 7.5H15V9.75C15 10.164 15.336 10.5 15.75 10.5C16.164 10.5 16.5 10.164 16.5 9.75V6.75C16.5 6.551 16.421 6.36 16.28 6.22L10.28 0.220001C10.139 0.0790012 9.949 0 9.75 0H3.75C1.332 0 0 1.332 0 3.75V15.75C0 18.168 1.332 19.5 3.75 19.5H9.75C10.164 19.5 10.5 19.164 10.5 18.75C10.5 18.336 10.164 18 9.75 18ZM10.5 3.75V2.561L13.939 6H12.75C11.173 6 10.5 5.327 10.5 3.75ZM11.75 10.5H4.75C4.336 10.5 4 10.164 4 9.75C4 9.336 4.336 9 4.75 9H11.75C12.164 9 12.5 9.336 12.5 9.75C12.5 10.164 12.164 10.5 11.75 10.5ZM4.75 14.5C4.336 14.5 4 14.164 4 13.75C4 13.336 4.336 13 4.75 13H8.75C9.164 13 9.5 13.336 9.5 13.75C9.5 14.164 9.164 14.5 8.75 14.5H4.75ZM20.28 19.22L18.73 17.67C19.108 17.093 19.333 16.407 19.333 15.667C19.333 13.645 17.688 12 15.667 12C13.645 12 12 13.645 12 15.667C12 17.689 13.645 19.334 15.667 19.334C16.407 19.334 17.0929 19.11 17.6699 18.732L19.22 20.281C19.366 20.427 19.558 20.501 19.75 20.501C19.942 20.501 20.134 20.428 20.28 20.281C20.573 19.987 20.573 19.512 20.28 19.22ZM13.5 15.667C13.5 14.472 14.472 13.5 15.667 13.5C16.861 13.5 17.833 14.472 17.833 15.667C17.833 16.862 16.861 17.834 15.667 17.834C14.472 17.833 13.5 16.861 13.5 15.667Z" fill="var(--fill-0, #757575)"/>
</svg>
