<svg preserveAspectRatio="none" width="100%" height="100%" overflow="visible" style="display: block;" viewBox="0 0 94.7701 84.8223" fill="none" xmlns="http://www.w3.org/2000/svg">
<path id="Vector" d="M83.417 18.3755L65.098 0L63.6008 0.494343L82.4212 19.3712C89.7093 26.6875 93.3533 36.2848 93.3533 45.8822C93.3533 55.4795 89.681 65.1545 82.3365 72.4779C67.6757 87.0892 43.8554 87.0539 29.2369 72.3931L0.381351 43.4528C0.247172 43.9895 0.120055 44.5262 0 45.07L28.2341 73.3889C35.8329 81.0159 45.8327 84.8223 55.8326 84.8223C60.8043 84.8223 65.783 83.876 70.4652 81.9834C75.1473 80.0978 79.5328 77.2589 83.3322 73.4736C98.551 58.3043 98.5863 33.5871 83.417 18.3755Z" fill="var(--fill-0, #97B9FF)"/>
</svg>
