<svg preserveAspectRatio="none" width="100%" height="100%" overflow="visible" style="display: block;" viewBox="0 0 96.6016 96.6016" fill="none" xmlns="http://www.w3.org/2000/svg">
<g id="Graph">
<path id="Ellipse 5" d="M48.3008 0.000262806C74.9766 0.000261635 96.6015 21.6252 96.6015 48.3009C96.6015 74.9766 74.9766 96.6016 48.3008 96.6016C21.625 96.6016 1.16152e-06 74.9767 0 48.3009C-1.16152e-06 21.6252 21.625 0.000263976 48.3008 0.000262806ZM48.3008 82.1114C66.9738 82.1114 82.1113 66.9739 82.1113 48.3009C82.1113 29.6279 66.9738 14.4905 48.3008 14.4905C29.6277 14.4905 14.4902 29.6279 14.4902 48.3009C14.4902 66.9739 29.6277 82.1114 48.3008 82.1114Z" fill="var(--fill-0, #EDEDED)"/>
<path id="Ellipse 2" d="M43.8484 0.205686C53.5616 -0.693512 63.3194 1.36937 71.8376 6.12283C80.3558 10.8763 87.2351 18.0975 91.5701 26.8361C95.9051 35.5747 97.4925 45.421 96.1235 55.0792C94.7546 64.7374 90.4933 73.7547 83.9006 80.9444C77.3079 88.1341 68.6928 93.1591 59.1892 95.3581C49.6855 97.5571 39.7387 96.827 30.658 93.2639C21.5773 89.7008 13.7883 83.4717 8.31602 75.3965C2.84379 67.3212 -0.0551327 57.7783 0.000796001 48.0238L14.4908 48.1069C14.4516 54.935 16.4809 61.6151 20.3114 67.2677C24.142 72.9204 29.5944 77.2808 35.9508 79.7749C42.3073 82.2691 49.2701 82.7802 55.9226 81.2409C62.5752 79.7016 68.6058 76.1841 73.2207 71.1513C77.8355 66.1185 80.8184 59.8064 81.7767 53.0457C82.735 46.2849 81.6238 39.3925 78.5893 33.2755C75.5548 27.1585 70.7393 22.1036 64.7766 18.7762C58.8138 15.4488 51.9833 14.0048 45.1841 14.6342L43.8484 0.205686Z" fill="var(--fill-0, #AFB7FF)"/>
</g>
</svg>
