<svg preserveAspectRatio="none" width="100%" height="100%" overflow="visible" style="display: block;" viewBox="0 0 381.836 58.74" fill="none" xmlns="http://www.w3.org/2000/svg">
<g id="Group 35">
<path id="Path 96" d="M29.37 1.70269e-08C23.5612 1.70269e-08 17.8828 1.72252 13.0529 4.94974C8.22304 8.17695 4.45862 12.7639 2.23567 18.1306C0.0127256 23.4973 -0.568898 29.4026 0.56435 35.0998C1.6976 40.797 4.49482 46.0303 8.60229 50.1377C12.7098 54.2452 17.943 57.0424 23.6402 58.1757C29.3374 59.3089 35.2428 58.7273 40.6094 56.5043C45.9761 54.2814 50.5631 50.517 53.7903 45.6871C57.0175 40.8572 58.74 35.1788 58.74 29.37C58.7401 25.513 57.9806 21.6938 56.5046 18.1304C55.0287 14.567 52.8653 11.3293 50.138 8.60198C47.4107 5.8747 44.173 3.71132 40.6096 2.23539C37.0462 0.759457 33.227 -0.000131313 29.37 1.70269e-08ZM35.1 19.647L41.256 13.469C41.4983 13.2268 41.8269 13.0907 42.1695 13.0907C42.5121 13.0907 42.8407 13.2268 43.083 13.469L45.293 15.669C45.535 15.9114 45.6709 16.24 45.6709 16.5825C45.6709 16.925 45.535 17.2536 45.293 17.496L39.137 23.674C38.6008 24.1985 37.8795 24.4906 37.1295 24.4871C36.3794 24.4836 35.6609 24.1847 35.1296 23.6553C34.5983 23.1258 34.297 22.4084 34.2909 21.6583C34.2848 20.9083 34.5744 20.186 35.097 19.648M18.437 32.208L9.71601 32.237C9.54605 32.2379 9.37756 32.2053 9.22021 32.1411C9.06285 32.0768 8.91971 31.9822 8.79896 31.8625C8.67822 31.7429 8.58225 31.6006 8.51654 31.4439C8.45083 31.2871 8.41667 31.119 8.41601 30.949L8.40601 27.83C8.40509 27.66 8.43769 27.4916 8.50194 27.3342C8.5662 27.1768 8.66085 27.0337 8.78048 26.913C8.9001 26.7922 9.04236 26.6962 9.19912 26.6305C9.35587 26.5648 9.52404 26.5307 9.69401 26.53L18.414 26.502C18.7972 26.4864 19.1796 26.5483 19.5383 26.6839C19.897 26.8195 20.2247 27.026 20.5017 27.2911C20.7788 27.5563 20.9995 27.8746 21.1508 28.227C21.302 28.5794 21.3806 28.9587 21.3819 29.3421C21.3831 29.7256 21.3071 30.1054 21.1582 30.4588C21.0093 30.8122 20.7907 31.132 20.5154 31.399C20.2401 31.6659 19.9138 31.8747 19.556 32.0126C19.1982 32.1506 18.8163 32.215 18.433 32.202M23.688 23.602C23.4228 23.8664 23.1081 24.076 22.7618 24.2188C22.4156 24.3616 22.0446 24.4347 21.6701 24.4341C21.2955 24.4334 20.9248 24.359 20.5791 24.215C20.2333 24.071 19.9193 23.8604 19.655 23.595L13.498 17.419C13.3781 17.2991 13.283 17.1568 13.2181 17.0001C13.1532 16.8435 13.1198 16.6756 13.1198 16.506C13.1198 16.3364 13.1532 16.1685 13.2181 16.0119C13.283 15.8552 13.3781 15.7129 13.498 15.593L15.708 13.393C15.8279 13.2729 15.9703 13.1777 16.1271 13.1127C16.2838 13.0477 16.4518 13.0142 16.6215 13.0142C16.7912 13.0142 16.9592 13.0477 17.116 13.1127C17.2727 13.1777 17.4151 13.2729 17.535 13.393L23.7 19.577C24.2348 20.1118 24.5352 20.8372 24.5352 21.5935C24.5352 22.3498 24.2348 23.0752 23.7 23.61M30.949 50.31L27.83 50.321C27.66 50.3219 27.4916 50.2893 27.3342 50.2251C27.1769 50.1608 27.0337 50.0662 26.913 49.9465C26.7922 49.8269 26.6962 49.6846 26.6305 49.5279C26.5648 49.3711 26.5307 49.203 26.53 49.033L26.5 40.314C26.5251 39.5764 26.8351 38.8773 27.3648 38.3635C27.8946 37.8498 28.6029 37.5613 29.3409 37.5589C30.0788 37.5564 30.789 37.8401 31.3222 38.3503C31.8554 38.8606 32.17 39.5576 32.2 40.295L32.229 49.016C32.2302 49.186 32.1978 49.3546 32.1336 49.5121C32.0695 49.6696 31.9748 49.8128 31.8551 49.9336C31.7355 50.0544 31.5931 50.1504 31.4362 50.216C31.2793 50.2816 31.1111 50.3156 30.941 50.316M29.394 21.287C28.6376 21.2891 27.9113 20.9909 27.3746 20.4578C26.838 19.9247 26.5349 19.2004 26.532 18.444L26.5 9.723C26.499 9.55308 26.5314 9.38462 26.5956 9.22727C26.6597 9.06992 26.7543 8.92677 26.8738 8.80601C26.9934 8.68526 27.1356 8.58927 27.2923 8.52354C27.449 8.45782 27.6171 8.42365 27.787 8.423L30.907 8.413C31.077 8.41195 31.2456 8.44446 31.403 8.50866C31.5604 8.57287 31.7036 8.66751 31.8244 8.78717C31.9451 8.90682 32.0411 9.04913 32.1068 9.20595C32.1724 9.36276 32.2065 9.53099 32.207 9.701L32.236 18.422C32.2381 19.1781 31.94 19.9042 31.4071 20.4407C30.8742 20.9771 30.1502 21.2801 29.394 21.283M45.228 43.139L43.019 45.339C42.7766 45.581 42.448 45.7169 42.1055 45.7169C41.763 45.7169 41.4344 45.581 41.192 45.339L35.035 39.163C34.5123 38.6251 34.2225 37.9029 34.2285 37.1529C34.2344 36.4029 34.5355 35.6853 35.0667 35.1558C35.5979 34.6262 36.3163 34.3272 37.0663 34.3235C37.8163 34.3198 38.5377 34.6117 39.074 35.136L45.231 41.312C45.4733 41.5543 45.6093 41.8829 45.6093 42.2255C45.6093 42.5681 45.4733 42.8967 45.231 43.139M49.038 32.207L40.317 32.236C39.5795 32.2109 38.8803 31.9009 38.3666 31.3712C37.8528 30.8414 37.5644 30.1331 37.5619 29.3952C37.5594 28.6572 37.8431 27.947 38.3534 27.4138C38.8636 26.8806 39.5606 26.566 40.298 26.536L49.019 26.508C49.189 26.5068 49.3575 26.5392 49.5149 26.6033C49.6723 26.6674 49.8155 26.7619 49.9363 26.8815C50.0571 27.0011 50.1531 27.1433 50.2187 27.3001C50.2844 27.4569 50.3185 27.625 50.319 27.795L50.33 30.915C50.3311 31.085 50.2986 31.2535 50.2343 31.411C50.1701 31.5684 50.0755 31.7116 49.9558 31.8323C49.8362 31.9531 49.6939 32.0491 49.5371 32.1147C49.3802 32.1804 49.212 32.2145 49.042 32.215" fill="var(--fill-0, white)"/>
<path id="Path 97" d="M13.44 41.244L19.6 35.066C19.8631 34.7951 20.1774 34.5792 20.5246 34.4308C20.8718 34.2823 21.245 34.2043 21.6226 34.2012C22.0002 34.1981 22.3746 34.2701 22.7242 34.4129C23.0737 34.5556 23.3915 34.7664 23.659 35.033C23.9264 35.2995 24.1383 35.6165 24.2823 35.9656C24.4263 36.3146 24.4995 36.6888 24.4978 37.0664C24.496 37.444 24.4193 37.8175 24.272 38.1652C24.1248 38.513 23.9099 38.828 23.64 39.092L17.48 45.27C17.2377 45.5122 16.9091 45.6483 16.5665 45.6483C16.2239 45.6483 15.8953 45.5122 15.653 45.27L13.443 43.07C13.2008 42.8277 13.0647 42.4991 13.0647 42.1565C13.0647 41.8139 13.2008 41.4853 13.443 41.243" fill="var(--fill-0, #D8E530)"/>
<path id="Path 98" d="M34.124 28.92C34.2138 29.8604 34.0227 30.8064 33.5747 31.6382C33.1268 32.4699 32.4422 33.1501 31.6075 33.5927C30.7729 34.0353 29.8257 34.2203 28.8859 34.1244C27.946 34.0285 27.0557 33.6559 26.3277 33.0539C25.5997 32.4519 25.0666 31.6474 24.7959 30.7423C24.5252 29.8372 24.529 28.8721 24.807 27.9692C25.0849 27.0663 25.6245 26.2661 26.3573 25.6699C27.0902 25.0738 27.9834 24.7084 28.924 24.62C30.1836 24.5017 31.4386 24.888 32.4136 25.6942C33.3885 26.5004 34.0037 27.6606 34.124 28.92Z" fill="var(--fill-0, #D8E530)"/>
<path id="Path 99" d="M95.108 42.715V43.571H88.588L82.72 34.158H77.626V43.571H71.513V15.045C75.589 15.045 79.622 15.004 83.698 15.045C90.218 15.045 93.763 19.772 93.763 24.825C93.8088 26.5662 93.353 28.2839 92.4498 29.7732C91.5466 31.2625 90.2342 32.4608 88.669 33.225L95.108 42.715ZM83.657 29.145C84.2315 29.1527 84.8013 29.0412 85.3305 28.8175C85.8597 28.5938 86.3367 28.2628 86.7314 27.8453C87.1261 27.4279 87.43 26.9331 87.6237 26.3922C87.8174 25.8513 87.8969 25.2761 87.857 24.703C87.8912 24.137 87.807 23.57 87.6096 23.0384C87.4123 22.5068 87.1062 22.0222 86.7109 21.6156C86.3156 21.209 85.8398 20.8894 85.314 20.6771C84.7881 20.4649 84.2238 20.3647 83.657 20.383H77.544V29.145H83.657Z" fill="var(--fill-0, white)"/>
<path id="Path 100" d="M116.113 20.425H104.784V26.211H115.384V31.55H104.784V38.07H116.439V43.612H98.63V15.087H116.113V20.425Z" fill="var(--fill-0, white)"/>
<path id="Path 101" d="M128.392 38.885L126.192 43.612H119.836V42.8L132.957 14.845H135.769L148.809 42.8V43.615H142.492L140.251 38.888L128.392 38.885ZM130.392 33.75H138.292L134.34 24.337L130.392 33.75Z" fill="var(--fill-0, white)"/>
<path id="Path 102" d="M162.8 15.127C171.888 15.127 176.778 22.014 176.778 29.268C176.9 36.562 172.01 43.612 162.8 43.612H152.2V15.127H162.8ZM162.719 38.111C167.975 38.111 170.706 33.873 170.706 29.311C170.706 24.749 167.894 20.631 162.719 20.631H158.277V38.111H162.719Z" fill="var(--fill-0, white)"/>
<path id="Path 103" d="M189.6 26.619L192.411 20.955L195.835 15.086H202.314V15.986L192.534 32.2V43.61H186.421V32.2L176.6 15.983V15.083H183.161L186.707 21.155L189.396 26.616L189.6 26.619Z" fill="var(--fill-0, white)"/>
<path id="Path 104" d="M205.71 20.384V15.084H226.819V20.384H219.239V43.612H213.331V20.384H205.71Z" fill="var(--fill-0, white)"/>
<path id="Path 105" d="M243.024 44.1C235.404 44.1 228.517 38.965 228.517 29.348C228.517 19.731 235.567 14.637 243.146 14.637C250.604 14.637 257.654 19.771 257.654 29.348C257.654 38.028 251.664 44.1 243.024 44.1ZM243.106 38.517C247.548 38.517 251.582 35.583 251.582 29.348C251.582 23.276 247.589 20.26 243.146 20.26C238.664 20.26 234.671 23.317 234.671 29.348C234.671 35.583 238.542 38.517 243.106 38.517Z" fill="var(--fill-0, white)"/>
<path id="Path 106" d="M278.071 15.576L284.224 33.262H284.347L286.747 23.767L289.6 15.087H296V15.987L286.18 43.857H282.554L276.889 28.457H276.767L271.267 43.857H267.518L257.656 15.983V15.083H264.056L266.949 23.804L269.516 33.258H269.639L275.588 15.572L278.071 15.576Z" fill="var(--fill-0, white)"/>
<path id="Path 107" d="M312.206 44.1C304.586 44.1 297.699 38.965 297.699 29.348C297.699 19.731 304.749 14.637 312.328 14.637C319.786 14.637 326.836 19.771 326.836 29.348C326.836 38.028 320.846 44.1 312.206 44.1ZM312.288 38.517C316.73 38.517 320.764 35.583 320.764 29.348C320.764 23.276 316.771 20.26 312.328 20.26C307.846 20.26 303.853 23.317 303.853 29.348C303.853 35.583 307.723 38.517 312.288 38.517Z" fill="var(--fill-0, white)"/>
<path id="Path 108" d="M353.826 42.715V43.571H347.306L341.438 34.158H336.344V43.571H330.231V15.045C334.307 15.045 338.34 15.004 342.416 15.045C348.936 15.045 352.481 19.772 352.481 24.825C352.527 26.5662 352.071 28.2839 351.168 29.7732C350.265 31.2625 348.952 32.4608 347.387 33.225L353.826 42.715ZM342.375 29.145C342.949 29.1527 343.519 29.0412 344.048 28.8175C344.578 28.5938 345.055 28.2628 345.449 27.8453C345.844 27.4279 346.148 26.9331 346.342 26.3922C346.535 25.8513 346.615 25.2761 346.575 24.703C346.609 24.137 346.525 23.57 346.328 23.0384C346.13 22.5068 345.824 22.0222 345.429 21.6156C345.034 21.209 344.558 20.8894 344.032 20.6771C343.506 20.4649 342.942 20.3647 342.375 20.383H336.262V29.145H342.375Z" fill="var(--fill-0, white)"/>
<path id="Path 109" d="M363.294 26.863C365.046 26.863 367.084 26.904 368.225 26.334C369.733 25.518 370.303 23.358 371.077 20.139C372.056 16.594 374.541 13.823 380.817 15.127V19.284C378.535 19.084 377.317 19.772 376.701 21.932C375.845 25.192 374.867 27.759 373.115 29.512L381.836 42.712V43.612H374.949L367.777 31.875C366.296 32.1178 364.794 32.2136 363.294 32.161V43.612H357.222V15.086H363.294V26.863Z" fill="var(--fill-0, white)"/>
</g>
</svg>
