<svg preserveAspectRatio="none" width="100%" height="100%" overflow="visible" style="display: block;" viewBox="0 0 220.213 34.8001" fill="none" xmlns="http://www.w3.org/2000/svg">
<g id="Group 31">
<path id="Icon akar-facebook-fill" d="M2.33574e-09 17.5C0.00680213 21.6256 1.46231 25.6178 4.11246 28.7797C6.7626 31.9416 10.439 34.0724 14.5 34.8V22.231H10.15V17.4H14.5V13.532C14.5 9.182 17.3 6.767 21.267 6.767C22.5631 6.80004 23.855 6.92906 25.132 7.153V11.6H22.908C20.781 11.6 20.298 12.663 20.298 14.017V17.4H24.938L24.165 22.232H20.3V34.8C24.6119 34.0466 28.486 31.7074 31.1606 28.2423C33.8352 24.7772 35.1167 20.4369 34.7532 16.0747C34.3896 11.7126 32.4074 7.64427 29.1962 4.66964C25.985 1.695 21.7772 0.0292861 17.4 0C12.7761 0.0264229 8.35052 1.88183 5.09023 5.16085C1.82994 8.43988 -7.54924e-05 12.876 2.33574e-09 17.5Z" fill="var(--fill-0, #D8E530)"/>
<path id="Icon akar-instagram-fill" d="M76.4209 0.1C78.2759 0.015 78.8679 0 83.5939 0C88.3199 0 88.9119 0.021 90.7649 0.1C92.2091 0.128956 93.638 0.402148 94.9909 0.908C96.1465 1.35607 97.1958 2.0404 98.0718 2.91721C98.9477 3.79402 99.631 4.844 100.078 6C100.584 7.35192 100.858 8.77973 100.888 10.223C100.973 12.081 100.988 12.673 100.988 17.398C100.988 22.123 100.967 22.716 100.888 24.571C100.859 26.0144 100.585 27.4423 100.078 28.794C99.6324 29.9498 98.95 30.9996 98.0746 31.876C97.1992 32.7525 96.1502 33.4361 94.9949 33.883C93.643 34.3892 92.2152 34.6631 90.7719 34.693C88.9149 34.778 88.3239 34.793 83.5969 34.793C78.8699 34.793 78.2789 34.772 76.4239 34.693C74.9806 34.6639 73.5526 34.39 72.2009 33.883C71.0387 33.447 69.9856 32.7628 69.1149 31.878C68.2303 31.01 67.5454 29.9596 67.1079 28.8C66.601 27.4468 66.3262 26.0177 66.2949 24.573C66.2099 22.715 66.1949 22.123 66.1949 17.398C66.1949 12.673 66.2159 12.08 66.2949 10.227C66.3254 8.78221 66.6003 7.353 67.1079 6C67.5456 4.83964 68.2308 3.78859 69.1159 2.92C69.9842 2.03519 71.035 1.35029 72.1949 0.913C73.5472 0.406422 74.9752 0.131566 76.4189 0.1H76.4209ZM90.6209 3.232C88.7859 3.148 88.2359 3.132 83.5899 3.132C78.9439 3.132 78.3899 3.149 76.5589 3.232C75.4555 3.24512 74.3625 3.44809 73.3279 3.832C72.5727 4.11083 71.8894 4.555 71.3279 5.132C70.7509 5.69343 70.3068 6.37676 70.0279 7.132C69.644 8.16659 69.4411 9.25955 69.4279 10.363C69.3439 12.198 69.3279 12.748 69.3279 17.394C69.3279 22.04 69.3449 22.594 69.4279 24.425C69.4411 25.5284 69.644 26.6214 70.0279 27.656C70.3166 28.4063 70.7594 29.0877 71.3278 29.6561C71.8963 30.2246 72.5777 30.6674 73.3279 30.956C74.3625 31.3399 75.4555 31.5429 76.5589 31.556C78.3939 31.64 78.9429 31.656 83.5899 31.656C88.2369 31.656 88.7899 31.639 90.6209 31.556C91.7244 31.5429 92.8174 31.3399 93.8519 30.956C94.6022 30.6674 95.2836 30.2246 95.8521 29.6561C96.4205 29.0877 96.8633 28.4063 97.1519 27.656C97.5359 26.6214 97.7388 25.5284 97.7519 24.425C97.8359 22.59 97.8519 22.04 97.8519 17.394C97.8519 12.748 97.8349 12.194 97.7519 10.363C97.7388 9.25955 97.5359 8.16659 97.1519 7.132C96.8731 6.37676 96.4289 5.69343 95.8519 5.132C95.2905 4.555 94.6072 4.11083 93.8519 3.832C92.8174 3.44809 91.7244 3.24512 90.6209 3.232ZM81.3709 22.762C82.5201 23.2391 83.7923 23.334 84.9995 23.0327C86.2068 22.7314 87.2851 22.0498 88.0753 21.0886C88.8655 20.1275 89.3256 18.9377 89.3877 17.6949C89.4498 16.4522 89.1107 15.2224 88.4203 14.1872C87.7299 13.1521 86.7249 12.3663 85.5537 11.9461C84.3826 11.5259 83.1073 11.4934 81.9163 11.8536C80.7252 12.2137 79.6816 12.9473 78.9395 13.946C78.1974 14.9448 77.7961 16.1557 77.7949 17.4C77.7941 18.548 78.1339 19.6704 78.7714 20.6251C79.4089 21.5797 80.3153 22.3238 81.3759 22.763L81.3709 22.762ZM77.2709 11.075C78.5216 9.82425 80.1151 8.97247 81.8499 8.62737C83.5847 8.28227 85.3828 8.45934 87.017 9.1362C88.6511 9.81306 90.0479 10.9593 91.0306 12.43C92.0132 13.9007 92.5378 15.6297 92.5378 17.3985C92.5378 19.1673 92.0132 20.8963 91.0306 22.367C90.0479 23.8377 88.6511 24.9839 87.017 25.6608C85.3828 26.3377 83.5847 26.5147 81.8499 26.1696C80.1151 25.8245 78.5216 24.9727 77.2709 23.722C75.5939 22.0449 74.6518 19.7703 74.6518 17.3985C74.6518 15.0267 75.5939 12.7521 77.2709 11.075ZM94.5209 9.787C94.8273 9.49821 95.0404 9.12458 95.1332 8.71394C95.2259 8.3033 95.1939 7.87432 95.0414 7.48193C94.8889 7.08954 94.6228 6.75159 94.2771 6.51133C93.9314 6.27108 93.5219 6.13946 93.101 6.13331C92.68 6.12717 92.2668 6.24678 91.9143 6.47685C91.5617 6.70691 91.2858 7.03695 91.1219 7.42472C90.9581 7.8125 90.9136 8.24035 90.9943 8.65353C91.075 9.0667 91.2772 9.4464 91.5749 9.744C91.964 10.1328 92.4892 10.3548 93.0392 10.3629C93.5892 10.3709 94.1207 10.1643 94.5209 9.787Z" fill="var(--fill-0, #D8E530)"/>
<path id="Icon akar-tiktok-fill" d="M156.456 8.06096C156.236 7.94708 156.022 7.82226 155.814 7.68696C155.21 7.28805 154.657 6.81802 154.165 6.28696C153.2 5.20697 152.556 3.87862 152.306 2.45196H152.312C152.221 2.00232 152.197 1.54169 152.24 1.08496H146.64V22.752C146.64 23.042 146.64 23.331 146.628 23.615C146.628 23.65 146.628 23.682 146.622 23.721C146.624 23.7369 146.624 23.753 146.622 23.769V23.782C146.563 24.5605 146.313 25.3124 145.894 25.9715C145.476 26.6306 144.902 27.1764 144.222 27.561C143.515 27.9632 142.715 28.1742 141.902 28.173C140.64 28.173 139.43 27.6717 138.538 26.7794C137.645 25.8871 137.144 24.6769 137.144 23.415C137.144 22.1531 137.645 20.9428 138.538 20.0505C139.43 19.1582 140.64 18.657 141.902 18.657C142.397 18.6569 142.888 18.7352 143.358 18.889L143.365 13.182C141.938 12.9979 140.489 13.1116 139.108 13.5159C137.728 13.9202 136.446 14.6063 135.344 15.531C134.378 16.3699 133.566 17.3709 132.944 18.489C132.161 19.9345 131.737 21.5472 131.708 23.191C131.695 24.4558 131.898 25.7135 132.308 26.91V26.924C132.678 27.9176 133.191 28.8521 133.83 29.698C134.522 30.5767 135.34 31.3486 136.257 31.989V31.975L136.27 31.989C137.97 33.1047 139.957 33.7026 141.99 33.71C143.456 33.7078 144.904 33.3878 146.235 32.772C147.548 32.1522 148.721 31.2705 149.681 30.181C150.48 29.2552 151.116 28.2001 151.561 27.061C151.971 25.9135 152.199 24.7089 152.237 23.491V11.991C152.305 12.032 153.211 12.63 153.211 12.63C154.254 13.2438 155.378 13.7083 156.55 14.01C157.676 14.269 158.822 14.4263 159.976 14.48V8.91996C158.749 8.9355 157.538 8.63999 156.456 8.06096Z" fill="var(--fill-0, #D8E530)"/>
<path id="Icon akar-linkedin-v2-fill" d="M199.706 12.454H205.765V15.472C206.638 13.736 208.876 12.172 212.238 12.172C218.683 12.172 220.213 15.627 220.213 21.966V33.706H213.687V23.406C213.687 19.796 212.814 17.76 210.592 17.76C207.511 17.76 206.23 19.954 206.23 23.404V33.704H199.706V12.454ZM188.517 33.434H195.042V12.177H188.517V33.434ZM195.977 5.24605C195.977 5.79302 195.869 6.33461 195.658 6.83933C195.447 7.34405 195.138 7.80182 194.749 8.18605C194.164 8.77237 193.419 9.17246 192.607 9.33586C191.796 9.49925 190.954 9.41865 190.188 9.10421C189.422 8.78976 188.766 8.25556 188.303 7.56895C187.84 6.88234 187.591 6.07407 187.587 5.24605C187.587 4.69896 187.695 4.1573 187.906 3.65245C188.117 3.14761 188.426 2.68962 188.815 2.30505C189.605 1.52429 190.671 1.08643 191.782 1.08643C192.892 1.08643 193.958 1.52429 194.748 2.30505C195.137 2.68977 195.446 3.14776 195.657 3.65256C195.868 4.15736 195.977 4.69895 195.977 5.24605Z" fill="var(--fill-0, #D8E530)"/>
</g>
</svg>
