<svg preserveAspectRatio="none" width="100%" height="100%" overflow="visible" style="display: block;" viewBox="0 0 40 40" fill="none" xmlns="http://www.w3.org/2000/svg">
<g id="Layer_1" clip-path="url(#clip0_222_3874)">
<g id="Group">
<path id="Vector" d="M22.7081 1.13061L22.7354 9.55247C22.74 11.0554 21.5258 12.2787 20.0228 12.2833C18.5199 12.2878 17.2966 11.0736 17.2921 9.5707L17.2647 1.14885C17.2632 0.522757 17.7692 0.0121571 18.3953 0.0106375L21.5683 0C22.1944 -0.00151964 22.705 0.504521 22.7065 1.13061H22.7081Z" fill="var(--fill-0, #4644B8)"/>
<path id="Vector_2" d="M17.292 38.8679L17.2646 30.446C17.2601 28.9431 18.4743 27.7198 19.9772 27.7152C21.4801 27.7107 22.7034 28.9249 22.708 30.4278L22.7354 38.8496C22.7369 39.4757 22.2308 39.9863 21.6047 39.9878L18.4302 39.9985C17.8041 40 17.2935 39.494 17.292 38.8679Z" fill="var(--fill-0, #4644B8)"/>
</g>
<g id="Group_2">
<path id="Vector_3" d="M35.2735 8.59661L29.3287 14.5627C28.268 15.628 26.5447 15.631 25.4794 14.5688C24.4142 13.5081 24.4111 11.7848 25.4734 10.7196L31.4182 4.75344C31.8604 4.3097 32.5792 4.30818 33.0229 4.7504L35.2705 6.99035C35.7142 7.43257 35.7157 8.15136 35.2735 8.59509V8.59661Z" fill="var(--fill-0, #4644B8)"/>
<path id="Vector_4" d="M4.72608 31.4034L10.6709 25.4373C11.7316 24.372 13.4549 24.369 14.5202 25.4312C15.5854 26.4919 15.5885 28.2152 14.5263 29.2804L8.58141 35.2466C8.1392 35.6903 7.42041 35.6918 6.97667 35.2496L4.72912 33.0097C4.28539 32.5674 4.28387 31.8486 4.72608 31.4049V31.4034Z" fill="var(--fill-0, #D8E530)"/>
</g>
<g id="Group_3">
<path id="Vector_5" d="M38.8675 22.708L30.4456 22.7353C28.9427 22.7399 27.7194 21.5257 27.7149 20.0228C27.7103 18.5199 28.9245 17.2965 30.4274 17.292L38.8493 17.2646C39.4754 17.2631 39.986 17.7692 39.9875 18.3953L39.9981 21.5698C39.9996 22.1959 39.4936 22.7065 38.8675 22.708Z" fill="var(--fill-0, #4644B8)"/>
<path id="Vector_6" d="M1.13061 17.292L9.55247 17.2646C11.0554 17.2601 12.2787 18.4743 12.2833 19.9772C12.2878 21.4801 11.0736 22.7034 9.5707 22.708L1.14885 22.7354C0.522757 22.7369 0.0121571 22.2308 0.0106375 21.6047L0 18.4302C-0.00151964 17.8041 0.504521 17.2935 1.13061 17.292Z" fill="var(--fill-0, #4644B8)"/>
</g>
<g id="Group_4">
<path id="Vector_7" d="M31.3532 35.3119L25.4069 29.3473C24.3462 28.282 24.3477 26.5588 25.413 25.4981C26.4782 24.4374 28.2015 24.4389 29.2622 25.5041L35.2086 31.4687C35.6508 31.9125 35.6508 32.6313 35.2055 33.0735L32.958 35.3149C32.5142 35.7572 31.7955 35.7572 31.3532 35.3119Z" fill="var(--fill-0, #4644B8)"/>
<path id="Vector_8" d="M8.64676 4.68809L14.5931 10.6527C15.6538 11.718 15.6523 13.4412 14.587 14.5019C13.5218 15.5626 11.7985 15.5611 10.7378 14.4959L4.79143 8.53127C4.34921 8.08753 4.34921 7.36874 4.79447 6.92653L7.04202 4.68505C7.48575 4.24284 8.20454 4.24284 8.64676 4.68809Z" fill="var(--fill-0, #4644B8)"/>
</g>
<path id="Vector_9" d="M20.0003 24.5589C22.5182 24.5589 24.5593 22.5178 24.5593 20C24.5593 17.4822 22.5182 15.4411 20.0003 15.4411C17.4825 15.4411 15.4414 17.4822 15.4414 20C15.4414 22.5178 17.4825 24.5589 20.0003 24.5589Z" fill="var(--fill-0, #D8E530)"/>
</g>
<defs>
<clipPath id="clip0_222_3874">
<rect width="40" height="40" fill="white"/>
</clipPath>
</defs>
</svg>
