<svg preserveAspectRatio="none" width="100%" height="100%" overflow="visible" style="display: block;" viewBox="0 0 19.235 25.6953" fill="none" xmlns="http://www.w3.org/2000/svg">
<path id="Path 43" d="M11.1748 0.655C11.1228 0.603 11.0678 0.555 11.0108 0.506C10.9848 0.485 10.9578 0.467 10.9318 0.447C10.9058 0.427 10.8678 0.398 10.8318 0.376C10.7958 0.354 10.7668 0.336 10.7318 0.317C10.6968 0.298 10.6718 0.28 10.6408 0.263C10.6098 0.246 10.5738 0.23 10.5408 0.214C10.5078 0.198 10.4768 0.183 10.4408 0.169C10.4048 0.155 10.3738 0.144 10.3408 0.132C10.3078 0.12 10.2808 0.107 10.2428 0.1C10.2048 0.093 10.1748 0.082 10.1428 0.074C10.1108 0.066 10.0698 0.054 10.0318 0.047C9.9938 0.04 9.9538 0.035 9.9138 0.029C9.8738 0.023 9.8488 0.018 9.8138 0.015C9.7408 0 9.66681 0 9.59381 0C9.52081 0 9.4468 0 9.3728 0.011C9.3398 0.011 9.30681 0.02 9.27281 0.025C9.23881 0.03 9.20081 0.034 9.16481 0.041H9.1548C9.1178 0.048 9.08081 0.059 9.04381 0.068C9.00681 0.077 8.9758 0.084 8.9438 0.094C8.9118 0.104 8.8728 0.118 8.8378 0.131C8.8028 0.144 8.77081 0.154 8.73781 0.168C8.70481 0.182 8.6728 0.198 8.6378 0.213C8.6028 0.228 8.56981 0.244 8.53781 0.262C8.50581 0.28 8.4778 0.297 8.4478 0.315C8.4178 0.333 8.38181 0.353 8.34781 0.374C8.31381 0.395 8.2828 0.421 8.2478 0.445C8.2128 0.469 8.1988 0.479 8.1748 0.499L8.16881 0.504C8.11181 0.551 8.05681 0.604 8.00481 0.653L0.6248 8.033C0.218714 8.45516 -0.0055785 9.01977 0.000105452 9.60551C0.0057894 10.1913 0.240993 10.7514 0.655196 11.1656C1.0694 11.5798 1.62956 11.815 2.2153 11.8207C2.80104 11.8264 3.36565 11.6021 3.78781 11.196L7.34981 7.634V23.411C7.34351 23.7087 7.3967 24.0046 7.50627 24.2815C7.61584 24.5583 7.77957 24.8105 7.98787 25.0233C8.19617 25.236 8.44485 25.4051 8.71933 25.5205C8.99381 25.6359 9.28856 25.6953 9.5863 25.6953C9.88405 25.6953 10.1788 25.6359 10.4533 25.5205C10.7278 25.4051 10.9764 25.236 11.1847 25.0233C11.393 24.8105 11.5568 24.5583 11.6663 24.2815C11.7759 24.0046 11.8291 23.7087 11.8228 23.411V7.637L15.3858 11.2C15.592 11.4143 15.8389 11.5854 16.112 11.7032C16.385 11.821 16.6789 11.8832 16.9763 11.8861C17.2737 11.889 17.5687 11.8325 17.844 11.72C18.1194 11.6076 18.3695 11.4413 18.5798 11.231C18.7901 11.0207 18.9564 10.7706 19.0688 10.4952C19.1813 10.2199 19.2378 9.9249 19.2349 9.62749C19.232 9.33008 19.1699 9.03624 19.052 8.76314C18.9342 8.49005 18.7631 8.24319 18.5488 8.037L11.1748 0.655Z" fill="var(--fill-0, #4644B8)"/>
</svg>
