<svg preserveAspectRatio="none" width="100%" height="100%" overflow="visible" style="display: block;" viewBox="0 0 271.162 421.403" fill="none" xmlns="http://www.w3.org/2000/svg">
<g id="Group 243">
<path id="Vector" d="M135.581 421.398C126.429 421.398 117.495 419.623 109.033 416.12L32.3498 384.373C15.8586 377.545 4.99926 361.598 4.69044 343.748L2.68589 227.861C2.68589 227.861 2.33215 207.625 2.33215 207.613L0.00755233 73.2416C-0.0205225 71.7256 0.0300122 70.1983 0.153541 68.7104C1.78188 49.1815 15.6508 33.2013 34.7305 28.8048L108.062 4.44705C113.407 2.67834 118.921 1.42059 124.458 0.713101C128.13 0.241444 131.875 0 135.581 0C139.287 0 143.032 0.241444 146.71 0.713101C152.241 1.42059 157.754 2.67834 163.089 4.44705L236.426 28.8048C245.69 30.9441 253.877 35.8572 260.132 43.0331C266.443 50.282 270.205 59.1593 271.003 68.7104C271.132 70.2376 271.182 71.7649 271.154 73.2472L268.824 207.653L268.476 227.867L266.466 343.754C266.163 361.598 255.303 377.545 238.806 384.378L162.128 416.125C153.667 419.629 144.739 421.403 135.581 421.403V421.398Z" fill="var(--fill-0, #4644B8)"/>
<g id="Layer_1" clip-path="url(#clip0_191_4411)">
<path id="Vector_2" d="M262.732 73.0957L262.485 87.3858L261.962 117.561L261.94 118.684L260.907 178.399L260.884 179.522L260.401 207.507L260.053 227.721L260.014 230.118L259.986 231.679L258.543 314.809L258.515 316.364L258.043 343.608C257.796 358.095 248.969 371.054 235.583 376.596L158.905 408.343C143.969 414.525 127.192 414.525 112.256 408.343L35.5725 376.596C22.1864 371.054 13.3653 358.095 13.1126 343.608L12.6185 314.938V314.876L12.5904 313.377V313.321L11.153 230.231V230.186L11.1249 228.67V228.625L11.1081 227.721L10.7544 207.507L10.2659 179.269L10.249 178.146L9.21585 118.442L9.19339 117.319L8.67682 87.3914L8.42976 73.0957C8.4073 71.8548 8.4466 70.6251 8.54767 69.4123C8.67682 67.8457 8.90703 66.3072 9.2327 64.7968C9.32815 64.3645 9.42922 63.9377 9.53591 63.511C12.8544 50.4337 23.2926 39.945 36.9931 36.9297L59.8011 29.3551L60.9915 28.9621L104.704 14.4418L105.821 14.0656L110.718 12.4429C115.563 10.837 120.521 9.70836 125.524 9.06826C132.2 8.20917 138.961 8.20917 145.637 9.06826C150.64 9.70836 155.598 10.837 160.438 12.4429L165.531 14.133L166.654 14.5092L211.276 29.3271L212.472 29.7257L234.168 36.9297C248.279 40.0404 258.936 51.0851 261.901 64.7126C261.996 65.1505 262.086 65.5885 262.165 66.0321C262.367 67.1439 262.513 68.2725 262.608 69.4123C262.709 70.6251 262.754 71.8548 262.732 73.0957Z" fill="var(--fill-0, white)"/>
<g id="Layer_1_2" clip-path="url(#clip1_191_4411)">
<path id="Vector_3" d="M261.693 64.6845L239.227 87.2286C233.596 92.8772 226.105 95.9992 218.132 96.0104H218.076C210.125 96.0104 202.64 92.9221 197.003 87.3016C191.354 81.6754 188.238 74.185 188.221 66.2118C188.21 58.2329 191.304 50.7313 196.93 45.0882L212.264 29.6976L211.068 29.299L196.133 44.2909C190.293 50.1529 187.087 57.9353 187.098 66.2118C187.115 74.4882 190.349 82.2593 196.211 88.0989C202.062 93.9272 209.822 97.1334 218.076 97.1334H218.132C226.408 97.1221 234.18 93.8823 240.019 88.0203L261.957 66.004C261.878 65.5604 261.788 65.1224 261.693 64.6845Z" fill="var(--fill-0, #4644B8)"/>
<path id="Vector_4" d="M18.7445 117.257H18.6434L8.98565 117.291L9.00811 118.414L18.6434 118.38H18.7445C35.1626 118.38 48.5431 131.71 48.5992 148.14C48.6217 156.113 45.5447 163.62 39.9241 169.274C34.3035 174.934 26.8188 178.068 18.8399 178.09L10.0413 178.118L10.0581 179.241L18.8455 179.213C27.122 179.185 34.8875 175.939 40.7214 170.066C46.5498 164.199 49.7503 156.411 49.7222 148.134C49.6661 131.087 35.7803 117.257 18.7445 117.257Z" fill="var(--fill-0, #4644B8)"/>
<path id="Vector_5" d="M75.349 43.5441L60.7837 28.934L59.5934 29.327L74.5572 44.3358C80.3519 50.1529 83.2492 57.7837 83.2492 65.4144C83.2492 73.0452 80.3294 80.7377 74.4899 86.5604C62.8332 98.1778 43.8939 98.1497 32.2709 86.493L9.32816 63.4829C9.22148 63.9096 9.12041 64.3364 9.02495 64.7687L31.4736 87.2847C37.5153 93.3489 45.4661 96.3754 53.4169 96.3754C57.3698 96.3754 61.3284 95.623 65.0511 94.1181C68.7738 92.6189 72.2607 90.3617 75.2816 87.3521C87.3818 75.2912 87.4099 55.6388 75.349 43.5441Z" fill="var(--fill-0, #4644B8)"/>
<path id="Vector_6" d="M166.446 14.4811L165.323 14.1049L165.379 31.6629V31.7639C165.379 48.1765 152.055 61.5569 135.626 61.6131C135.592 61.6131 135.558 61.6187 135.53 61.6187C119.112 61.6187 105.726 48.2888 105.675 31.8594L105.614 14.0375L104.496 14.4137L104.552 31.865C104.609 48.912 118.494 62.7417 135.53 62.7417C135.558 62.7417 135.598 62.7361 135.631 62.7361C152.712 62.6799 166.558 48.738 166.502 31.6572L166.446 14.4811Z" fill="var(--fill-0, #4644B8)"/>
<path id="Vector_7" d="M251.906 118.689L261.732 118.656L261.755 117.533L251.9 117.566C243.624 117.594 235.858 120.84 230.024 126.713C224.196 132.581 221.001 140.374 221.024 148.645C221.052 156.922 224.303 164.687 230.17 170.521C236.016 176.327 243.764 179.522 251.996 179.522H252.108L260.677 179.494L260.699 178.371L252.103 178.399H251.996C244.062 178.399 236.594 175.322 230.962 169.724C225.302 164.103 222.175 156.618 222.147 148.639C222.124 140.666 225.201 133.159 230.822 127.505C236.442 121.845 243.933 118.717 251.906 118.689Z" fill="var(--fill-0, #4644B8)"/>
</g>
<g id="Layer_1_3" clip-path="url(#clip2_191_4411)">
<path id="Vector_8" d="M261.693 64.6844L239.227 87.2285C233.596 92.8772 226.105 95.9991 218.132 96.0104H218.076C210.125 96.0104 202.64 92.9221 197.003 87.3015C191.354 81.6753 188.238 74.185 188.221 66.2117C188.21 58.2328 191.304 50.7313 196.93 45.0882L212.264 29.6976L211.068 29.2989L196.133 44.2909C190.293 50.1529 187.087 57.9353 187.098 66.2117C187.115 74.4882 190.349 82.2593 196.211 88.0989C202.062 93.9272 209.822 97.1333 218.076 97.1333H218.132C226.408 97.1221 234.18 93.8823 240.019 88.0202L261.957 66.004C261.878 65.5604 261.788 65.1224 261.693 64.6844Z" fill="var(--fill-0, #4644B8)"/>
<path id="Vector_9" d="M18.7445 117.257H18.6434L8.98565 117.291L9.00811 118.414L18.6434 118.38H18.7445C35.1626 118.38 48.5431 131.71 48.5992 148.14C48.6217 156.113 45.5447 163.62 39.9241 169.274C34.3035 174.934 26.8188 178.067 18.8399 178.09L10.0413 178.118L10.0581 179.241L18.8455 179.213C27.122 179.185 34.8875 175.939 40.7214 170.066C46.5498 164.199 49.7503 156.411 49.7222 148.134C49.6661 131.087 35.7803 117.257 18.7445 117.257Z" fill="var(--fill-0, #4644B8)"/>
<path id="Vector_10" d="M75.349 43.5441L60.7837 28.934L59.5934 29.327L74.5572 44.3358C80.3519 50.1529 83.2492 57.7837 83.2492 65.4144C83.2492 73.0451 80.3294 80.7376 74.4899 86.5604C62.8332 98.1777 43.8939 98.1497 32.2709 86.493L9.32816 63.4828C9.22148 63.9096 9.12041 64.3363 9.02496 64.7687L31.4736 87.2847C37.5153 93.3489 45.4661 96.3753 53.4169 96.3753C57.3698 96.3753 61.3284 95.6229 65.0511 94.1181C68.7738 92.6189 72.2607 90.3617 75.2816 87.3521C87.3818 75.2911 87.4099 55.6387 75.349 43.5441Z" fill="var(--fill-0, #4644B8)"/>
<path id="Vector_11" d="M166.446 14.481L165.323 14.1048L165.379 31.6628V31.7639C165.379 48.1764 152.055 61.5569 135.626 61.6131C135.592 61.6131 135.558 61.6187 135.53 61.6187C119.112 61.6187 105.726 48.2887 105.675 31.8594L105.614 14.0374L104.496 14.4136L104.552 31.865C104.609 48.912 118.494 62.7417 135.53 62.7417C135.558 62.7417 135.598 62.7361 135.631 62.7361C152.712 62.6799 166.558 48.7379 166.502 31.6572L166.446 14.481Z" fill="var(--fill-0, #4644B8)"/>
<path id="Vector_12" d="M251.906 118.689L261.732 118.656L261.755 117.533L251.9 117.566C243.624 117.594 235.858 120.84 230.024 126.713C224.196 132.581 221.001 140.374 221.024 148.645C221.052 156.922 224.303 164.687 230.17 170.521C236.016 176.327 243.764 179.522 251.996 179.522H252.108L260.677 179.494L260.699 178.371L252.103 178.399H251.996C244.062 178.399 236.594 175.322 230.962 169.724C225.302 164.103 222.175 156.618 222.147 148.639C222.124 140.666 225.201 133.159 230.822 127.505C236.442 121.845 243.933 118.717 251.906 118.689Z" fill="var(--fill-0, #4644B8)"/>
</g>
</g>
</g>
<defs>
<clipPath id="clip0_191_4411">
<rect width="254.313" height="404.558" fill="white" transform="translate(8.42415 8.42251)"/>
</clipPath>
<clipPath id="clip1_191_4411">
<rect width="252.971" height="302.299" fill="white" transform="translate(8.98565 14.0375)"/>
</clipPath>
<clipPath id="clip2_191_4411">
<rect width="252.971" height="302.299" fill="white" transform="translate(8.98565 14.0374)"/>
</clipPath>
</defs>
</svg>
