<svg preserveAspectRatio="none" width="100%" height="100%" overflow="visible" style="display: block;" viewBox="0 0 318.167 380.207" fill="none" xmlns="http://www.w3.org/2000/svg">
<g id="Layer_1" clip-path="url(#clip0_242_2281)">
<path id="Vector" d="M317.835 63.6997L289.579 92.0539C282.496 99.1583 273.075 103.085 263.047 103.099H262.977C252.977 103.099 243.563 99.2148 236.473 92.1457C229.368 85.0695 225.449 75.6487 225.428 65.6206C225.414 55.5854 229.305 46.1505 236.381 39.0532L255.668 19.6961L254.163 19.1947L235.378 38.0503C228.034 45.4231 224.001 55.2111 224.015 65.6206C224.037 76.0301 228.104 85.8039 235.477 93.1485C242.836 100.479 252.596 104.511 262.977 104.511H263.047C273.457 104.497 283.231 100.422 290.575 93.0496L318.167 65.3593C318.068 64.8014 317.955 64.2506 317.835 63.6997Z" fill="var(--fill-0, #13BF92)"/>
<path id="Vector_2" d="M12.2738 129.822H12.1467L0 129.864L0.0282482 131.276L12.1467 131.234H12.2738C32.9233 131.234 49.7522 147.999 49.8228 168.663C49.851 178.691 45.981 188.133 38.9119 195.245C31.8428 202.363 22.4291 206.304 12.3939 206.332L1.32767 206.367L1.34885 207.78L12.401 207.744C22.8104 207.709 32.5773 203.627 39.9147 196.24C47.2451 188.86 51.2705 179.065 51.2352 168.656C51.1646 147.216 33.7001 129.822 12.2738 129.822Z" fill="var(--fill-0, #13BF92)"/>
<path id="Vector_3" d="M83.4664 37.1111L65.1474 18.7356L63.6503 19.23L82.4707 38.1068C89.7587 45.4231 93.4027 55.0205 93.4027 64.6178C93.4027 74.2151 89.7304 83.8901 82.3859 91.2135C67.7251 105.825 43.9048 105.79 29.2863 91.1287L0.430785 62.1884C0.296606 62.7252 0.169489 63.2619 0.0494344 63.8057L28.2835 92.1245C35.8823 99.7515 45.8822 103.558 55.882 103.558C60.8537 103.558 65.8325 102.612 70.5146 100.719C75.1967 98.8334 79.5823 95.9945 83.3817 92.2092C98.6004 77.0399 98.6357 52.3228 83.4664 37.1111Z" fill="var(--fill-0, #13BF92)"/>
<path id="Vector_4" d="M198.041 0.557902L196.629 0.0847446L196.699 22.1678V22.2949C196.699 42.9373 179.941 59.7662 159.278 59.8368C159.235 59.8368 159.193 59.8438 159.157 59.8438C138.508 59.8438 121.672 43.0785 121.609 22.415L121.531 0L120.126 0.473158L120.196 22.422C120.267 43.8624 137.731 61.2562 159.157 61.2562C159.193 61.2562 159.242 61.2492 159.285 61.2492C180.767 61.1786 198.182 43.6435 198.112 22.1607L198.041 0.557902Z" fill="var(--fill-0, #13BF92)"/>
<path id="Vector_5" d="M305.526 131.623L317.884 131.58L317.912 130.168L305.519 130.21C295.109 130.245 285.342 134.327 278.005 141.714C270.674 149.094 266.656 158.896 266.684 169.299C266.72 179.708 270.809 189.475 278.188 196.812C285.54 204.115 295.286 208.133 305.639 208.133H305.78L316.557 208.098L316.585 206.685L305.773 206.72H305.639C295.66 206.72 286.267 202.85 279.184 195.81C272.066 188.74 268.132 179.327 268.097 169.292C268.068 159.263 271.938 149.821 279.008 142.71C286.077 135.591 295.497 131.658 305.526 131.623Z" fill="var(--fill-0, #13BF92)"/>
</g>
<defs>
<clipPath id="clip0_242_2281">
<rect width="318.167" height="380.207" fill="white"/>
</clipPath>
</defs>
</svg>
