<svg preserveAspectRatio="none" width="100%" height="100%" overflow="visible" style="display: block;" viewBox="0 0 13.3687 11" fill="none" xmlns="http://www.w3.org/2000/svg">
<g id="Group">
<path id="Vector" d="M7.56275 5.49999L8.86599 6.98969L10.6186 8.10958L10.9235 5.5094L10.6186 2.96787L8.83244 3.95163L7.56275 5.49999Z" fill="var(--fill-0, #00832D)"/>
<path id="Vector_2" d="M2.82858e-05 7.86757V10.0833C2.82858e-05 10.5893 0.410656 11 0.916692 11H3.13243L3.59125 9.32586L3.13243 7.86757L1.61229 7.40876L2.82858e-05 7.86757Z" fill="var(--fill-0, #0066DA)"/>
<path id="Vector_3" d="M3.1324 0L0 3.1324L1.61235 3.59015L3.1324 3.1324L3.58288 1.694L3.1324 0Z" fill="var(--fill-0, #E94235)"/>
<path id="Vector_4" d="M2.82858e-05 7.8686H3.13243V3.13237H2.82858e-05V7.8686Z" fill="var(--fill-0, #2684FC)"/>
<path id="Vector_5" d="M12.6196 1.32629L10.6186 2.96793V8.10955L12.6279 9.75758C12.9287 9.9932 13.3687 9.77843 13.3687 9.39611V1.68039C13.3687 1.29381 12.9182 1.08011 12.6196 1.32629Z" fill="var(--fill-0, #00AC47)"/>
<path id="Vector_6" d="M7.56275 5.49999V7.86757H3.13243V11H9.70199C10.208 11 10.6186 10.5893 10.6186 10.0833V8.10959L7.56275 5.49999Z" fill="var(--fill-0, #00AC47)"/>
<path id="Vector_7" d="M9.70199 0H3.13243V3.1324H7.56275V5.49998L10.6186 2.96786V0.916664C10.6186 0.410627 10.208 0 9.70199 0Z" fill="var(--fill-0, #FFBA00)"/>
</g>
</svg>
