<svg preserveAspectRatio="none" width="100%" height="100%" overflow="visible" style="display: block;" viewBox="0 0 14.74 8.84524" fill="none" xmlns="http://www.w3.org/2000/svg">
<path id="Icon ion-arrow-down-b" d="M0.134 1.13622L0.217 1.23622L6.481 8.44522C6.59095 8.57151 6.72683 8.67261 6.87938 8.74163C7.03193 8.81066 7.19756 8.84599 7.365 8.84522C7.53227 8.84496 7.69758 8.80916 7.84998 8.7402C8.00237 8.67124 8.13838 8.5707 8.249 8.44522L14.51 1.24822L14.616 1.12822C14.6966 1.01036 14.7398 0.870981 14.74 0.728223C14.735 0.530262 14.6516 0.342379 14.5082 0.205867C14.3647 0.0693562 14.173 -0.00461132 13.975 0.000222893H0.765C0.567036 -0.00461132 0.375253 0.0693562 0.231803 0.205867C0.088354 0.342379 0.00497771 0.530262 0 0.728223C0.000815871 0.874903 0.0476888 1.01762 0.134 1.13622Z" fill="var(--fill-0, #16252D)"/>
</svg>
