<svg preserveAspectRatio="none" width="100%" height="100%" overflow="visible" style="display: block;" viewBox="0 0 74.8588 67.8344" fill="none" xmlns="http://www.w3.org/2000/svg">
<path id="Vector" d="M74.5949 35.3855L52.1294 57.9296C46.4976 63.5783 39.0072 66.7002 31.034 66.7114H30.9778C23.027 66.7114 15.5423 63.6232 9.90484 58.0026C4.25618 52.3764 1.13987 44.886 1.12302 36.9128C1.11179 28.9339 4.20565 21.4323 9.83184 15.7893L25.1663 0.398662L23.9703 0L9.03451 14.992C3.19494 20.854 -0.0112005 28.6363 2.94009e-05 36.9128C0.0168743 45.1893 3.2511 52.9604 9.11313 58.7999C14.9639 64.6283 22.7238 67.8344 30.9778 67.8344H31.034C39.3104 67.8232 47.0815 64.5833 52.9211 58.7213L74.8588 36.705C74.7802 36.2615 74.6903 35.8235 74.5949 35.3855Z" fill="var(--fill-0, #97B9FF)"/>
</svg>
