<svg preserveAspectRatio="none" width="100%" height="100%" overflow="visible" style="display: block;" viewBox="0 0 19.6753 19.674" fill="none" xmlns="http://www.w3.org/2000/svg">
<path id="Vector" fill-rule="evenodd" clip-rule="evenodd" d="M14.679 0.831382C14.4836 0.519201 14.1958 0.275702 13.8555 0.134778C13.5153 -0.006146 13.1396 -0.0374826 12.7807 0.045131L10.2335 0.630215C9.97247 0.690212 9.70122 0.690212 9.44018 0.630215L6.89301 0.045131C6.53412 -0.0374826 6.1584 -0.006146 5.81815 0.134778C5.4779 0.275702 5.19006 0.519201 4.99468 0.831382L3.60635 3.04705C3.46468 3.27371 3.27343 3.46497 3.04676 3.60805L0.831097 4.99638C0.519455 5.19159 0.276313 5.47897 0.135419 5.81863C-0.00547406 6.1583 -0.0371297 6.5334 0.0448465 6.89188L0.62993 9.44188C0.689711 9.70247 0.689711 9.97321 0.62993 10.2338L0.0448465 12.7824C-0.0374483 13.1411 -0.00595197 13.5165 0.134957 13.8564C0.275865 14.1964 0.519186 14.484 0.831097 14.6793L3.04676 16.0676C3.27343 16.2093 3.46468 16.4005 3.60776 16.6272L4.9961 18.8429C5.3956 19.4818 6.15776 19.7977 6.89301 19.6291L9.44018 19.044C9.70122 18.9841 9.97247 18.9841 10.2335 19.044L12.7821 19.6291C13.1408 19.7114 13.5162 19.6799 13.8562 19.539C14.1961 19.3981 14.4837 19.1548 14.679 18.8429L16.0673 16.6272C16.209 16.4005 16.4003 16.2093 16.6269 16.0676L18.844 14.6793C19.1559 14.4837 19.3991 14.1958 19.5398 13.8556C19.6805 13.5153 19.7116 13.1397 19.6288 12.781L19.0452 10.2338C18.9852 9.97276 18.9852 9.70151 19.0452 9.44047L19.6303 6.89188C19.7127 6.53334 19.6814 6.15804 19.5408 5.81809C19.4001 5.47815 19.1571 5.19045 18.8454 4.99496L16.6283 3.60663C16.402 3.4647 16.2107 3.2734 16.0688 3.04705L14.679 0.831382ZM13.9664 6.67797C14.0541 6.51684 14.0758 6.32801 14.027 6.15121C13.9782 5.9744 13.8628 5.82341 13.7049 5.72999C13.5471 5.63658 13.3592 5.60802 13.1807 5.65034C13.0023 5.69266 12.8472 5.80254 12.7481 5.95688L9.04351 12.227L6.8066 10.085C6.74023 10.0169 6.66083 9.96283 6.57312 9.92604C6.4854 9.88926 6.39118 9.87051 6.29607 9.87093C6.20095 9.87134 6.10689 9.89091 6.01951 9.92846C5.93212 9.96601 5.85319 10.0208 5.78742 10.0895C5.72166 10.1582 5.6704 10.2395 5.63672 10.3284C5.60304 10.4174 5.58762 10.5122 5.59137 10.6072C5.59513 10.7023 5.61799 10.7956 5.65859 10.8816C5.69919 10.9676 5.7567 11.0446 5.82768 11.1079L8.70918 13.869C8.7863 13.9427 8.87909 13.9981 8.98061 14.0309C9.08212 14.0638 9.18976 14.0733 9.29546 14.0587C9.40116 14.0441 9.50221 14.0059 9.59105 13.9468C9.67989 13.8877 9.75423 13.8092 9.80851 13.7174L13.9664 6.67797Z" fill="var(--fill-0, #D8E530)"/>
</svg>
