<svg preserveAspectRatio="none" width="100%" height="100%" overflow="visible" style="display: block;" viewBox="0 0 271.158 421.398" fill="none" xmlns="http://www.w3.org/2000/svg">
<g id="Layer_1" clip-path="url(#clip0_191_4397)">
<path id="Vector" d="M135.579 421.398C126.427 421.398 117.493 419.623 109.031 416.12L32.3478 384.373C15.8566 377.545 4.99727 361.598 4.68844 343.748L2.6839 227.861C2.6839 227.861 2.33016 207.625 2.33016 207.613L0.00556018 73.2416C-0.0225147 71.7256 0.0280201 70.1983 0.151549 68.7104C1.77989 49.1815 15.6489 33.2013 34.7285 28.8048L108.06 4.44705C113.405 2.67834 118.919 1.42059 124.456 0.713101C128.128 0.241444 131.873 0 135.579 0C139.285 0 143.03 0.241444 146.708 0.713101C152.239 1.42059 157.752 2.67834 163.087 4.44705L236.424 28.8048C245.688 30.9441 253.875 35.8572 260.13 43.0331C266.441 50.282 270.203 59.1593 271.001 68.7104C271.13 70.2376 271.18 71.7649 271.152 73.2472L268.822 207.653L268.474 227.867L266.464 343.754C266.161 361.598 255.301 377.545 238.805 384.378L162.127 416.125C153.665 419.629 144.737 421.403 135.579 421.403V421.398Z" fill="var(--fill-0, #D8E530)"/>
<g id="Layer_1_2" clip-path="url(#clip1_191_4397)">
<path id="Vector_2" d="M262.73 73.0957L262.483 87.3858L261.961 117.561L261.938 118.684L260.905 178.399L260.883 179.522L260.4 207.507L260.052 227.721L260.012 230.118L259.984 231.679L258.541 314.809L258.513 316.364L258.041 343.608C257.794 358.095 248.968 371.054 235.582 376.596L158.904 408.343C143.968 414.525 127.19 414.525 112.254 408.343L35.5708 376.596C22.1847 371.054 13.3636 358.095 13.1109 343.608L12.6168 314.938V314.876L12.5887 313.377V313.321L11.1513 230.231V230.186L11.1232 228.67V228.625L11.1064 227.721L10.7527 207.507L10.2642 179.269L10.2473 178.146L9.21415 118.442L9.19169 117.319L8.67512 87.3914L8.42806 73.0957C8.4056 71.8548 8.4449 70.6251 8.54597 69.4122C8.67512 67.8457 8.90533 66.3072 9.231 64.7967C9.32645 64.3644 9.42752 63.9377 9.53421 63.5109C12.8527 50.4337 23.2909 39.9449 36.9914 36.9297L59.7994 29.3551L60.9898 28.962L104.702 14.4417L105.82 14.0655L110.716 12.4428C115.562 10.8369 120.52 9.7083 125.523 9.0682C132.199 8.20911 138.959 8.20911 145.635 9.0682C150.638 9.7083 155.596 10.8369 160.436 12.4428L165.529 14.1329L166.652 14.5091L211.274 29.327L212.47 29.7257L234.167 36.9297C248.277 40.0404 258.934 51.085 261.899 64.7125C261.994 65.1505 262.084 65.5885 262.163 66.032C262.365 67.1438 262.511 68.2724 262.606 69.4122C262.707 70.6251 262.752 71.8548 262.73 73.0957Z" fill="var(--fill-0, white)"/>
<g id="Layer_1_3" clip-path="url(#clip2_191_4397)">
<path id="Vector_3" d="M261.691 64.6844L239.226 87.2285C233.594 92.8772 226.104 95.9991 218.13 96.0103H218.074C210.123 96.0103 202.639 92.9221 197.001 87.3015C191.352 81.6753 188.236 74.1849 188.219 66.2117C188.208 58.2328 191.302 50.7312 196.928 45.0882L212.263 29.6976L211.067 29.2989L196.131 44.2909C190.291 50.1529 187.085 57.9352 187.096 66.2117C187.113 74.4882 190.347 82.2593 196.209 88.0988C202.06 93.9272 209.82 97.1333 218.074 97.1333H218.13C226.407 97.1221 234.178 93.8822 240.017 88.0202L261.955 66.0039C261.876 65.5604 261.787 65.1224 261.691 64.6844Z" fill="var(--fill-0, #D8E530)"/>
<path id="Vector_4" d="M18.7428 117.257H18.6417L8.98395 117.291L9.00641 118.414L18.6417 118.38H18.7428C35.1609 118.38 48.5414 131.71 48.5975 148.14C48.62 156.113 45.543 163.62 39.9224 169.274C34.3018 174.934 26.8171 178.067 18.8382 178.09L10.0396 178.118L10.0564 179.241L18.8438 179.213C27.1203 179.185 34.8858 175.939 40.7197 170.066C46.5481 164.198 49.7486 156.411 49.7205 148.134C49.6644 131.087 35.7786 117.257 18.7428 117.257Z" fill="var(--fill-0, #D8E530)"/>
<path id="Vector_5" d="M75.3473 43.5441L60.782 28.9339L59.5917 29.327L74.5555 44.3358C80.3502 50.1529 83.2475 57.7836 83.2475 65.4144C83.2475 73.0451 80.3277 80.7376 74.4882 86.5603C62.8315 98.1777 43.8922 98.1496 32.2692 86.493L9.32646 63.4828C9.21978 63.9096 9.11871 64.3363 9.02325 64.7686L31.4719 87.2847C37.5136 93.3488 45.4644 96.3753 53.4152 96.3753C57.3681 96.3753 61.3267 95.6229 65.0494 94.1181C68.7721 92.6189 72.259 90.3617 75.2799 87.3521C87.3801 75.2911 87.4082 55.6387 75.3473 43.5441Z" fill="var(--fill-0, #D8E530)"/>
<path id="Vector_6" d="M166.444 14.481L165.322 14.1048L165.378 31.6628V31.7639C165.378 48.1764 152.053 61.5569 135.624 61.613C135.59 61.613 135.557 61.6187 135.528 61.6187C119.11 61.6187 105.724 48.2887 105.674 31.8593L105.612 14.0374L104.495 14.4136L104.551 31.8649C104.607 48.912 118.493 62.7416 135.528 62.7416C135.557 62.7416 135.596 62.736 135.63 62.736C152.71 62.6799 166.557 48.7379 166.501 31.6572L166.444 14.481Z" fill="var(--fill-0, #D8E530)"/>
<path id="Vector_7" d="M251.904 118.689L261.73 118.655L261.753 117.533L251.899 117.566C243.622 117.594 235.857 120.84 230.023 126.713C224.194 132.581 221 140.374 221.022 148.645C221.05 156.921 224.301 164.687 230.169 170.521C236.014 176.327 243.763 179.522 251.994 179.522H252.106L260.675 179.494L260.697 178.371L252.101 178.399H251.994C244.06 178.399 236.592 175.322 230.96 169.724C225.301 164.103 222.173 156.618 222.145 148.639C222.123 140.666 225.2 133.159 230.82 127.505C236.441 121.845 243.931 118.717 251.904 118.689Z" fill="var(--fill-0, #D8E530)"/>
</g>
</g>
</g>
<defs>
<clipPath id="clip0_191_4397">
<rect width="271.158" height="421.398" fill="white"/>
</clipPath>
<clipPath id="clip1_191_4397">
<rect width="254.313" height="404.558" fill="white" transform="translate(8.42245 8.42245)"/>
</clipPath>
<clipPath id="clip2_191_4397">
<rect width="252.971" height="302.299" fill="white" transform="translate(8.98395 14.0374)"/>
</clipPath>
</defs>
</svg>
