<svg preserveAspectRatio="none" width="100%" height="100%" overflow="visible" style="display: block;" viewBox="0 0 15 24.969" fill="none" xmlns="http://www.w3.org/2000/svg">
<path id="Path 43" d="M8.71443 0.636487C8.67388 0.585957 8.63099 0.539314 8.58654 0.491698C8.56626 0.471292 8.54521 0.453801 8.52494 0.434366C8.50466 0.414931 8.47502 0.386751 8.44695 0.365373C8.41887 0.343995 8.39627 0.326503 8.36897 0.30804C8.34168 0.289577 8.32218 0.272086 8.29801 0.255567C8.27383 0.239047 8.24575 0.223499 8.22002 0.207952C8.19428 0.192404 8.17012 0.177828 8.14204 0.164223C8.11397 0.150619 8.08979 0.13993 8.06405 0.128269C8.03832 0.116608 8.01726 0.103976 7.98763 0.0971736C7.95799 0.0903715 7.9346 0.0796824 7.90965 0.0719085C7.8847 0.0641346 7.85272 0.0524737 7.82308 0.0456716C7.79345 0.0388694 7.76226 0.0340108 7.73107 0.0281803C7.69987 0.0223499 7.68037 0.0174913 7.65308 0.014576C7.59615 0 7.53845 0 7.48153 0C7.4246 0 7.36689 0 7.30918 0.0106891C7.28344 0.0106891 7.25772 0.0194347 7.2312 0.0242934C7.20469 0.0291521 7.17505 0.033039 7.14698 0.0398412H7.13917C7.11032 0.0466433 7.08147 0.0573324 7.05262 0.0660781C7.02377 0.0748237 6.99959 0.0816258 6.97463 0.0913432C6.94968 0.101061 6.91926 0.114665 6.89197 0.127297C6.86467 0.13993 6.83973 0.149647 6.81399 0.163252C6.78826 0.176856 6.7633 0.192404 6.736 0.20698C6.70871 0.221556 6.68298 0.237104 6.65803 0.254595C6.63307 0.272086 6.61123 0.288606 6.58783 0.306097C6.56444 0.323588 6.53637 0.343023 6.50986 0.363429C6.48334 0.383836 6.45917 0.409101 6.43187 0.432423C6.40458 0.455744 6.39366 0.465462 6.37495 0.484896L6.37027 0.489755C6.32582 0.535427 6.28293 0.586929 6.24238 0.634544L0.487237 7.80596C0.170559 8.21619 -0.00435027 8.76483 8.22345e-05 9.33402C0.00451474 9.90321 0.187933 10.4475 0.51094 10.85C0.833947 11.2525 1.27077 11.4811 1.72755 11.4866C2.18433 11.4921 2.62463 11.2742 2.95384 10.8796L5.73159 7.41823V22.7493C5.72668 23.0386 5.76816 23.3262 5.8536 23.5952C5.93905 23.8642 6.06673 24.1093 6.22917 24.316C6.39161 24.5228 6.58554 24.687 6.79958 24.7992C7.01363 24.9113 7.24348 24.969 7.47567 24.969C7.70786 24.969 7.93772 24.9113 8.15176 24.7992C8.36581 24.687 8.55974 24.5228 8.72218 24.316C8.88462 24.1093 9.0123 23.8642 9.09774 23.5952C9.18318 23.3262 9.22466 23.0386 9.21976 22.7493V7.42115L11.9983 10.8834C12.1591 11.0917 12.3516 11.258 12.5646 11.3725C12.7775 11.4869 13.0067 11.5473 13.2386 11.5501C13.4705 11.5529 13.7006 11.4981 13.9153 11.3888C14.13 11.2795 14.3251 11.1179 14.4891 10.9136C14.6531 10.7092 14.7827 10.4661 14.8704 10.1986C14.9581 9.93104 15.0022 9.64438 14.9999 9.35538C14.9977 9.06638 14.9492 8.78084 14.8573 8.51546C14.7655 8.25009 14.632 8.0102 14.4649 7.80984L8.71443 0.636487Z" fill="var(--fill-0, white)"/>
</svg>
