<svg preserveAspectRatio="none" width="100%" height="100%" overflow="visible" style="display: block;" viewBox="0 0 14.3334 11.6667" fill="none" xmlns="http://www.w3.org/2000/svg">
<path id="vector" d="M7.83333 9.33333H2.5C1.44867 9.33333 1 8.88467 1 7.83333V4.33333H12V4.5C12 4.776 12.224 5 12.5 5C12.776 5 13 4.776 13 4.5V2.5C13 0.888 12.112 0 10.5 0H2.5C0.888 0 0 0.888 0 2.5V7.83333C0 9.44533 0.888 10.3333 2.5 10.3333H7.83333C8.10933 10.3333 8.33333 10.1093 8.33333 9.83333C8.33333 9.55733 8.10933 9.33333 7.83333 9.33333ZM2.5 1H10.5C11.5513 1 12 1.44867 12 2.5V3.33333H1V2.5C1 1.44867 1.44867 1 2.5 1ZM5.16667 6.66667C5.44267 6.66667 5.66667 6.89067 5.66667 7.16667C5.66667 7.44267 5.44267 7.66667 5.16667 7.66667H3.16667C2.89067 7.66667 2.66667 7.44267 2.66667 7.16667C2.66667 6.89067 2.89067 6.66667 3.16667 6.66667H5.16667ZM14.2953 10.3087C14.3727 10.4953 14.33 10.7107 14.1867 10.8534L13.52 11.52C13.4227 11.6174 13.2947 11.6667 13.1667 11.6667C13.0387 11.6667 12.9106 11.618 12.8133 11.52C12.6726 11.3794 12.6334 11.1753 12.6954 11H10.8333C10.006 11 9.33333 10.3273 9.33333 9.5V9.16667C9.33333 8.89067 9.55733 8.66667 9.83333 8.66667C10.1093 8.66667 10.3333 8.89067 10.3333 9.16667V9.5C10.3333 9.776 10.5573 10 10.8333 10H13.8333C14.0353 10 14.218 10.122 14.2953 10.3087ZM14.3333 8.5V8.83333C14.3333 9.10933 14.1093 9.33333 13.8333 9.33333C13.5573 9.33333 13.3333 9.10933 13.3333 8.83333V8.5C13.3333 8.224 13.1093 8 12.8333 8H9.83333C9.63133 8 9.44867 7.87799 9.37134 7.69133C9.294 7.50466 9.33665 7.28931 9.47998 7.14665L10.1466 6.47998C10.342 6.28465 10.6587 6.28465 10.854 6.47998C10.9947 6.62065 11.034 6.82467 10.972 7H12.8333C13.6607 7 14.3333 7.67267 14.3333 8.5Z" fill="var(--fill-0, #222222)"/>
</svg>
