<svg preserveAspectRatio="none" width="100%" height="100%" overflow="visible" style="display: block;" viewBox="0 0 220.214 34.8001" fill="none" xmlns="http://www.w3.org/2000/svg">
<g id="Group 31">
<path id="Icon akar-facebook-fill" d="M2.33574e-09 17.5C0.00680213 21.6256 1.46231 25.6178 4.11246 28.7797C6.7626 31.9416 10.439 34.0724 14.5 34.8V22.231H10.15V17.4H14.5V13.532C14.5 9.182 17.3 6.767 21.267 6.767C22.5631 6.80004 23.855 6.92906 25.132 7.153V11.6H22.908C20.781 11.6 20.298 12.663 20.298 14.017V17.4H24.938L24.165 22.232H20.3V34.8C24.6119 34.0466 28.486 31.7074 31.1606 28.2423C33.8352 24.7772 35.1167 20.4369 34.7532 16.0747C34.3896 11.7126 32.4074 7.64427 29.1962 4.66964C25.985 1.695 21.7772 0.0292861 17.4 0C12.7761 0.0264229 8.35052 1.88183 5.09023 5.16085C1.82994 8.43988 -7.54924e-05 12.876 2.33574e-09 17.5Z" fill="var(--fill-0, #D8E530)"/>
<path id="Icon akar-instagram-fill" d="M76.4213 0.100061C78.2763 0.0150611 78.8683 6.10352e-05 83.5943 6.10352e-05C88.3203 6.10352e-05 88.9123 0.0210611 90.7653 0.100061C92.2095 0.129017 93.6383 0.402209 94.9913 0.908061C96.1469 1.35613 97.1962 2.04046 98.0721 2.91727C98.9481 3.79408 99.6314 4.84407 100.078 6.00006C100.585 7.35198 100.858 8.77979 100.888 10.2231C100.973 12.0811 100.988 12.6731 100.988 17.3981C100.988 22.1231 100.967 22.7161 100.888 24.5711C100.859 26.0144 100.585 27.4424 100.078 28.7941C99.6328 29.9499 98.9504 30.9997 98.075 31.8761C97.1996 32.7525 96.1506 33.4361 94.9953 33.8831C93.6434 34.3893 92.2156 34.6631 90.7723 34.6931C88.9153 34.7781 88.3243 34.7931 83.5973 34.7931C78.8703 34.7931 78.2793 34.7721 76.4243 34.6931C74.981 34.664 73.553 34.3901 72.2013 33.8831C71.0391 33.4471 69.986 32.7628 69.1153 31.8781C68.2306 31.0101 67.5457 29.9597 67.1083 28.8001C66.6014 27.4468 66.3265 26.0178 66.2953 24.5731C66.2103 22.7151 66.1953 22.1231 66.1953 17.3981C66.1953 12.6731 66.2163 12.0801 66.2953 10.2271C66.3258 8.78227 66.6006 7.35307 67.1083 6.00006C67.5459 4.83971 68.2312 3.78865 69.1163 2.92006C69.9846 2.03525 71.0353 1.35035 72.1953 0.913061C73.5476 0.406483 74.9756 0.131627 76.4193 0.100061H76.4213ZM90.6213 3.23206C88.7863 3.14806 88.2363 3.13206 83.5903 3.13206C78.9443 3.13206 78.3903 3.14906 76.5593 3.23206C75.4559 3.24519 74.3629 3.44815 73.3283 3.83206C72.5731 4.11089 71.8897 4.55506 71.3283 5.13206C70.7513 5.69349 70.3071 6.37682 70.0283 7.13206C69.6444 8.16665 69.4414 9.25961 69.4283 10.3631C69.3443 12.1981 69.3283 12.7481 69.3283 17.3941C69.3283 22.0401 69.3453 22.5941 69.4283 24.4251C69.4414 25.5285 69.6444 26.6215 70.0283 27.6561C70.3169 28.4064 70.7598 29.0877 71.3282 29.6562C71.8966 30.2246 72.578 30.6675 73.3283 30.9561C74.3629 31.34 75.4559 31.5429 76.5593 31.5561C78.3943 31.6401 78.9433 31.6561 83.5903 31.6561C88.2373 31.6561 88.7903 31.6391 90.6213 31.5561C91.7248 31.5429 92.8177 31.34 93.8523 30.9561C94.6026 30.6675 95.284 30.2246 95.8524 29.6562C96.4209 29.0877 96.8637 28.4064 97.1523 27.6561C97.5362 26.6215 97.7392 25.5285 97.7523 24.4251C97.8363 22.5901 97.8523 22.0401 97.8523 17.3941C97.8523 12.7481 97.8353 12.1941 97.7523 10.3631C97.7392 9.25961 97.5362 8.16665 97.1523 7.13206C96.8735 6.37682 96.4293 5.69349 95.8523 5.13206C95.2909 4.55506 94.6075 4.11089 93.8523 3.83206C92.8177 3.44815 91.7248 3.24519 90.6213 3.23206ZM81.3713 22.7621C82.5205 23.2392 83.7926 23.3341 84.9999 23.0328C86.2071 22.7314 87.2855 22.0499 88.0756 21.0887C88.8658 20.1275 89.326 18.9377 89.3881 17.695C89.4502 16.4523 89.111 15.2225 88.4206 14.1873C87.7303 13.1521 86.7253 12.3664 85.5541 11.9462C84.3829 11.526 83.1077 11.4935 81.9166 11.8536C80.7256 12.2138 79.682 12.9474 78.9398 13.9461C78.1977 14.9449 77.7965 16.1558 77.7953 17.4001C77.7945 18.548 78.1343 19.6704 78.7718 20.6251C79.4092 21.5798 80.3157 22.3239 81.3763 22.7631L81.3713 22.7621ZM77.2713 11.0751C78.522 9.82432 80.1155 8.97253 81.8503 8.62743C83.5851 8.28233 85.3832 8.4594 87.0174 9.13626C88.6515 9.81313 90.0482 10.9594 91.0309 12.4301C92.0136 13.9007 92.5381 15.6298 92.5381 17.3986C92.5381 19.1673 92.0136 20.8964 91.0309 22.3671C90.0482 23.8377 88.6515 24.984 87.0174 25.6609C85.3832 26.3377 83.5851 26.5148 81.8503 26.1697C80.1155 25.8246 78.522 24.9728 77.2713 23.7221C75.5943 22.0449 74.6521 19.7703 74.6521 17.3986C74.6521 15.0268 75.5943 12.7522 77.2713 11.0751ZM94.5213 9.78706C94.8276 9.49827 95.0408 9.12464 95.1335 8.714C95.2262 8.30336 95.1943 7.87438 95.0418 7.48199C94.8893 7.0896 94.6232 6.75165 94.2775 6.5114C93.9318 6.27114 93.5223 6.13952 93.1013 6.13337C92.6804 6.12723 92.2672 6.24684 91.9146 6.47691C91.5621 6.70697 91.2862 7.03701 91.1223 7.42478C90.9584 7.81256 90.914 8.24041 90.9947 8.65359C91.0754 9.06677 91.2776 9.44646 91.5753 9.74406C91.9644 10.1329 92.4896 10.3549 93.0396 10.3629C93.5896 10.371 94.1211 10.1644 94.5213 9.78706Z" fill="var(--fill-0, #D8E530)"/>
<path id="Icon akar-tiktok-fill" d="M156.456 8.06102C156.236 7.94714 156.021 7.82232 155.814 7.68702C155.21 7.28812 154.656 6.81808 154.165 6.28702C153.2 5.20703 152.556 3.87868 152.306 2.45202H152.312C152.22 2.00239 152.196 1.54175 152.24 1.08502H146.64V22.752C146.64 23.042 146.64 23.331 146.628 23.615C146.628 23.65 146.628 23.682 146.622 23.721C146.624 23.737 146.624 23.7531 146.622 23.769V23.782C146.563 24.5605 146.313 25.3125 145.894 25.9716C145.476 26.6306 144.901 27.1765 144.222 27.561C143.515 27.9633 142.715 28.1742 141.902 28.173C140.64 28.173 139.43 27.6717 138.537 26.7794C137.645 25.8871 137.144 24.6769 137.144 23.415C137.144 22.1531 137.645 20.9429 138.537 20.0506C139.43 19.1583 140.64 18.657 141.902 18.657C142.396 18.657 142.888 18.7353 143.358 18.889L143.365 13.182C141.938 12.9979 140.489 13.1116 139.108 13.5159C137.727 13.9202 136.446 14.6064 135.344 15.531C134.378 16.37 133.566 17.371 132.944 18.489C132.16 19.9345 131.737 21.5472 131.708 23.191C131.694 24.4558 131.897 25.7136 132.308 26.91V26.924C132.678 27.9177 133.19 28.8521 133.83 29.698C134.522 30.5767 135.34 31.3487 136.257 31.989V31.975L136.27 31.989C137.969 33.1047 139.957 33.7026 141.99 33.71C143.456 33.7078 144.904 33.3878 146.235 32.772C147.548 32.1523 148.721 31.2706 149.681 30.181C150.48 29.2553 151.116 28.2002 151.561 27.061C151.971 25.9136 152.199 24.709 152.237 23.491V11.991C152.305 12.032 153.211 12.63 153.211 12.63C154.254 13.2438 155.378 13.7084 156.55 14.01C157.675 14.269 158.822 14.4263 159.976 14.48V8.92002C158.748 8.93556 157.538 8.64005 156.456 8.06102Z" fill="var(--fill-0, #D8E530)"/>
<path id="Icon akar-linkedin-v2-fill" d="M199.707 12.4541H205.766V15.4721C206.639 13.7361 208.877 12.1721 212.239 12.1721C218.684 12.1721 220.214 15.6271 220.214 21.9661V33.7061H213.688V23.4061C213.688 19.7961 212.815 17.7601 210.593 17.7601C207.512 17.7601 206.231 19.9541 206.231 23.4041V33.7041H199.707V12.4541ZM188.518 33.4341H195.043V12.1771H188.518V33.4341ZM195.978 5.24611C195.978 5.79308 195.87 6.33467 195.659 6.83939C195.448 7.34411 195.139 7.80189 194.75 8.18611C194.165 8.77243 193.42 9.17252 192.608 9.33592C191.797 9.49932 190.955 9.41871 190.189 9.10427C189.423 8.78982 188.767 8.25562 188.304 7.56901C187.841 6.8824 187.592 6.07413 187.588 5.24611C187.588 4.69902 187.696 4.15736 187.907 3.65251C188.118 3.14767 188.427 2.68968 188.816 2.30511C189.606 1.52435 190.672 1.08649 191.782 1.08649C192.893 1.08649 193.959 1.52435 194.749 2.30511C195.138 2.68983 195.447 3.14782 195.658 3.65262C195.869 4.15742 195.977 4.69901 195.978 5.24611Z" fill="var(--fill-0, #D8E530)"/>
</g>
</svg>
