<svg preserveAspectRatio="none" width="100%" height="100%" overflow="visible" style="display: block;" viewBox="0 0 62 62" fill="none" xmlns="http://www.w3.org/2000/svg">
<g id="Group 238">
<path id="Vector" d="M56.1846 35.072C54.9166 34.7544 53.6168 35.5166 53.2998 36.7868C51.2076 44.8847 44.8991 51.2359 36.7837 53.3318C35.5157 53.6494 34.7548 54.9514 35.0719 56.2217C35.3572 57.3014 36.3082 58 37.386 58C37.5762 58 37.7664 58 37.9883 57.9365C47.7522 55.4277 55.3921 47.7745 57.9281 37.9618C58.2451 36.6916 57.4843 35.3895 56.2163 35.072H56.1846Z" fill="var(--fill-0, white)"/>
<path id="Vector_2" d="M36.7544 8.67664C44.8493 10.7726 51.1982 17.092 53.2933 25.2216C53.579 26.3014 54.5314 27 55.6107 27C55.8012 27 55.9916 27 56.2138 26.9365C57.4836 26.6189 58.2455 25.3169 57.928 24.0467C55.4202 14.2657 47.7698 6.61248 37.9607 4.07198C36.6909 3.75442 35.3894 4.51657 35.072 5.78682C34.7545 7.05707 35.5164 8.35908 36.7862 8.67664H36.7544Z" fill="var(--fill-0, white)"/>
<path id="Vector_3" d="M5.75442 26.9365C5.94489 27 6.13535 27 6.35757 27C7.40514 27 8.38922 26.3014 8.67492 25.2216C10.7701 17.1238 17.0872 10.7726 25.2138 8.67664C26.4836 8.35908 27.2455 7.05707 26.928 5.78682C26.6106 4.51657 25.2773 3.75442 24.0393 4.07198C14.262 6.58073 6.61152 14.234 4.07196 24.0467C3.75451 25.3169 4.51638 26.6189 5.78616 26.9365H5.75442Z" fill="var(--fill-0, white)"/>
<path id="Vector_4" d="M25.1846 53.3318C17.1009 51.2359 10.7607 44.9164 8.66848 36.7868C8.35147 35.5166 7.02003 34.7544 5.7837 35.072C4.51567 35.3895 3.75485 36.6916 4.07186 37.9618C6.57622 47.7427 14.2161 55.396 24.0117 57.9365C24.2019 58 24.3921 58 24.614 58C25.6601 58 26.6428 57.3014 26.9281 56.2217C27.2452 54.9514 26.4843 53.6494 25.2163 53.3318H25.1846Z" fill="var(--fill-0, white)"/>
<path id="Vector_5" d="M31 11C32.64 11 34 9.93143 34 8.64286V2.35714C34 1.06857 32.64 0 31 0C29.36 0 28 1.06857 28 2.35714V8.64286C28 9.93143 29.36 11 31 11Z" fill="var(--fill-0, white)"/>
<path id="Vector_6" d="M59.6429 28H53.3571C52.0686 28 51 29.36 51 31C51 32.64 52.0686 34 53.3571 34H59.6429C60.9314 34 62 32.64 62 31C62 29.36 60.9314 28 59.6429 28Z" fill="var(--fill-0, white)"/>
<path id="Vector_7" d="M31 51C29.36 51 28 52.0686 28 53.3571V59.6429C28 60.9314 29.36 62 31 62C32.64 62 34 60.9314 34 59.6429V53.3571C34 52.0686 32.64 51 31 51Z" fill="var(--fill-0, white)"/>
<path id="Vector_8" d="M11 31C11 29.36 9.93143 28 8.64286 28H2.35714C1.06857 28 0 29.36 0 31C0 32.64 1.06857 34 2.35714 34H8.64286C9.93143 34 11 32.64 11 31Z" fill="var(--fill-0, white)"/>
<path id="Vector_9" d="M18 41.6667C18 42.9422 19.04 44 20.2941 44C21.5482 44 22.5882 42.9422 22.5882 41.6667C22.5882 36.9378 26.3506 33.1111 31 33.1111C35.6494 33.1111 39.4118 36.9378 39.4118 41.6667C39.4118 42.9422 40.4518 44 41.7059 44C42.96 44 44 42.9422 44 41.6667C44 36.72 41.2776 32.4267 37.3012 30.1556C38.6165 28.6622 39.4118 26.7022 39.4118 24.5556C39.4118 19.8267 35.6494 16 31 16C26.3506 16 22.5882 19.8267 22.5882 24.5556C22.5882 26.7022 23.4141 28.6622 24.6988 30.1556C20.7224 32.4267 18 36.6889 18 41.6667ZM27.1765 24.5556C27.1765 22.4089 28.8894 20.6667 31 20.6667C33.1106 20.6667 34.8235 22.4089 34.8235 24.5556C34.8235 26.7022 33.1106 28.4444 31 28.4444C28.8894 28.4444 27.1765 26.7022 27.1765 24.5556Z" fill="var(--fill-0, white)"/>
</g>
</svg>
