<svg preserveAspectRatio="none" width="100%" height="100%" overflow="visible" style="display: block;" viewBox="0 0 40.7311 61.9892" fill="none" xmlns="http://www.w3.org/2000/svg">
<path id="Vector" d="M30.8824 1.15668L40.7086 1.12299L40.7311 0L30.8768 0.0336884C22.6004 0.0617633 14.8349 3.30721 9.00091 9.18047C3.17257 15.0481 -0.0223423 22.8417 0.000117616 31.1125C0.0281925 39.389 3.27926 47.1545 9.14691 52.9884C14.9921 58.7943 22.7407 61.9892 30.9723 61.9892H31.0846L39.653 61.9612L39.6755 60.8382L31.079 60.8662H30.9723C23.0383 60.8662 15.5704 57.7892 9.9386 52.1911C4.27871 46.5705 1.15119 39.0858 1.12311 31.1069C1.10065 23.1337 4.17764 15.6265 9.79823 9.97218C15.4188 4.31229 22.9092 1.18476 30.8824 1.15668Z" fill="var(--fill-0, #97B9FF)"/>
</svg>
