<svg preserveAspectRatio="none" width="100%" height="100%" overflow="visible" style="display: block;" viewBox="0 0 37.1648 36.5484" fill="none" xmlns="http://www.w3.org/2000/svg">
<g id="Group 39">
<path id="Path 111" d="M18.2894 19.7968C18.1439 19.7967 17.9996 19.7718 17.8629 19.7231L1.28442 13.834C0.899527 13.6968 0.568359 13.4439 0.337929 13.1111C0.107499 12.7783 -0.0104836 12.3827 0.000731531 11.9802C0.0119466 11.5778 0.151789 11.1891 0.400406 10.8693C0.649024 10.5494 0.993781 10.3147 1.38574 10.1985L35.5436 0.055181C35.8116 -0.0249261 36.0991 -0.0145971 36.3605 0.0845244C36.6218 0.183646 36.8419 0.365865 36.9858 0.602188C37.1296 0.838511 37.189 1.11536 37.1544 1.38868C37.1198 1.66201 36.9933 1.9161 36.7949 2.11054L19.1779 19.4351C18.9422 19.6667 18.6226 19.7968 18.2894 19.7968ZM3.73628 12.0795L17.9662 17.1367L31.4839 3.84011L3.73628 12.0795Z" fill="var(--fill-0, white)"/>
<path id="Path 112" d="M24.9284 36.5484C24.5277 36.5486 24.1367 36.4272 23.8088 36.2008C23.4809 35.9743 23.2322 35.6538 23.0965 35.2831L17.1087 18.9807C17.0271 18.7598 17.0113 18.5205 17.0631 18.2911C17.115 18.0617 17.2324 17.8516 17.4015 17.6855L35.0195 0.363886C35.2173 0.168348 35.4759 0.0435768 35.7543 0.00947478C36.0326 -0.0246273 36.3145 0.0339044 36.555 0.175733C36.7956 0.317562 36.9809 0.534517 37.0814 0.791991C37.1819 1.04946 37.1919 1.33263 37.1096 1.5963L26.7936 35.1864C26.6758 35.5724 26.4371 35.9119 26.1114 36.1565C25.7857 36.4011 25.3897 36.5383 24.98 36.5484H24.9273M19.7409 18.88L24.8807 32.872L33.2596 5.58746L19.7409 18.88Z" fill="var(--fill-0, white)"/>
</g>
</svg>
