<svg preserveAspectRatio="none" width="100%" height="100%" overflow="visible" style="display: block;" viewBox="0 0 254.314 404.556" fill="none" xmlns="http://www.w3.org/2000/svg">
<path id="Vector" d="M254.308 64.6718L254.061 78.9619L253.539 109.137L253.516 110.26L252.483 169.975L252.461 171.098L251.978 199.083L251.63 219.297L251.59 221.694L251.562 223.255L250.119 306.385L250.091 307.94L249.62 335.184C249.372 349.671 240.546 362.63 227.16 368.172L150.482 399.919C135.546 406.101 118.768 406.101 103.833 399.919L27.1489 368.172C13.7628 362.63 4.94168 349.671 4.68901 335.184L4.19489 306.514V306.452L4.16682 304.953V304.897L2.72939 221.807V221.762L2.70131 220.246V220.201L2.68447 219.297L2.33072 199.083L1.84222 170.845L1.82538 169.722L0.792221 110.018L0.769761 108.895L0.253184 78.9675L0.00612542 64.6718C-0.0163345 63.4309 0.0229703 62.2012 0.12404 60.9884C0.253184 59.4218 0.483398 57.8833 0.809066 56.3729C0.90452 55.9405 1.00559 55.5138 1.11227 55.087C4.43072 42.0098 14.8689 31.521 28.5695 28.5058L51.3775 20.9312L52.5678 20.5381L96.2804 6.01784L97.3978 5.64164L102.294 4.01891C107.14 2.41303 112.098 1.28442 117.101 0.644317C123.777 -0.214772 130.537 -0.214772 137.213 0.644317C142.216 1.28442 147.174 2.41303 152.015 4.01891L157.107 5.70902L158.23 6.08522L202.852 20.9031L204.048 21.3018L225.745 28.5058C239.855 31.6165 250.512 42.6611 253.477 56.2886C253.572 56.7266 253.662 57.1646 253.741 57.6082C253.943 58.7199 254.089 59.8485 254.184 60.9884C254.286 62.2012 254.33 63.4309 254.308 64.6718Z" fill="var(--fill-0, white)"/>
</svg>
