<svg preserveAspectRatio="none" width="100%" height="100%" overflow="visible" style="display: block;" viewBox="0 0 25.8123 14" fill="none" xmlns="http://www.w3.org/2000/svg">
<path id="Caret Down" d="M25.4685 1.99251L13.7362 13.6579C13.6272 13.7663 13.4978 13.8524 13.3554 13.9111C13.213 13.9698 13.0603 14 12.9061 14C12.752 14 12.5993 13.9698 12.4569 13.9111C12.3144 13.8524 12.185 13.7663 12.0761 13.6579L0.343821 1.99251C0.123676 1.77362 0 1.47674 0 1.16718C0 0.857628 0.123676 0.56075 0.343821 0.34186C0.563966 0.12297 0.862546 0 1.17388 0C1.48521 0 1.78379 0.12297 2.00394 0.34186L12.9061 11.1834L23.8083 0.34186C23.9173 0.233477 24.0468 0.147503 24.1892 0.0888461C24.3316 0.0301896 24.4842 0 24.6384 0C24.7926 0 24.9452 0.0301896 25.0876 0.0888461C25.23 0.147503 25.3595 0.233477 25.4685 0.34186C25.5775 0.450243 25.6639 0.578913 25.7229 0.720522C25.7819 0.862132 25.8123 1.01391 25.8123 1.16718C25.8123 1.32046 25.7819 1.47224 25.7229 1.61385C25.6639 1.75546 25.5775 1.88413 25.4685 1.99251Z" fill="var(--fill-0, #16252D)"/>
</svg>
