<svg preserveAspectRatio="none" width="100%" height="100%" overflow="visible" style="display: block;" viewBox="0 0 683.502 683.43" fill="none" xmlns="http://www.w3.org/2000/svg">
<g id="Group 202">
<path id="Vector" d="M434.681 184.09L534.497 83.9114C542.688 75.7203 555.953 75.7203 564.144 83.9114L599.953 119.648C608.144 127.839 608.144 141.104 599.953 149.296L500.137 249.474C482.088 267.596 452.803 267.596 434.753 249.619C416.631 231.569 416.631 202.284 434.608 184.235L434.681 184.09Z" stroke="var(--stroke-0, white)" stroke-width="4" stroke-miterlimit="10"/>
<path id="Vector_2" d="M164.591 387.709L23.1665 388.144C11.5684 388.144 2.21747 378.865 2.14498 367.267L2.00001 316.67C2.00001 305.072 11.2785 295.721 22.8766 295.649L164.301 295.214C189.816 295.141 210.62 315.728 210.693 341.316C210.765 366.905 190.179 387.636 164.591 387.709Z" stroke="var(--stroke-0, white)" stroke-width="4" stroke-miterlimit="10"/>
<path id="Vector_3" d="M249.764 248.314C231.714 266.364 202.429 266.291 184.379 248.242L84.5635 148.136C76.3723 139.945 76.4448 126.679 84.5635 118.488L120.373 82.7517C128.564 74.5606 141.829 74.6331 150.02 82.7517L249.836 182.858C267.886 200.98 267.813 230.192 249.764 248.242V248.314Z" stroke="var(--stroke-0, white)" stroke-width="4" stroke-miterlimit="10"/>
<path id="Vector_4" d="M367.339 681.285L316.743 681.43C305.145 681.43 295.794 672.151 295.721 660.553L295.286 519.129C295.214 493.614 315.8 472.81 341.389 472.737C366.904 472.665 387.709 493.251 387.781 518.839L388.216 660.263C388.216 671.862 378.937 681.212 367.339 681.285Z" stroke="var(--stroke-0, white)" stroke-width="4" stroke-miterlimit="10"/>
<path id="Vector_5" d="M342.113 210.693C316.598 210.765 295.794 190.179 295.721 164.591L295.286 23.1665C295.286 11.5684 304.565 2.21747 316.163 2.14498L366.759 2.00001C378.357 2.00001 387.708 11.2785 387.781 22.8766L388.216 164.301C388.288 189.816 367.702 210.62 342.113 210.693Z" stroke="var(--stroke-0, white)" stroke-width="4" stroke-miterlimit="10"/>
<path id="Vector_6" d="M598.866 565.014L563.057 600.751C554.866 608.942 541.6 608.869 533.409 600.751L433.593 500.645C415.544 482.523 415.616 453.31 433.666 435.261C451.715 417.211 481 417.284 499.05 435.333L598.866 535.439C607.057 543.63 606.984 556.896 598.866 565.087V565.014Z" stroke="var(--stroke-0, white)" stroke-width="4" stroke-miterlimit="10"/>
<path id="Vector_7" d="M660.626 387.709L519.202 388.144C493.686 388.216 472.882 367.629 472.809 342.041C472.737 316.453 493.323 295.721 518.912 295.649L660.336 295.214C671.934 295.214 681.285 304.492 681.357 316.091L681.502 366.687C681.502 378.285 672.224 387.636 660.626 387.709Z" stroke="var(--stroke-0, white)" stroke-width="4" stroke-miterlimit="10"/>
<path id="Vector_8" d="M248.784 499.394L147.933 600.597C140.361 608.196 128.008 608.269 120.357 600.645L82.4126 562.833C74.8134 555.26 74.7406 542.907 82.3645 535.257L183.215 434.053C201.226 415.98 230.545 415.928 248.619 433.939C266.692 451.95 266.744 481.269 248.733 499.343L248.784 499.394Z" stroke="var(--stroke-0, #D8E530)" stroke-width="4" stroke-miterlimit="10"/>
<path id="Vector_9" d="M341.751 419.168C384.507 419.168 419.168 384.507 419.168 341.751C419.168 298.995 384.507 264.334 341.751 264.334C298.995 264.334 264.334 298.995 264.334 341.751C264.334 384.507 298.995 419.168 341.751 419.168Z" stroke="var(--stroke-0, #D8E530)" stroke-width="4" stroke-miterlimit="10"/>
</g>
</svg>
