<svg preserveAspectRatio="none" width="100%" height="100%" overflow="visible" style="display: block;" viewBox="0 0 19.5 19.5" fill="none" xmlns="http://www.w3.org/2000/svg">
<path id="vector" d="M15.75 1.5H14.5V0.75C14.5 0.336 14.164 0 13.75 0C13.336 0 13 0.336 13 0.75V1.5H6.5V0.75C6.5 0.336 6.164 0 5.75 0C5.336 0 5 0.336 5 0.75V1.5H3.75C1.332 1.5 0 2.832 0 5.25V15.75C0 18.168 1.332 19.5 3.75 19.5H15.75C18.168 19.5 19.5 18.168 19.5 15.75V5.25C19.5 2.832 18.168 1.5 15.75 1.5ZM3.75 3H5V3.75C5 4.164 5.336 4.5 5.75 4.5C6.164 4.5 6.5 4.164 6.5 3.75V3H13V3.75C13 4.164 13.336 4.5 13.75 4.5C14.164 4.5 14.5 4.164 14.5 3.75V3H15.75C17.327 3 18 3.673 18 5.25V6H1.5V5.25C1.5 3.673 2.173 3 3.75 3ZM15.75 18H3.75C2.173 18 1.5 17.327 1.5 15.75V7.5H18V15.75C18 17.327 17.327 18 15.75 18ZM6.77002 10.75C6.77002 11.302 6.32302 11.75 5.77002 11.75C5.21802 11.75 4.76489 11.302 4.76489 10.75C4.76489 10.198 5.20801 9.75 5.76001 9.75H5.77002C6.32202 9.75 6.77002 10.198 6.77002 10.75ZM10.77 10.75C10.77 11.302 10.323 11.75 9.77002 11.75C9.21802 11.75 8.76489 11.302 8.76489 10.75C8.76489 10.198 9.20801 9.75 9.76001 9.75H9.77002C10.322 9.75 10.77 10.198 10.77 10.75ZM14.77 10.75C14.77 11.302 14.323 11.75 13.77 11.75C13.218 11.75 12.7649 11.302 12.7649 10.75C12.7649 10.198 13.208 9.75 13.76 9.75H13.77C14.322 9.75 14.77 10.198 14.77 10.75ZM6.77002 14.75C6.77002 15.302 6.32302 15.75 5.77002 15.75C5.21802 15.75 4.76489 15.302 4.76489 14.75C4.76489 14.198 5.20801 13.75 5.76001 13.75H5.77002C6.32202 13.75 6.77002 14.198 6.77002 14.75ZM10.77 14.75C10.77 15.302 10.323 15.75 9.77002 15.75C9.21802 15.75 8.76489 15.302 8.76489 14.75C8.76489 14.198 9.20801 13.75 9.76001 13.75H9.77002C10.322 13.75 10.77 14.198 10.77 14.75ZM14.77 14.75C14.77 15.302 14.323 15.75 13.77 15.75C13.218 15.75 12.7649 15.302 12.7649 14.75C12.7649 14.198 13.208 13.75 13.76 13.75H13.77C14.322 13.75 14.77 14.198 14.77 14.75Z" fill="var(--fill-0, #222222)"/>
</svg>
