<svg preserveAspectRatio="none" width="100%" height="100%" overflow="visible" style="display: block;" viewBox="0 0 14.334 13.0007" fill="none" xmlns="http://www.w3.org/2000/svg">
<path id="vector" d="M9.53597 13.0007H4.79932C3.32932 13.0007 2.51929 12.1953 2.51929 10.734C2.51929 9.1313 3.426 7.26001 5.98267 7.26001H8.35262C10.9093 7.26001 11.816 9.1313 11.816 10.734C11.816 12.1953 11.006 13.0007 9.53597 13.0007ZM5.98267 8.26001C3.69667 8.26001 3.51929 10.1533 3.51929 10.734C3.51929 11.634 3.89065 12.0007 4.79932 12.0007H9.53597C10.4446 12.0007 10.816 11.6333 10.816 10.734C10.816 10.1533 10.638 8.26001 8.35262 8.26001H5.98267ZM7.17269 6.34196C5.79202 6.34196 4.66862 5.21864 4.66862 3.83797C4.66862 2.45731 5.79202 1.33398 7.17269 1.33398C8.55336 1.33398 9.67733 2.45731 9.67733 3.83797C9.67733 5.21864 8.55336 6.34196 7.17269 6.34196ZM7.17269 2.33398C6.34336 2.33398 5.66862 3.00864 5.66862 3.83797C5.66862 4.66731 6.34336 5.34196 7.17269 5.34196C8.00202 5.34196 8.67733 4.66731 8.67733 3.83797C8.67733 3.00864 8.00202 2.33398 7.17269 2.33398ZM14.334 6.934C14.334 5.61667 13.5173 4.28735 11.694 4.28735H11.0473C10.7713 4.28735 10.5473 4.51135 10.5473 4.78735C10.5473 5.06335 10.7713 5.28735 11.0473 5.28735H11.694C13.1747 5.28735 13.334 6.43867 13.334 6.934C13.334 7.51 13.1279 7.71395 12.5473 7.71395H12.3073C12.0313 7.71395 11.8073 7.93795 11.8073 8.21395C11.8073 8.48995 12.0313 8.71395 12.3073 8.71395H12.5473C13.6826 8.71395 14.334 8.06533 14.334 6.934ZM11.2333 3.85734C12.134 3.67601 12.7874 2.87201 12.7874 1.94735C12.7874 0.874014 11.914 0.000651042 10.8407 0.000651042C10.3333 0.000651042 9.8613 0.18863 9.51196 0.529297C9.31396 0.721964 9.31002 1.03865 9.50269 1.23665C9.69469 1.43465 10.0126 1.43868 10.21 1.24601C10.372 1.08801 10.596 1.0013 10.8407 1.0013C11.3627 1.0013 11.7874 1.426 11.7874 1.948C11.7874 2.39866 11.4707 2.79001 11.0353 2.87801C10.7647 2.93268 10.5893 3.19662 10.644 3.46729C10.692 3.70462 10.9006 3.86865 11.1333 3.86865C11.1666 3.86732 11.2 3.86401 11.2333 3.85734ZM2.52067 8.21395C2.52067 7.93795 2.29667 7.71395 2.02067 7.71395H1.78662C1.20595 7.71395 1 7.51 1 6.934C1 6.43867 1.15931 5.28735 2.63997 5.28735H3.29997C3.57597 5.28735 3.79997 5.06335 3.79997 4.78735C3.79997 4.51135 3.57597 4.28735 3.29997 4.28735H2.63997C0.691307 4.28735 0 5.71333 0 6.934C0 8.06533 0.651288 8.71395 1.78662 8.71395H2.02067C2.29667 8.71395 2.52067 8.48995 2.52067 8.21395ZM3.70467 3.46598C3.75934 3.19532 3.58398 2.93129 3.31331 2.87663C2.87331 2.78796 2.55396 2.39728 2.55396 1.94661C2.55396 1.42461 2.98199 1 3.50732 1C3.74732 1 3.97328 1.08867 4.14461 1.25C4.34528 1.44 4.66132 1.43065 4.85132 1.22998C5.04132 1.02931 5.03197 0.712689 4.8313 0.523356C4.47463 0.186023 4.00464 0 3.50798 0C2.43131 0 1.55469 0.873281 1.55469 1.94661C1.55469 2.87061 2.2113 3.67402 3.11597 3.85669C3.1493 3.86336 3.18267 3.86662 3.21533 3.86662C3.448 3.86728 3.656 3.70332 3.70467 3.46598Z" fill="var(--fill-0, #282828)"/>
</svg>
