<svg preserveAspectRatio="none" width="100%" height="100%" overflow="visible" style="display: block;" viewBox="0 0 75.3508 67.4414" fill="none" xmlns="http://www.w3.org/2000/svg">
<path id="Vector" d="M66.324 14.6101L51.7588 0L50.5684 0.393047L65.5323 15.4019C71.3269 21.219 74.2243 28.8497 74.2243 36.4804C74.2243 44.1112 71.3045 51.8037 65.4649 57.6264C53.8082 69.2438 34.869 69.2157 23.246 57.559L0.303208 34.5489C0.196524 34.9756 0.0954545 35.4024 0 35.8347L22.4486 58.3507C28.4903 64.4149 36.4411 67.4414 44.3919 67.4414C48.3449 67.4414 52.3034 66.689 56.0261 65.1842C59.7489 63.685 63.2358 61.4277 66.2566 58.4181C78.3569 46.3572 78.385 26.7048 66.324 14.6101Z" fill="var(--fill-0, #97B9FF)"/>
</svg>
