<svg preserveAspectRatio="none" width="100%" height="100%" overflow="visible" style="display: block;" viewBox="0 0 1693.7 19.47" fill="none" xmlns="http://www.w3.org/2000/svg">
<g id="Group 622">
<path id="Path 45" d="M1693.04 11.4098C1693.09 11.3578 1693.14 11.3028 1693.19 11.2458C1693.21 11.2198 1693.23 11.1928 1693.25 11.1668C1693.27 11.1408 1693.3 11.1028 1693.32 11.0668C1693.34 11.0308 1693.36 11.0018 1693.38 10.9668C1693.4 10.9318 1693.42 10.9068 1693.43 10.8758C1693.45 10.8448 1693.47 10.8088 1693.48 10.7758C1693.5 10.7428 1693.51 10.7118 1693.53 10.6758C1693.54 10.6398 1693.55 10.6088 1693.56 10.5758C1693.58 10.5428 1693.59 10.5158 1693.6 10.4778C1693.6 10.4398 1693.61 10.4098 1693.62 10.3778C1693.63 10.3458 1693.64 10.3048 1693.65 10.2668C1693.66 10.2288 1693.66 10.1888 1693.67 10.1488C1693.67 10.1088 1693.68 10.0838 1693.68 10.0488C1693.7 9.97579 1693.7 9.90181 1693.7 9.82881C1693.7 9.75581 1693.7 9.6818 1693.68 9.6078C1693.68 9.5748 1693.68 9.54181 1693.67 9.50781C1693.67 9.47381 1693.66 9.43581 1693.65 9.39981L1693.65 9.3898C1693.65 9.3528 1693.64 9.31581 1693.63 9.27881C1693.62 9.24181 1693.61 9.2108 1693.6 9.1788C1693.59 9.1468 1693.58 9.1078 1693.56 9.0728C1693.55 9.0378 1693.54 9.00581 1693.53 8.97281C1693.51 8.93981 1693.5 8.9078 1693.48 8.8728C1693.47 8.8378 1693.45 8.80481 1693.43 8.77281C1693.42 8.74081 1693.4 8.7128 1693.38 8.6828C1693.36 8.6528 1693.34 8.61681 1693.32 8.58281C1693.3 8.54881 1693.27 8.5178 1693.25 8.4828C1693.23 8.4478 1693.22 8.4338 1693.2 8.4098L1693.19 8.40381C1693.14 8.34681 1693.09 8.2918 1693.04 8.2398L1685.66 0.859799C1685.24 0.453712 1684.68 0.22942 1684.09 0.235104C1683.5 0.240788 1682.94 0.475991 1682.53 0.890194C1682.12 1.3044 1681.88 1.86455 1681.87 2.4503C1681.87 3.03604 1682.09 3.60065 1682.5 4.02281L1686.06 7.5848L1670.28 7.5848C1669.99 7.57851 1669.69 7.6317 1669.41 7.74127C1669.14 7.85083 1668.88 8.01456 1668.67 8.22287C1668.46 8.43117 1668.29 8.67985 1668.17 8.95433C1668.06 9.2288 1668 9.52355 1668 9.8213C1668 10.119 1668.06 10.4138 1668.17 10.6883C1668.29 10.9628 1668.46 11.2114 1668.67 11.4197C1668.88 11.628 1669.14 11.7918 1669.41 11.9013C1669.69 12.0109 1669.99 12.0641 1670.28 12.0578L1686.06 12.0578L1682.5 15.6208C1682.28 15.827 1682.11 16.0739 1681.99 16.347C1681.87 16.62 1681.81 16.9139 1681.81 17.2113C1681.81 17.5087 1681.86 17.8037 1681.98 18.079C1682.09 18.3544 1682.25 18.6045 1682.46 18.8148C1682.67 19.0251 1682.92 19.1914 1683.2 19.3038C1683.48 19.4163 1683.77 19.4728 1684.07 19.4699C1684.37 19.467 1684.66 19.4048 1684.93 19.287C1685.21 19.1692 1685.45 18.9981 1685.66 18.7838L1693.04 11.4098Z" fill="var(--fill-0, #4644B8)"/>
<path id="Path 46" d="M0.655 8.06019C0.603 8.11219 0.555 8.1672 0.506 8.2242C0.485 8.2502 0.467 8.27719 0.447 8.30319C0.427 8.32919 0.398 8.3672 0.376 8.4032C0.354 8.4392 0.336 8.46819 0.317 8.50319C0.298 8.53819 0.28 8.56319 0.263 8.59419C0.246 8.62519 0.23 8.6612 0.214 8.6942C0.198 8.7272 0.183 8.75819 0.169 8.79419C0.155 8.83019 0.144 8.86119 0.132 8.89419C0.12 8.92719 0.107 8.9542 0.1 8.9922C0.0930001 9.0302 0.0820001 9.06019 0.0740001 9.09219C0.0660001 9.12419 0.0540001 9.1652 0.0470001 9.2032C0.0400001 9.2412 0.0350001 9.2812 0.0290001 9.3212C0.0230001 9.3612 0.0180001 9.3862 0.0150001 9.4212C1.16158e-07 9.4942 1.15276e-07 9.56819 1.14405e-07 9.64119C1.13535e-07 9.71419 1.12652e-07 9.7882 0.0110001 9.8622C0.0110001 9.8952 0.0200001 9.92819 0.0250001 9.96219C0.0300001 9.99619 0.0340001 10.0342 0.0410001 10.0702L0.0410001 10.0802C0.0480001 10.1172 0.0590001 10.1542 0.0680001 10.1912C0.0770001 10.2282 0.0840001 10.2592 0.0940001 10.2912C0.104 10.3232 0.118 10.3622 0.131 10.3972C0.144 10.4322 0.154 10.4642 0.168 10.4972C0.182 10.5302 0.198 10.5622 0.213 10.5972C0.228 10.6322 0.244 10.6652 0.262 10.6972C0.28 10.7292 0.297 10.7572 0.315 10.7872C0.333 10.8172 0.353 10.8532 0.374 10.8872C0.395 10.9212 0.421 10.9522 0.445 10.9872C0.469 11.0222 0.479 11.0362 0.499 11.0602L0.504 11.0662C0.551 11.1232 0.604 11.1782 0.653 11.2302L8.033 18.6102C8.45516 19.0163 9.01977 19.2406 9.60551 19.2349C10.1913 19.2292 10.7514 18.994 11.1656 18.5798C11.5798 18.1656 11.815 17.6054 11.8207 17.0197C11.8264 16.434 11.6021 15.8694 11.196 15.4472L7.634 11.8852L23.411 11.8852C23.7087 11.8915 24.0046 11.8383 24.2815 11.7287C24.5583 11.6192 24.8105 11.4554 25.0233 11.2471C25.236 11.0388 25.4051 10.7901 25.5205 10.5157C25.6359 10.2412 25.6953 9.94644 25.6953 9.6487C25.6953 9.35095 25.6359 9.0562 25.5205 8.78172C25.4051 8.50725 25.236 8.25856 25.0233 8.05026C24.8105 7.84196 24.5583 7.67823 24.2815 7.56866C24.0046 7.4591 23.7087 7.40591 23.411 7.4122L7.637 7.4122L11.2 3.8492C11.4143 3.64301 11.5854 3.39614 11.7032 3.12305C11.821 2.84995 11.8832 2.55612 11.8861 2.25871C11.889 1.96131 11.8325 1.66631 11.72 1.39098C11.6076 1.11565 11.4413 0.865505 11.231 0.655197C11.0207 0.444889 10.7706 0.278636 10.4952 0.166153C10.2199 0.0536697 9.9249 -0.00277905 9.62749 0.000106926C9.33008 0.0029929 9.03624 0.0651478 8.76314 0.182953C8.49005 0.300758 8.24319 0.471854 8.037 0.686203L0.655 8.06019Z" fill="var(--fill-0, #4644B8)"/>
</g>
</svg>
