<svg preserveAspectRatio="none" width="100%" height="100%" overflow="visible" style="display: block;" viewBox="0 0 19.4991 10.5006" fill="none" xmlns="http://www.w3.org/2000/svg">
<path id="vector" d="M16.7588 4.8995L18.3777 7.33554C18.6067 7.68054 18.5128 8.14658 18.1678 8.37558C18.0398 8.46058 17.8967 8.50058 17.7537 8.50058C17.5107 8.50058 17.2727 8.38262 17.1277 8.16562L15.5687 5.82065C14.8047 6.33065 13.9047 6.76452 12.8577 7.06552L13.4798 9.56967C13.5808 9.97167 13.3347 10.3786 12.9327 10.4786C12.8717 10.4936 12.8118 10.5006 12.7508 10.5006C12.4148 10.5006 12.1077 10.2725 12.0237 9.93149L11.3897 7.37753C10.8707 7.44953 10.3328 7.50058 9.75176 7.50058C9.17076 7.50058 8.63282 7.44953 8.11382 7.37753L7.47978 9.93149C7.39578 10.2725 7.08873 10.5006 6.75273 10.5006C6.69173 10.5006 6.63185 10.4936 6.57085 10.4786C6.16885 10.3786 5.92373 9.97167 6.02373 9.56967L6.6458 7.06552C5.5998 6.76352 4.69862 6.32965 3.93462 5.82065L2.37578 8.16562C2.23078 8.38262 1.9928 8.50058 1.7498 8.50058C1.6068 8.50058 1.46374 8.45958 1.33574 8.37558C0.990741 8.14658 0.89778 7.68054 1.12578 7.33554L2.74468 4.8995C0.773677 3.1005 0.0516219 1.02464 0.0386219 0.987639C-0.0923781 0.594639 0.120719 0.169664 0.51372 0.0386639C0.91072 -0.092336 1.33072 0.120588 1.46172 0.510588C1.50772 0.645588 2.20881 2.60047 4.13481 4.14047C4.13881 4.14247 4.1428 4.1426 4.1458 4.1456C4.1558 4.1526 4.1617 4.1635 4.1707 4.1705C5.4447 5.1775 7.2438 5.9996 9.7498 5.9996C12.2558 5.9996 14.0547 5.1765 15.3287 4.1705C15.3387 4.1635 15.3438 4.1516 15.3538 4.1456C15.3578 4.1436 15.3618 4.14347 15.3648 4.14047C17.2908 2.60047 17.9916 0.645588 18.0376 0.510588C18.1716 0.118588 18.5968 -0.0893595 18.9878 0.0396405C19.3798 0.171641 19.5907 0.594662 19.4607 0.986662C19.4517 1.02466 18.7298 3.1015 16.7588 4.8995Z" fill="var(--fill-0, #A5A5A5)"/>
</svg>
