<svg preserveAspectRatio="none" width="100%" height="100%" overflow="visible" style="display: block;" viewBox="0 0 341.046 530.007" fill="none" xmlns="http://www.w3.org/2000/svg">
<path id="Vector" d="M170.523 530C159.012 530 147.776 527.768 137.133 523.362L40.6869 483.433C19.9457 474.845 6.28766 454.789 5.89925 432.339L3.3781 286.585C3.3781 286.585 2.93319 261.134 2.93319 261.119L0.00949871 92.1174C-0.0258116 90.2107 0.0377469 88.2898 0.193112 86.4183C2.24111 61.8565 19.6844 41.7579 43.6812 36.2283L135.912 5.59315C142.635 3.3686 149.57 1.7867 156.533 0.896881C161.151 0.303668 165.862 0 170.523 0C175.184 0 179.894 0.303668 184.52 0.896881C191.476 1.7867 198.411 3.3686 205.12 5.59315L297.357 36.2283C309.01 38.919 319.306 45.0983 327.173 54.1236C335.111 63.2407 339.843 74.4058 340.845 86.4183C341.008 88.3392 341.071 90.2601 341.036 92.1245L338.105 261.169L337.667 286.592L335.139 432.346C334.758 454.789 321.1 474.845 300.352 483.44L203.912 523.369C193.27 527.775 182.041 530.007 170.523 530.007V530Z" fill="var(--fill-0, #13BF92)"/>
</svg>
