<svg preserveAspectRatio="none" width="100%" height="100%" overflow="visible" style="display: block;" viewBox="0 0 94.1513 85.3167" fill="none" xmlns="http://www.w3.org/2000/svg">
<path id="Vector" d="M93.8194 44.5051L65.5641 72.8592C58.4809 79.9636 49.0601 83.8901 39.032 83.9043H38.9614C28.9615 83.9043 19.5478 80.0201 12.4575 72.951C5.35308 65.8748 1.43363 56.4541 1.41245 46.4259C1.39832 36.3908 5.28952 26.9559 12.3657 19.8585L31.6522 0.501405L30.1479 0L11.3629 18.8557C4.01834 26.2285 -0.0140871 36.0165 3.6978e-05 46.4259C0.0212231 56.8354 4.08897 66.6093 11.4618 73.9538C18.8204 81.2842 28.5802 85.3167 38.9614 85.3167H39.032C49.4415 85.3025 59.2154 81.2277 66.5599 73.8549L94.1513 46.1646C94.0525 45.6067 93.9395 45.0559 93.8194 44.5051Z" fill="var(--fill-0, #97B9FF)"/>
</svg>
