<svg preserveAspectRatio="none" width="100%" height="100%" overflow="visible" style="display: block;" viewBox="0 0 32.4967 32.5" fill="none" xmlns="http://www.w3.org/2000/svg">
<path id="vector" d="M27.9167 10H25.8333V5.13835C25.8333 1.87335 23.96 0 20.695 0H5.13835C1.87335 0 0 1.87335 0 5.13835V24.5833C0 25.0883 0.304818 25.545 0.771484 25.7383C0.926484 25.8033 1.08833 25.8333 1.25 25.8333C1.575 25.8333 1.89505 25.7067 2.13338 25.4667L5.65511 21.9434H9.99837V24.5833C9.99837 27.4967 11.6684 29.1667 14.5817 29.1667H27.3966L30.3634 32.1334C30.6034 32.3734 30.9217 32.5 31.2467 32.5C31.4084 32.5 31.5699 32.4683 31.7249 32.405C32.1915 32.2117 32.4967 31.755 32.4967 31.25V14.5833C32.5001 11.67 30.83 10 27.9167 10ZM5.13835 19.445C4.80668 19.445 4.4883 19.5766 4.25496 19.8116L2.5 21.5666V5.1416C2.5 3.2416 3.23835 2.50326 5.13835 2.50326H20.695C22.595 2.50326 23.3333 3.24327 23.3333 5.1416V16.8083C23.3333 18.7066 22.595 19.4466 20.695 19.4466H5.13835V19.445ZM30 28.2316L28.8 27.0317C28.565 26.7967 28.2483 26.665 27.9167 26.665H14.5833C13.065 26.665 12.5 26.1 12.5 24.5817V21.9434H20.695C23.96 21.9434 25.8333 20.07 25.8333 16.805V12.5H27.9167C29.435 12.5 30 13.065 30 14.5833V28.2316ZM14.6167 11.25C14.6167 12.17 13.8717 12.9167 12.95 12.9167C12.03 12.9167 11.2748 12.17 11.2748 11.25C11.2748 10.33 12.0133 9.58333 12.9333 9.58333H12.95C13.87 9.58333 14.6167 10.33 14.6167 11.25ZM19.6167 11.25C19.6167 12.17 18.8717 12.9167 17.95 12.9167C17.03 12.9167 16.2748 12.17 16.2748 11.25C16.2748 10.33 17.0133 9.58333 17.9333 9.58333H17.95C18.87 9.58333 19.6167 10.33 19.6167 11.25ZM9.6167 11.25C9.6167 12.17 8.8717 12.9167 7.95003 12.9167C7.03003 12.9167 6.27482 12.17 6.27482 11.25C6.27482 10.33 7.01335 9.58333 7.93335 9.58333H7.95003C8.87003 9.58333 9.6167 10.33 9.6167 11.25Z" fill="var(--fill-0, #4644B8)"/>
</svg>
