<svg preserveAspectRatio="none" width="100%" height="100%" overflow="visible" style="display: block;" viewBox="0 0 41.0065 38.2149" fill="none" xmlns="http://www.w3.org/2000/svg">
<g id="Group 23">
<path id="Path 42" d="M38.7695 24.2342C38.1762 24.2342 37.6072 24.4797 37.1877 24.9167C36.7682 25.3538 36.5325 25.9466 36.5325 26.5646V32.2871C36.532 32.6232 36.4036 32.9453 36.1755 33.183C35.9473 33.4206 35.6381 33.5544 35.3155 33.5549H5.6905C5.36789 33.5544 5.05865 33.4206 4.83053 33.183C4.60242 32.9453 4.47403 32.6232 4.4735 32.2871V26.5646C4.47979 26.2545 4.4266 25.9462 4.31703 25.6578C4.20747 25.3694 4.04373 25.1066 3.83543 24.885C3.62713 24.6633 3.37845 24.4873 3.10398 24.367C2.8295 24.2468 2.53475 24.1849 2.237 24.1849C1.93925 24.1849 1.6445 24.2468 1.37002 24.367C1.09555 24.4873 0.84687 24.6633 0.638569 24.885C0.430267 25.1066 0.266534 25.3694 0.156967 25.6578C0.0474002 25.9462 -0.00579489 26.2545 0.000500035 26.5646V32.2871C0.00314455 33.8585 0.603611 35.3648 1.67034 36.4759C2.73706 37.587 4.18306 38.2123 5.6915 38.2148H35.3155C36.8239 38.2123 38.2699 37.587 39.3367 36.4759C40.4034 35.3648 41.0039 33.8585 41.0065 32.2871V26.5646C41.0065 25.9466 40.7708 25.3538 40.3513 24.9167C39.9318 24.4797 39.3628 24.2342 38.7695 24.2342Z" fill="var(--fill-0, white)"/>
<path id="Path 43" d="M22.0845 0.682363C22.0325 0.628191 21.9775 0.578185 21.9205 0.527138C21.8945 0.505261 21.8675 0.486509 21.8415 0.465674C21.8155 0.444838 21.7775 0.414627 21.7415 0.391708C21.7055 0.368789 21.6765 0.350037 21.6415 0.330243C21.6065 0.310449 21.5815 0.291697 21.5505 0.273987C21.5195 0.256277 21.4835 0.239608 21.4505 0.22294C21.4175 0.206272 21.3865 0.190645 21.3505 0.17606C21.3145 0.161475 21.2835 0.150016 21.2505 0.137514C21.2175 0.125013 21.1905 0.11147 21.1525 0.104178C21.1145 0.0968851 21.0845 0.0854256 21.0525 0.0770914C21.0205 0.0687572 20.9795 0.0562559 20.9415 0.0489634C20.9035 0.041671 20.8635 0.0364621 20.8235 0.0302115C20.7835 0.0239608 20.7585 0.018752 20.7235 0.0156266C20.6505 0 20.5765 0 20.5035 0C20.4305 0 20.3565 0 20.2825 0.0114595C20.2495 0.0114595 20.2165 0.0208355 20.1825 0.0260444C20.1485 0.0312533 20.1105 0.0354204 20.0745 0.0427128H20.0645C20.0275 0.0500052 19.9905 0.0614648 19.9535 0.0708407C19.9165 0.0802167 19.8855 0.0875091 19.8535 0.0979269C19.8215 0.108345 19.7825 0.12293 19.7475 0.136473C19.7125 0.150016 19.6805 0.160433 19.6475 0.175018C19.6145 0.189603 19.5825 0.206272 19.5475 0.221898C19.5125 0.237525 19.4795 0.254193 19.4475 0.272945C19.4155 0.291697 19.3875 0.309407 19.3575 0.328159C19.3275 0.346911 19.2915 0.367747 19.2575 0.389624C19.2235 0.411501 19.1925 0.438587 19.1575 0.46359C19.1225 0.488593 19.1085 0.49901 19.0845 0.519846L19.0785 0.525055C19.0215 0.574018 18.9665 0.629232 18.9145 0.680279L11.5345 8.36858C11.1284 8.80838 10.9041 9.39657 10.9098 10.0068C10.9155 10.617 11.1507 11.2005 11.5649 11.632C11.9791 12.0636 12.5393 12.3086 13.125 12.3145C13.7108 12.3204 14.2754 12.0868 14.6975 11.6637L18.2595 7.95291V24.389C18.2532 24.6991 18.3064 25.0074 18.416 25.2958C18.5255 25.5843 18.6893 25.847 18.8976 26.0686C19.1059 26.2903 19.3546 26.4664 19.629 26.5866C19.9035 26.7068 20.1983 26.7687 20.496 26.7687C20.7938 26.7687 21.0885 26.7068 21.363 26.5866C21.6375 26.4664 21.8861 26.2903 22.0944 26.0686C22.3027 25.847 22.4665 25.5843 22.576 25.2958C22.6856 25.0074 22.7388 24.6991 22.7325 24.389V7.95604L26.2955 11.6679C26.5017 11.8912 26.7486 12.0694 27.0217 12.1921C27.2948 12.3149 27.5886 12.3796 27.886 12.3826C28.1834 12.3856 28.4784 12.3268 28.7537 12.2097C29.0291 12.0925 29.2792 11.9193 29.4895 11.7002C29.6998 11.4811 29.8661 11.2205 29.9786 10.9337C30.091 10.6468 30.1475 10.3395 30.1446 10.0297C30.1417 9.71985 30.0796 9.41373 29.9618 9.12923C29.8439 8.84472 29.6729 8.58755 29.4585 8.37275L22.0845 0.682363Z" fill="var(--fill-0, white)"/>
</g>
</svg>
