<svg preserveAspectRatio="none" width="100%" height="100%" overflow="visible" style="display: block;" viewBox="0 0 319.855 508.817" fill="none" xmlns="http://www.w3.org/2000/svg">
<path id="Vector" d="M319.848 81.339L319.537 99.3119L318.881 137.263L318.852 138.676L317.553 213.781L317.525 215.193L316.917 250.39L316.479 275.814L316.43 278.829L316.395 280.793L314.58 385.346L314.544 387.302L313.951 421.568C313.641 439.788 302.539 456.087 285.703 463.057L189.264 502.986C170.479 510.761 149.377 510.761 130.592 502.986L34.1457 463.057C17.3097 456.087 6.21525 439.788 5.89746 421.568L5.276 385.509V385.431L5.24069 383.545V383.475L3.4328 278.971V278.914L3.39749 277.007V276.951L3.3763 275.814L2.93139 250.39L2.317 214.875L2.29581 213.463L0.996391 138.372L0.968143 136.96L0.318434 99.3189L0.00770406 81.339C-0.0205442 79.7782 0.0288902 78.2317 0.156007 76.7063C0.318434 74.7359 0.607979 72.8009 1.01758 70.9012C1.13763 70.3575 1.26475 69.8208 1.39893 69.284C5.5726 52.8365 18.701 39.6446 35.9324 35.8523L64.6184 26.3256L66.1156 25.8312L121.094 7.56876L122.499 7.0956L128.657 5.05466C134.752 3.03492 140.987 1.61544 147.28 0.810371C155.677 -0.270124 164.179 -0.270124 172.576 0.810371C178.868 1.61544 185.104 3.03492 191.192 5.05466L197.597 7.18034L199.009 7.6535L255.131 26.2903L256.636 26.7917L283.923 35.8523C301.67 39.7647 315.074 53.6557 318.803 70.7953C318.923 71.3462 319.036 71.897 319.135 72.4549C319.389 73.8532 319.573 75.2727 319.693 76.7063C319.82 78.2317 319.876 79.7782 319.848 81.339Z" fill="var(--fill-0, white)"/>
</svg>
