<svg preserveAspectRatio="none" width="100%" height="100%" overflow="visible" style="display: block;" viewBox="0 0 25.4234 25.0016" fill="none" xmlns="http://www.w3.org/2000/svg">
<g id="Group 39">
<path id="Path 111" d="M12.5112 13.5423C12.4117 13.5423 12.3129 13.5252 12.2194 13.4919L0.878629 9.46336C0.615337 9.36952 0.388796 9.19651 0.231166 8.96888C0.0735363 8.74126 -0.00717148 8.47059 0.000500416 8.1953C0.00817231 7.92002 0.103834 7.6541 0.273905 7.43531C0.443976 7.21652 0.679813 7.05596 0.947937 6.97644L24.3142 0.0377558C24.4975 -0.0170429 24.6942 -0.00997715 24.873 0.0578286C25.0518 0.125634 25.2023 0.250285 25.3008 0.411945C25.3992 0.573606 25.4398 0.762989 25.4161 0.949961C25.3924 1.13693 25.3059 1.31075 25.1702 1.44376L13.119 13.2949C12.9577 13.4533 12.7391 13.5423 12.5112 13.5423ZM2.55587 8.26318L12.2901 11.7226L21.5371 2.6269L2.55587 8.26318Z" fill="var(--fill-0, white)"/>
<path id="Path 112" d="M17.0527 25.0015C16.7786 25.0017 16.5111 24.9187 16.2868 24.7638C16.0625 24.6088 15.8924 24.3896 15.7996 24.136L11.7035 12.9841C11.6477 12.8329 11.6368 12.6693 11.6723 12.5123C11.7078 12.3554 11.7881 12.2117 11.9038 12.0981L23.9557 0.248922C24.091 0.115161 24.2679 0.0298095 24.4583 0.00648138C24.6487 -0.0168467 24.8415 0.0231929 25.0061 0.120213C25.1706 0.217233 25.2974 0.365645 25.3662 0.541775C25.4349 0.717904 25.4417 0.911605 25.3855 1.09198L18.3286 24.0699C18.248 24.3339 18.0847 24.5662 17.8619 24.7335C17.6391 24.9008 17.3683 24.9946 17.088 25.0015H17.052M13.5041 12.9152L17.0201 22.4867L22.7518 3.8222L13.5041 12.9152Z" fill="var(--fill-0, white)"/>
</g>
</svg>
