<svg preserveAspectRatio="none" width="100%" height="100%" overflow="visible" style="display: block;" viewBox="0 0 51.2283 77.9651" fill="none" xmlns="http://www.w3.org/2000/svg">
<path id="Vector" d="M38.8414 1.45478L51.2 1.41241L51.2283 0L38.8344 0.0423706C28.4249 0.0776809 18.6581 4.15954 11.3206 11.5465C3.99021 18.9263 -0.0281003 28.7284 0.000147928 39.1308C0.0354582 49.5403 4.12439 59.3071 11.5042 66.6446C18.8558 73.9468 28.6015 77.9651 38.9544 77.9651H39.0957L49.8724 77.9298L49.9006 76.5173L39.0886 76.5527H38.9544C28.9758 76.5527 19.5832 72.6826 12.5 65.6418C5.38142 58.5727 1.44787 49.1589 1.41256 39.1238C1.38431 29.0957 5.2543 19.6537 12.3234 12.5422C19.3925 5.42365 28.8133 1.49009 38.8414 1.45478Z" fill="var(--fill-0, #97B9FF)"/>
</svg>
