<svg preserveAspectRatio="none" width="100%" height="100%" overflow="visible" style="display: block;" viewBox="0 0 14.3333 14.3333" fill="none" xmlns="http://www.w3.org/2000/svg">
<path id="vector" d="M7.16667 0C3.21467 0 0 3.21467 0 7.16667C0 11.1187 3.21467 14.3333 7.16667 14.3333C11.1187 14.3333 14.3333 11.1187 14.3333 7.16667C14.3333 3.21467 11.1187 0 7.16667 0ZM7.16667 13.3333C3.766 13.3333 1 10.5673 1 7.16667C1 3.766 3.766 1 7.16667 1C10.5673 1 13.3333 3.766 13.3333 7.16667C13.3333 10.5673 10.5673 13.3333 7.16667 13.3333ZM7.82399 6.8147L6.75199 6.54866C6.58666 6.50733 6.44601 6.41463 6.34001 6.2793C6.24001 6.15263 6.18467 5.99001 6.18467 5.82267C6.18467 5.41001 6.51999 5.07471 6.93266 5.07471H7.39933C7.78067 5.07471 8.1 5.36137 8.14333 5.74137C8.174 6.01604 8.41867 6.2147 8.696 6.1827C8.97067 6.15203 9.168 5.90463 9.13733 5.62996C9.04733 4.82863 8.42733 4.21065 7.65133 4.09798V3.83333C7.65133 3.55733 7.42733 3.33333 7.15133 3.33333C6.87533 3.33333 6.65133 3.55733 6.65133 3.83333V4.1027C5.82133 4.2387 5.18467 4.95469 5.18467 5.82202C5.18467 6.21335 5.31601 6.59603 5.55267 6.89469C5.79001 7.20069 6.12867 7.42198 6.50867 7.51798L7.58067 7.78402C7.91467 7.86868 8.14799 8.16734 8.14799 8.51001C8.14799 8.70868 8.07 8.896 7.928 9.038C7.786 9.18 7.59867 9.25797 7.4 9.25797H6.93333C6.552 9.25797 6.23266 8.97131 6.18933 8.59131C6.15866 8.31664 5.90799 8.11665 5.63666 8.14998C5.36199 8.18065 5.16467 8.42797 5.19533 8.70264C5.284 9.49397 5.88933 10.108 6.65133 10.2314V10.5C6.65133 10.776 6.87533 11 7.15133 11C7.42733 11 7.65133 10.776 7.65133 10.5V10.2347C8.02133 10.1807 8.36466 10.0167 8.63466 9.74666C8.96533 9.416 9.14799 8.97731 9.14799 8.51131C9.14799 7.70931 8.60466 7.0127 7.82399 6.8147Z" fill="var(--fill-0, #282828)"/>
</svg>
