<svg preserveAspectRatio="none" width="100%" height="100%" overflow="visible" style="display: block;" viewBox="0 0 35.835 32.5016" fill="none" xmlns="http://www.w3.org/2000/svg">
<path id="vector" d="M23.8399 32.5016H11.9983C8.32329 32.5016 6.29822 30.4883 6.29822 26.8349C6.29822 22.8283 8.565 18.15 14.9567 18.15H20.8816C27.2732 18.15 29.54 22.8283 29.54 26.8349C29.54 30.4883 27.5149 32.5016 23.8399 32.5016ZM14.9567 20.65C9.24166 20.65 8.79822 25.3833 8.79822 26.8349C8.79822 29.0849 9.72662 30.0016 11.9983 30.0016H23.8399C26.1116 30.0016 27.04 29.0833 27.04 26.8349C27.04 25.3833 26.5949 20.65 20.8816 20.65H14.9567ZM17.9317 15.8549C14.4801 15.8549 11.6715 13.0466 11.6715 9.59493C11.6715 6.14326 14.4801 3.33496 17.9317 3.33496C21.3834 3.33496 24.1933 6.14326 24.1933 9.59493C24.1933 13.0466 21.3834 15.8549 17.9317 15.8549ZM17.9317 5.83496C15.8584 5.83496 14.1715 7.5216 14.1715 9.59493C14.1715 11.6683 15.8584 13.3549 17.9317 13.3549C20.0051 13.3549 21.6933 11.6683 21.6933 9.59493C21.6933 7.5216 20.0051 5.83496 17.9317 5.83496ZM35.835 17.335C35.835 14.0417 33.7934 10.7184 29.235 10.7184H27.6182C26.9282 10.7184 26.3682 11.2784 26.3682 11.9684C26.3682 12.6584 26.9282 13.2184 27.6182 13.2184H29.235C32.9367 13.2184 33.335 16.0967 33.335 17.335C33.335 18.775 32.8199 19.2849 31.3682 19.2849H30.7682C30.0782 19.2849 29.5182 19.8449 29.5182 20.5349C29.5182 21.2249 30.0782 21.7849 30.7682 21.7849H31.3682C34.2065 21.7849 35.835 20.1633 35.835 17.335ZM28.0833 9.64335C30.335 9.19002 31.9684 7.18003 31.9684 4.86837C31.9684 2.18503 29.785 0.0016276 27.1016 0.0016276C25.8333 0.0016276 24.6532 0.471576 23.7799 1.32324C23.2849 1.80491 23.275 2.59663 23.7567 3.09163C24.2367 3.58663 25.0316 3.5967 25.5249 3.11503C25.9299 2.72003 26.49 2.50326 27.1016 2.50326C28.4066 2.50326 29.4684 3.565 29.4684 4.87C29.4684 5.99666 28.6766 6.97503 27.5883 7.19503C26.9116 7.33169 26.4732 7.99155 26.6099 8.66821C26.7299 9.26155 27.2516 9.67163 27.8333 9.67163C27.9166 9.6683 28 9.66002 28.0833 9.64335ZM6.30168 20.5349C6.30168 19.8449 5.74168 19.2849 5.05168 19.2849H4.46655C3.01489 19.2849 2.5 18.775 2.5 17.335C2.5 16.0967 2.89827 13.2184 6.59993 13.2184H8.24992C8.93992 13.2184 9.49992 12.6584 9.49992 11.9684C9.49992 11.2784 8.93992 10.7184 8.24992 10.7184H6.59993C1.72827 10.7184 0 14.2833 0 17.335C0 20.1633 1.62822 21.7849 4.46655 21.7849H5.05168C5.74168 21.7849 6.30168 21.2249 6.30168 20.5349ZM9.26168 8.66496C9.39834 7.98829 8.95995 7.32824 8.28328 7.19157C7.18328 6.9699 6.38489 5.9932 6.38489 4.86654C6.38489 3.56154 7.45498 2.5 8.76831 2.5C9.36831 2.5 9.9332 2.72167 10.3615 3.125C10.8632 3.6 11.6533 3.57662 12.1283 3.07495C12.6033 2.57328 12.5799 1.78172 12.0782 1.30839C11.1866 0.465057 10.0116 0 8.76994 0C6.07827 0 3.88672 2.1832 3.88672 4.86654C3.88672 7.17654 5.52825 9.18506 7.78992 9.64172C7.87325 9.65839 7.95666 9.66655 8.03833 9.66655C8.62 9.66821 9.14001 9.25829 9.26168 8.66496Z" fill="var(--fill-0, #4644B8)"/>
</svg>
