<?xml version="1.0" encoding="UTF-8"?>
<svg id="Layer_1" xmlns="http://www.w3.org/2000/svg" xmlns:xlink="http://www.w3.org/1999/xlink" version="1.1" viewBox="0 0 945 998.01">
  <!-- Generator: Adobe Illustrator 29.6.0, SVG Export Plug-In . SVG Version: 2.1.1 Build 207)  -->
  <defs>
    <style>
      .st0 {
        fill: url(#radial-gradient);
      }

      .st1 {
        fill: #fff;
      }

      .st2 {
        fill: #00524c;
      }
    </style>
    <radialGradient id="radial-gradient" cx="487.25" cy="-121.28" fx="487.25" fy="-121.28" r="276.21" gradientTransform="translate(0 399.28)" gradientUnits="userSpaceOnUse">
      <stop offset="0" stop-color="#7ca7ad"/>
      <stop offset=".12" stop-color="#5f9396"/>
      <stop offset=".29" stop-color="#3d7c7c"/>
      <stop offset=".46" stop-color="#226967"/>
      <stop offset=".63" stop-color="#0f5c58"/>
      <stop offset=".81" stop-color="#04544f"/>
      <stop offset="1" stop-color="#00524c"/>
    </radialGradient>
  </defs>
  <g>
    <g>
      <path class="st2" d="M207.25,562.18l-5.38,1.2-21.72,21.72c69.35-14.75,169.59-23.91,280.79-23.91s211.24,9.17,280.79,23.91l23.32-23.32c-71.54-14.95-172.38-23.52-277.8-23.52s-208.45,8.77-279.99,23.91"/>
      <path class="st2" d="M202.07,563.17l1.2-5.38c15.15-71.54,23.91-173.77,23.91-279.99S218.61,71.54,203.87,0l-23.52,23.52c14.75,69.35,23.91,169.59,23.91,280.79s-9.17,211.24-23.91,280.79l21.72-21.92Z"/>
    </g>
    <path id="SVGID" class="st0" d="M487.25,24.71c-104.22,0-204.46-8.37-276.21-22.92,14.55,71.74,23.12,171.98,23.12,276.21s-8.37,204.46-23.12,276.21c71.74-14.55,171.98-22.92,276.21-22.92s204.46,8.37,276.21,22.92c-14.55-71.74-22.92-171.78-22.92-276.21s8.37-204.46,22.92-276.21c-71.54,14.55-171.78,22.92-276.21,22.92"/>
    <path class="st1" d="M545.04,207.65c.2-3.59-4.38-8.77-6.18-10.56l-1.4-1.2,1.59-.8c1-.4,1.4-1,1.4-1.59.2-2.39-5.78-7.17-9.96-9.57l-1.59-1,1.59-1.2c.2-.2.4-.2.6-.4-1-1.2-1.99-2.39-2.99-4.18-.8.6-2.39,1.4-4.38,1.4-2.99,0-6.78-1.59-11.16-4.58l-.2-.2c-.2-.2-11.16-12.55-19.73-19.33,4.38,7.77,8.37,19.33,8.77,20.92,5.58,9.37,9.96,7.97,9.96,7.97l1.4-.4.2,1.4c1.2,9.96,5.98,10.36,6.18,10.36h1v1.2c.2,9.37,6.18,11.96,6.38,12.16l.6.4.2.8c.4,8.17,3.19,14.55,3.19,14.55l.2.4v.4c-.2,2.79,3.59,7.97,6.58,10.96,1.2-.2,1.99-.8,2.59-1.79,1.79-2.79,1.2-7.97,1-9.76l-.2-.8.6-.4c5.58-4.78,2.39-10.36,2.19-10.56l-.6-1,1-.6c.8-1,1.2-1.79,1.2-2.99"/>
    <path class="st1" d="M576.73,201.87l.2-.6c2.59-10.76-3.99-15.54-4.38-15.74l-.8-.6.2-1c.6-1.99.6-3.79-.4-5.58-2.79-5.58-11.56-8.17-11.56-8.17l-1.4-.4.6-1.4c.8-1.59.8-2.99.2-3.99-1.99-3.59-11.16-4.38-14.35-4.38h-1.59l.6-1.59c.2-.6.2-1.2.4-1.79-.2,0-.4.2-.4.2-2.99,0-6.18-1-9.37-3.19-1.2,1.59-4.38,4.38-11.56,4.38-1.4,0-2.99,0-4.58-.4h-.2c-.2,0-15.94-6.18-25.91-7.37-.6-.2-1.2-.2-1.79-.2,0,0-.2,0-.2.2.6.4,1.4,1,2.19,1.4,1,.8,2.19,1.59,3.39,2.59,7.97,6.78,17.14,16.94,18.13,18.13,3.79,2.79,7.17,4.18,9.76,4.18s3.59-1.4,3.79-1.59l.4-.6.6-.8.8,1.59c1.4,2.19,2.59,3.99,3.79,5.18.4.4.8.8,1,1,2.19,2.19,3.99,2.59,5.18,2.59s1.79-.4,1.79-.4l1-.8.6,1.2c4.58,9.57,9.96,10.56,12.16,10.56h.6l.8-.2.4.8c4.98,9.96,11.36,15.94,11.36,15.94l.2.2v.2c1.59,4.38,8.77,7.77,12.16,8.97,4.38-5.98-3.59-17.74-3.59-17.94l-.2-.6Z"/>
    <path class="st1" d="M596.25,161.42c-1-4.78-7.57-8.57-7.57-8.57l-.6-.4v-.8c.4-9.37-6.97-10.36-7.17-10.36l-1.2-.2.2-1.2c.2-1.4-.2-2.59-.8-3.39-1.4-1.59-4.38-2.59-8.77-2.59-2.79,0-4.98.4-4.98.4l-1.79.4.4-1.79c.4-1.2.2-1.99,0-2.59-.4-.6-1.59-1-3.19-1-4.98,0-12.55,3.19-12.55,3.19l-1.79.8.2-1.99c.2-1.2,0-1.99-.6-2.59-.6-.8-2.19-1.2-3.99-1.2-4.38,0-10.16,2.19-10.36,2.19l-.4.2c-1.79,1-4.18,1.79-7.57,1.79-.4,2.19-1.99,6.78-10.16,10.76h-.2s-4.38,1-9.57,2.39c-2.99.8-6.38,1.99-9.37,3.19h-.2c1,.2,1.99.4,3.19.6,9.37,1.99,20.13,6.18,21.52,6.78,1.4.2,2.79.4,4.18.4,8.37,0,10.16-3.99,10.16-4.18l.6-1.4,1.2.8c3.19,2.39,6.18,3.39,8.77,3.39h.2c.4,0,.8,0,1.2-.2.4-.2.8-.2,1.2-.4,1.4-.4,1.99-1.4,1.99-1.4l.8-1,.8.8c3.19,2.79,6.38,4.18,9.96,4.18,3.19,0,5.18-1.2,5.18-1.2l.8-.4.6.6c6.97,5.78,14.55,7.77,14.55,7.97h.4l.2.2c1.2,1.4,4.38,2.19,8.97,2.19,2.19,0,4.38-.2,5.18-.4.6-1.39.8-2.59.4-3.99"/>
    <path class="st1" d="M512.76,139.7c8.37-4.18,8.77-8.57,8.77-9.17v-.2l-.2-1.2v-.4h1.4c1.59,0,2.79,0,3.99-.2.4,0,.6-.2,1-.2,1-.4,1.99-.6,2.59-1.2.4-.2.8-.6,1-.8,1.4-1.4,1.59-2.59,1.59-2.59l.2-1.2,1.2.2c.8.2,1.59.2,2.39.2,6.78,0,9.76-4.98,9.76-5.18l.4-.6.8.2c1.2.2,2.59.2,3.79.2,5.58,0,9.76-1.4,9.76-1.4h.6c.2,0,.6.2.8.2,2.99,0,7.97-3.59,10.16-5.38,0-1.2-.4-2.19-1-2.79-2.19-2.39-6.97-2.59-8.17-2.59h-1.4l-.4-.6c-1.59-2.99-3.59-4.58-6.38-4.58-1.59,0-2.79.6-2.79.6l-1.2.6-.4-1.2c-.6-1.4-1.59-2.19-2.99-2.19-3.39,0-7.97,3.79-9.57,5.18l-1.4,1.2-.4-1.99c-.4-1.79-1.2-1.79-1.4-1.79-2.59,0-7.37,5.58-9.96,9.17l-1.2,1.59-.8-1.79c-.6-1.4-1.4-1.59-1.99-1.59h-.4c-1.2,1.59-2.99,2.99-5.58,3.99,0,1.99-.8,5.98-6.58,8.97.4,1.99.4,6.18-4.38,12.16l-.2.2s-6.38,5.18-11.36,10.16c-1,1-1.79,1.99-2.59,2.99,0,0,0,.2-.2.2,0,0,0,.2-.2.2,1.79-.8,3.99-1.79,6.18-2.59,7.37-2.59,15.54-4.38,16.74-4.78"/>
    <path class="st1" d="M494.22,138.9c3.99-3.79,7.97-6.97,8.57-7.57,5.38-6.97,3.59-10.36,3.59-10.56l-.6-1v-.2l.2-.2,1-.4c1.99-1,3.19-1.99,4.18-2.99,1.59-1.79,1.99-3.19,1.99-4.18v-.8l-.2-.8-.2-.4.8-.2.4-.2c2.99-1,4.78-2.59,5.78-4.18,1.59-2.19,1.59-4.18,1.59-4.18v-.8l.8-.2c5.98-2.19,10.16-6.18,10.16-6.38l.2-.2h.4c2.19-.4,4.98-4.98,6.38-8.17-.6-1.2-1.79-1.99-3.39-1.99-2.79,0-5.78,1.79-5.78,1.79l-.6.4-.6-.4c-1.4-1-2.79-1.59-3.99-1.59-2.59,0-4.18,2.19-4.18,2.19l-.8,1-1-.8c-.6-.6-1-.8-1.59-.8-2.79,0-5.98,5.98-6.78,7.97l-.6,1.79-1.2-1.59c-.4-.6-.8-.8-.8-.8-1.79,0-4.18,5.78-5.18,10.96l-.4,1.99-1.4-1.4c-.4-.4-.8-.6-1.2-.6-1.99,11.56-6.97,29.49-9.96,39.26-.2.6-.2,1-.4,1.4.8-.8,1.59-1.79,2.39-2.59.6-.8,1.39-1.59,2.39-2.59"/>
    <path class="st1" d="M462.14,173.97l-.2.2c-4.18,2.99-7.97,4.58-11.16,4.58-2.19,0-3.59-.8-4.38-1.4-1,1.59-1.99,2.99-2.99,4.18.2.2.4.4.6.4l1.59,1.2-1.59,1c-3.99,2.39-9.96,7.17-9.76,9.57,0,.6.6,1,1.4,1.59l1.59.8-1.4,1.2c-1.79,1.79-6.38,6.97-6.18,10.56,0,1,.6,1.99,1.59,2.59l1,.6-.6,1c-.2.2-3.59,5.78,2.19,10.56l.6.4-.2.8s-1.4,6.58,1,9.76c.6.8,1.4,1.4,2.39,1.79,2.79-2.99,6.78-8.17,6.58-10.96v-.8s2.99-6.58,3.39-14.55v-.8l.6-.2c.2-.2,6.18-2.79,6.38-12.16v-1.2h1.2c.2,0,4.98-.4,6.18-10.36l.2-1.59,1.2.4s4.38,1.4,9.96-7.97c.6-1.59,4.58-13.15,8.77-20.92-8.57,6.98-19.73,19.53-19.93,19.73"/>
    <path class="st1" d="M482.26,150.06c-9.96,1.2-25.71,7.37-25.91,7.37h-.2c-1.59.2-3.19.4-4.58.4-7.17,0-10.36-2.79-11.56-4.38-3.19,2.19-6.18,3.19-8.97,3.19-.2,0-.4-.2-.6-.2,0,.6.2,1.2.2,1.79l.6,1.59h-1.59c-3.39,0-12.36.8-14.35,4.38-.6,1-.6,2.39.2,3.99l.6,1.4-1.2.4s-8.97,2.79-11.56,8.17c-.8,1.79-1,3.59-.4,5.58l.2,1-.8.6c-.4.2-6.97,4.78-4.38,15.74l.2.6-.4.6c0,.2-7.97,11.96-3.59,17.94,3.39-1.2,10.56-4.58,12.16-8.97l.2-.2.2-.2s6.38-5.98,11.56-15.94l.4-.8.8.2h.6c2.19,0,7.57-1,12.16-10.56l.6-1.2,1.2.8s.6.4,1.79.4c1,0,2.79-.4,4.98-2.59.4-.2.6-.6,1-1,1.2-1.2,2.39-2.99,3.79-5.18l1-1.59.6,1,.4.8s1,1.59,3.59,1.59,5.78-1.4,9.76-4.18c1-1.2,10.16-11.36,18.13-18.13,1.2-1,2.19-1.79,3.39-2.59.8-.6,1.4-1,2.19-1.4h-.2c-1-.6-1.59-.6-2.19-.4"/>
    <path class="st1" d="M393.38,163.21h.4s7.57-2.19,14.55-7.97l.6-.6.6.4s2.19,1.2,5.18,1.2c3.39,0,6.78-1.4,9.76-4.18l.8-.8.8,1s.8.8,2.19,1.4c.4.2.8.2,1.2.4.4,0,.8.2,1.2.2h.2c2.59,0,5.58-1.2,8.77-3.39l1.2-.8.4,1.4s1.79,4.18,10.16,4.18c1.2,0,2.59,0,4.18-.4,1.4-.4,12.36-4.58,21.72-6.78,1-.2,1.99-.4,2.99-.6h-.2c-2.99-1.2-6.38-2.19-9.37-3.19-5.18-1.4-9.37-2.39-9.37-2.39h-.4c-8.17-3.99-9.76-8.37-10.16-10.76-3.39,0-5.78-.8-7.37-1.79l-.4-.2s-5.78-2.19-10.16-2.19c-1.99,0-3.39.4-3.99,1.2-.6.6-.6,1.4-.6,2.79l.2,1.99-1.79-.8s-7.57-3.19-12.55-3.19c-1.59,0-2.79.4-3.19,1-.4.4-.4,1.4-.2,2.59l.4,1.79-1.79-.4s-2.39-.4-5.18-.4c-4.18,0-7.37,1-8.77,2.59-.8.8-1,1.99-.8,3.39v1.2l-1.2.2c-.2,0-7.57,1-7.17,10.36v.8l-.6.4s-6.38,3.79-7.57,8.57c-.4,1.4-.2,2.59.6,3.99,1,.2,2.99.4,5.38.4,4.38,0,7.57-.8,8.77-2.19l.6-.4Z"/>
    <path class="st1" d="M484.46,146.47c-.8-1-1.79-1.99-2.59-2.99-4.98-5.18-11.16-10.16-11.36-10.16l-.2-.2c-4.78-6.18-4.78-10.36-4.38-12.16-5.78-3.19-6.58-6.97-6.58-8.97-2.59-1-4.38-2.59-5.58-3.99h-.2c-.6,0-1.4.2-1.99,1.59l-.8,1.79-1.2-1.59c-2.59-3.59-7.57-9.17-9.96-9.17-.2,0-1,0-1.4,1.79l-.6,1.99-1.4-1.2c-.2,0-5.78-5.18-9.76-5.18-1.4,0-2.39.6-2.99,2.19l-.4,1.2-1.2-.6s-1.2-.6-2.79-.6c-2.59,0-4.78,1.59-6.38,4.58l-.4.8h-1.39c-1.4,0-6.18.2-8.37,2.59-.6.8-1,1.79-1,2.79,2.19,1.79,6.97,5.38,10.16,5.38.2,0,.6,0,.8-.2h.6s4.18,1.4,9.96,1.4c1.4,0,2.59-.2,3.79-.2l.8-.2.4.6c.2.2,2.99,5.18,9.57,5.18.8,0,1.59,0,2.39-.2l1-.2.2,1.2s.4,1.4,1.59,2.59c.2.2.6.4,1,.8.6.4,1.59.8,2.59,1.2.4,0,.6.2,1,.2,1.2.2,2.39.4,3.99.2h1.4v.4l-.2,1.2v.2c0,.6.4,5.18,8.77,9.17,1.2.2,9.37,1.99,16.54,4.78,2.19.8,4.38,1.59,6.18,2.59v-.2q.4-.2.4-.4"/>
    <path class="st1" d="M475.09,103.43c-.4,0-.8.2-1.4.6l-1.4,1.4-.4-1.99c-1.2-5.18-3.39-10.96-4.78-10.96-.4,0-.8.2-1.2.8l-1.2,1.59-.8-1.79c-.8-2.19-3.99-7.97-6.78-7.97-.6,0-1.2.2-1.59.8l-1,.8-.8-1s-1.59-2.19-4.18-2.19c-1.2,0-2.59.6-3.99,1.59l-.6.4-.6-.4s-2.99-1.79-5.78-1.79c-1.79,0-2.79.6-3.39,1.99,1.59,3.19,4.38,7.77,6.38,8.17h.2l.2.2s4.18,4.18,10.16,6.38l.6.2.2.8c0,.2.2,2.19,1.59,4.18,1,1.59,2.99,3.19,5.78,4.38l.4.2.8.2-.2.4-.2.8v.8c0,.8.4,2.39,1.99,4.18,1,1,2.19,1.99,4.18,2.99l1,.4.2.2v.2l-.8,1.2s-1.79,3.39,3.59,10.36c.8.6,4.58,3.79,8.57,7.57,1,.8,1.79,1.79,2.79,2.79.8.8,1.59,1.79,2.39,2.59-.2-.4-.2-1-.4-1.4-2.39-10.16-7.37-28.1-9.57-39.66"/>
    <path class="st1" d="M497.21,103.63c.2-.6.2-1.4.4-1.99.6-3.39.8-5.58.6-6.58h-1l.2-1.4c.8-8.57.2-15.94-1.4-17.94-.4-.4-.6-.4-.8-.4s-.6.2-.8.2l-1.4.8-.4-1.59c-1.4-6.78-3.79-10.76-5.18-12.55-1.4,1.99-3.99,5.78-5.18,12.55l-.2,1.59-1.4-.8c-.4-.2-.6-.2-.8-.2,0,0-.6,0-.8.4-1.79,2.19-2.39,9.37-1.4,17.94l.2,1.4h-.8c-.2,1,0,3.39.6,6.58,0,.6.2,1.2.4,1.99.2,1,.4,1.99.6,3.19,1.79,8.17,4.58,19.53,7.97,30.89,0,.2.2.6.2.8.4,1.2.6,2.19,1,3.39v.4c0-.2.2-.4.2-.4.2-1.2.6-2.19,1-3.39,0-.2.2-.6.2-.8,3.19-11.36,6.18-22.72,7.97-30.89-.4-1.2-.2-2.39,0-3.19"/>
    <path class="st1" d="M523.92,333.4h-30.69l5.78-28.7-5.18-5.18,6.58-26.11-5.18-2.59,6.78-28.5-6.18-4.58,5.38-24.31-6.18-3.39,3.79-21.52-5.18-3.39.8-23.32s-2.19-7.37-7.37-11.76h0c-4.98,3.99-7.17,10.56-7.37,11.56v.2l.8,23.32-5.18,3.39,3.99,21.52-6.18,3.39,5.38,24.31-6.18,4.58,6.78,28.5-5.18,2.59,6.58,26.11-5.18,5.18,6.58,28.9h-31.29s-3.99,1.79-2.59,4.78c1.4,2.99,17.34,19.13,18.73,18.33,1.2-.8,1.2-6.78,2.19-7.97.6-.8,5.18,6.38,8.37,7.97,0,0,5.18-3.79,9.96-6.78,4.78,2.99,7.97,6.78,7.97,6.78,3.19-1.79,9.76-8.97,10.56-8.17.8,1.2.8,7.17,2.19,7.97,1.4.8,17.34-15.34,18.73-18.33,1.2-3.19-2.79-4.78-2.79-4.78"/>
    <path class="st1" d="M400.16,348.35c-21.92-12.36-70.35-26.31-108.81-11.96,0,0,51.22-4.38,119.17,40.85,50.82,33.68,99.84,81.51,109.21,90.87l13.75-13.55c-54.6-58.59-111.4-93.86-133.32-106.22"/>
    <path class="st1" d="M599.84,462.14s-7.17-8.37-15.34-.2c-7.17,7.17-12.16,9.37-19.13,9.37-9.37.2-20.92-5.18-23.71-11.16,0,0-.8-2.19.6-4.38,1.99.4,4.18,0,5.98-1.59,2.79-2.39,3.19-6.38,1.2-8.77-2.19-2.59-6.18-2.59-8.97,0-2.19,1.99-2.99,4.98-1.99,7.37-.2.8-.8,1.4-1.59,2.19,0-.4,0-1-.4-1.4-.6-.6-1.4-.6-1.99,0l-1,1-13.75,13.55-2.19,2.19c-.6.6-.6,1.4,0,1.99.2.2.4.4.6.4-.2,0-.4.2-.6.2-1.59,0-3.59.6-4.98,1.79-2.79,2.39-3.19,6.38-1,8.97,2.19,2.39,6.18,2.39,8.97,0,1.79-1.59,2.59-3.79,2.39-5.98.4-1.4.8-2.79,1.59-3.19,1.59-.8,2.79,0,4.58,1.99,4.58,5.58,22.72,17.74,42.85,17.34,15.94-.4,39.26-15.15,27.9-31.69"/>
    <path class="st1" d="M574.53,348.35c21.92-12.36,70.35-26.31,108.81-11.96,0,0-51.22-4.38-119.17,40.85-50.82,33.68-99.84,81.51-109.21,90.87l-13.75-13.55c54.6-58.59,111.4-93.86,133.32-106.22"/>
    <path class="st1" d="M374.85,462.14s7.17-8.37,15.34-.2c7.17,7.17,11.96,9.37,19.13,9.37,9.17.2,20.73-5.18,23.52-11.16,0,0,.8-2.19-.6-4.38-1.99.4-4.18,0-5.98-1.59-2.79-2.39-3.19-6.38-1-8.77,2.19-2.59,6.18-2.59,8.97,0,2.19,1.99,2.99,4.98,1.99,7.37.4.8.8,1.4,1.59,2.19,0-.4,0-1,.4-1.4.6-.6,1.4-.6,1.99,0l1,1,13.75,13.55,2.39,2.19c.6.6.6,1.4,0,1.99-.2.2-.4.4-.6.4.2,0,.4.2.6.2,1.79,0,3.59.6,4.98,1.79,2.79,2.39,3.19,6.38,1,8.97-2.19,2.39-6.18,2.39-8.97,0-1.79-1.59-2.59-3.79-2.39-5.98-.2-1.4-.8-2.79-1.59-3.19-1.59-.8-2.79,0-4.38,1.99-4.58,5.58-22.72,17.74-42.65,17.34-16.74-.4-39.86-15.15-28.5-31.69"/>
  </g>
  <polygon class="st2" points="460.74 860.7 477.08 870.87 484.26 858.71 467.92 849.14 460.74 860.7"/>
  <g>
    <polygon class="st2" points="67.96 745.72 84.5 755.68 91.67 743.92 74.33 733.56 68.75 742.73 52.61 732.56 45.44 744.92 62.97 755.08 67.96 745.72"/>
    <path class="st2" d="M96.65,795.54c0-4.78-1.79-8.97-5.58-12.36-1.2-1-3.99-3.39-8.57-6.58-4.18-2.99-6.97-5.58-8.57-7.57l-13.75,17.94c-10.76,14.15-16.14,24.51-16.14,31.29,0,4.58,2.19,7.77,6.78,9.76,3.59,1.59,7.77,2.19,12.55,1.59,7.37-.8,13.75-3.39,18.93-7.57,2.79-1.99,5.58-4.98,8.37-8.77,3.99-8.17,5.98-14.15,5.98-17.74ZM81.51,810.68c-5.78,2.39-11.36,3.59-16.54,3.59-5.78,0-8.57-2.39-8.57-7.17,0-1.4.4-2.99,1.2-4.58,4.38-6.38,8.17-11.56,11.36-15.54,10.56,6.58,16.14,12.36,16.34,17.54.2,2.39-1,4.58-3.79,6.18Z"/>
    <path class="st2" d="M142.89,779.2c-1.99,8.77-3.19,14.75-3.99,18.13,13.35,9.57,19.93,17.14,19.93,22.72,0,7.77-5.38,16.74-16.34,27.3s-20.13,15.74-27.9,15.74c-3.59,0-8.17-1.2-13.95-3.59s-8.97-3.59-9.37-3.59c-.8,0-1.2.4-1.2,1.2,0,2.59,5.38,5.98,16.14,10.16,9.96,3.79,17.14,5.58,21.32,5.58,8.57,0,16.74-5.58,24.31-16.74,8.57-12.16,12.75-23.52,12.75-34.08,0-11.16-2.19-20.33-6.58-27.5-3.19-4.78-8.17-9.76-15.15-15.34Z"/>
    <path class="st2" d="M381.23,786.97h0q.4,0,0,0Z"/>
    <polygon class="st2" points="412.52 751.5 429.26 761.46 436.43 749.7 419.09 739.34 413.51 748.51 397.37 738.34 390.2 750.7 407.33 760.66 412.52 751.5"/>
    <path class="st2" d="M489.64,734.76c-4.18-2.19-8.57-4.58-12.95-6.97-1.2-.6-1.79-1.4-1.79-2.39,0-.6.2-1.4.8-2.59.6-1.2.8-1.99.8-2.59s-.4-1.2-1.4-1.4c-.6-.6-1.79.4-3.19,2.99l-7.77,13.55c-.6,1.2-1,2.39-1,3.59,0,1.79,1,3.19,2.79,4.38l1,.4c5.78,34.68,8.77,57.19,8.77,67.16,0,2.39-.2,3.59-.6,3.59h-37.66c-1.79,0-2.79-.6-2.99-1.79,0-.2.2-1.59.6-4.38,2.19-12.36,3.39-21.72,3.39-28.1,0-1,0-1.59-.2-1.79-5.78,6.38-10.16,11.76-13.55,16.34l-.4,19.73h-73.73l-1.59-1c-2.59-1.79-3.79-4.18-3.79-7.17,5.78-2.79,13.75-4.18,24.11-4.18,2.19,0,3.99,0,5.38.2,2.99-6.78,5.18-11.96,6.38-15.54-.8,0-2.39,0-5.18.2h-4.98c-7.57,0-19.53-2.39-35.87-7.17-10.96-3.19-18.93-4.98-23.91-4.98-8.77,0-15.54,5.58-20.33,16.74-1,2.59-1.59,4.78-1.59,6.58.2.2.2.4.2.6,6.97-5.18,12.55-7.77,16.74-7.77l8.17,1.79c11.36,2.39,19.93,4.18,25.71,5.38-13.35,10.96-25.51,16.34-36.47,16.34h-90.47c-3.79,0-6.58-.8-7.97-2.39-.6-.6-1.2-1.2-1.4-1.4-.8-1.79-2.39-15.34-4.78-40.65l-4.78-56.4c-4.38,5.98-7.77,10.36-9.76,13.15,2.99,32.48,5.58,66.76,7.57,102.83h111.2c6.97,0,12.75-2.19,17.34-6.78,1.79-1.79,4.98-3.99,9.17-6.78,4.38-2.79,7.37-4.98,9.17-6.97.8,6.38,1.4,10.36,1.99,12.16,1.4,5.38,3.79,8.17,7.37,8.17h67.36c.8,0,2.19-1.59,3.99-4.58s2.99-4.58,3.39-4.58c.4.2,1,1.2,1.99,3.19s1.79,3.19,2.59,3.79c1.99,1.4,3.99,1.99,5.98,1.99h43.84c1.4,0,2.99-3.99,4.38-11.76,1.4-7.37,1.99-12.95,1.99-16.74l-4.98-50.22c.6.2,1.2.4,2.19.6l8.77-16.34Z"/>
    <path class="st2" d="M522.32,713.83c-7.97,13.15-11.76,21.72-11.16,25.91,3.99,37.47,7.17,69.35,9.37,95.86,4.78-11.76,6.97-20.33,6.97-25.71l-1.99-47.63c-1.59-31.29-2.59-47.43-3.19-48.43Z"/>
    <polygon class="st2" points="616.78 745.72 633.32 755.68 640.5 743.92 623.36 733.56 617.58 742.73 601.64 732.56 594.26 744.92 611.8 755.08 616.78 745.72"/>
    <path class="st2" d="M645.48,795.54c0-4.78-1.79-8.97-5.58-12.36-1.2-1-3.99-3.39-8.57-6.58-4.18-2.99-6.97-5.58-8.57-7.57l-13.75,17.94c-10.76,14.15-16.14,24.51-16.14,31.29,0,4.58,2.19,7.77,6.78,9.76,3.59,1.59,7.77,2.19,12.55,1.59,7.37-.8,13.75-3.39,18.93-7.57,2.79-1.99,5.58-4.98,8.37-8.77,3.99-8.17,5.98-14.15,5.98-17.74ZM630.53,810.68c-5.78,2.39-11.36,3.59-16.54,3.59-5.78,0-8.57-2.39-8.57-7.17,0-1.4.4-2.99,1.2-4.58,4.38-6.38,8.17-11.56,11.36-15.54,10.56,6.58,16.14,12.36,16.34,17.54,0,2.39-1.2,4.58-3.79,6.18Z"/>
    <path class="st2" d="M691.71,779.2c-1.99,8.77-3.19,14.75-3.99,18.13,13.35,9.57,19.93,17.14,19.93,22.72,0,7.77-5.38,16.74-16.34,27.3-10.96,10.56-20.13,15.74-27.9,15.74-3.59,0-8.17-1.2-13.95-3.59s-8.97-3.59-9.37-3.59c-.8,0-1.2.4-1.2,1.2,0,2.59,5.38,5.98,16.14,10.16,9.96,3.79,17.14,5.58,21.32,5.58,8.57,0,16.74-5.58,24.51-16.74,8.57-12.16,12.75-23.52,12.75-34.08,0-11.16-2.19-20.33-6.58-27.5-3.39-4.78-8.37-9.76-15.34-15.34Z"/>
    <path class="st2" d="M746.91,713.83c-7.97,13.15-11.76,21.72-11.16,25.91,3.99,37.47,7.17,69.35,9.37,95.86,4.78-11.76,6.97-20.33,6.97-25.71l-1.99-47.63c-1.4-31.29-2.59-47.43-3.19-48.43Z"/>
    <path class="st2" d="M822.84,794.54c-2.99-4.78-7.97-9.96-14.95-15.34-1.99,8.77-3.19,14.75-3.99,18.13,13.35,9.57,19.93,17.14,19.93,22.72,0,7.77-5.38,16.74-16.34,27.3-10.96,10.56-20.13,15.74-27.9,15.74-3.59,0-8.17-1.2-13.95-3.59s-8.97-3.59-9.37-3.59c-.8,0-1.2.4-1.2,1.2,0,2.59,5.38,5.98,16.14,10.16,9.96,3.79,17.14,5.58,21.32,5.58,8.57,0,16.74-5.58,24.51-16.74,8.57-12.16,12.75-23.52,12.75-34.08-.4-10.96-2.59-20.13-6.97-27.5Z"/>
    <polygon class="st2" points="810.68 747.51 793.94 737.55 786.57 749.5 803.51 759.67 810.68 747.51"/>
    <path class="st2" d="M894.58,784.18c-3.99-7.77-7.37-11.56-10.36-11.56-4.38,0-9.37,4.58-15.15,13.75-5.38,8.77-7.97,15.54-7.77,20.33,0,4.58,1,8.57,2.59,11.96,2.19,4.38,5.18,6.78,9.37,6.97,4.78.4,8.17,0,10.36-1.2,3.39-1.99,6.78-6.38,9.96-13.55.8,2.39,1.2,5.38,1.2,9.17.2,7.77-4.58,16.34-14.15,25.71-8.77,8.57-18.13,14.55-27.5,18.13-1.99.6-3.99,1-6.58,1-2.19,0-5.58-.6-9.96-1.59-4.38-1.2-7.77-1.59-9.76-1.59-1.4,0-2.19.6-2.19,1.59,0,1.99,5.58,3.99,16.94,6.58,8.97,1.99,15.94,2.99,20.92,3.39,5.78.4,11.56-2.39,17.74-8.37,4.98-4.78,8.97-10.36,11.96-16.74,5.78-12.16,8.77-25.31,8.77-39.26,0-8.57-1.99-16.74-6.38-24.71ZM880.83,809.69c-2.79,0-5.58-.6-8.37-1.59-3.59-1.4-5.38-3.19-5.58-5.58,0-2.19,1.4-4.78,4.38-7.77s5.38-4.38,7.57-4.38c2.99.2,5.58,2.19,7.97,6.18,1.99,3.59,2.99,7.17,2.99,10.36-1.2,1.99-4.38,2.79-8.97,2.79Z"/>
  </g>
  <g>
    <polygon class="st2" points="13.55 905.94 33.68 959.15 54.21 905.94 67.76 905.94 67.76 976.49 56 976.49 56 927.86 37.27 976.49 29.49 976.49 11.76 927.86 11.76 976.49 0 976.49 0 905.94 13.55 905.94"/>
    <path class="st2" d="M88.68,915.9h-11.76v-9.96h11.56l.2,9.96h0ZM88.68,976.49h-11.76v-51.02h11.56l.2,51.02h0Z"/>
    <path class="st2" d="M96.85,925.47h11.76v4.18c2.19-1.59,4.58-2.99,7.17-3.79,2.59-.8,5.18-1.2,7.97-1.2,2.59,0,4.98.4,7.17,1,2.19.8,3.79,1.79,5.38,3.19,1.4,1.4,2.59,2.99,3.39,4.98s1.2,3.99,1.2,6.38v36.27h-11.56v-35.27c0-2.99-.6-5.18-1.79-6.58-1.2-1.2-2.79-1.99-4.98-1.99-1.99,0-3.79.4-5.38,1.2-1.59.8-3.19,1.79-4.38,2.99s-2.19,2.59-2.99,4.18-1,3.19-1,4.98v30.49h-11.96v-51.02h0Z"/>
    <path class="st2" d="M161.42,915.9h-11.56v-9.96h11.56v9.96ZM161.42,976.49h-11.56v-51.02h11.56v51.02Z"/>
    <path class="st2" d="M181.55,959.55c0,1.79.4,3.39.8,4.58.6,1.2,1.2,2.19,1.99,2.99s1.79,1.4,2.79,1.79c1.2.4,2.39.6,3.59.6,1,0,2.19-.2,3.39-.4,1.2-.2,2.19-.6,3.19-1s1.79-1.2,2.39-2.19c.6-.8,1-1.99,1-3.39,0-1.2-.4-2.19-1-3.19-.6-.8-1.4-1.59-2.39-2.19s-2.19-1.2-3.59-1.79c-1.4-.6-2.79-1-4.18-1.59-2.19-.8-4.38-1.59-6.58-2.39s-4.18-1.79-5.78-2.99c-1.79-1.2-3.19-2.59-4.18-4.18-1.2-1.59-1.59-3.59-1.59-5.98s.6-4.38,1.59-5.98,2.39-3.19,4.18-4.18c1.79-1.2,3.79-1.99,6.18-2.59s4.78-.8,7.37-.8c2.79,0,5.38.2,7.97.8,2.39.6,4.58,1.59,6.38,2.79,1.79,1.2,3.19,2.79,4.38,4.78,1,1.99,1.59,4.18,1.79,6.78h-11.56c-.2-1.4-.6-2.39-1-3.39-.6-.8-1.2-1.59-1.99-2.19s-1.59-1-2.59-1.2-1.99-.4-3.19-.4c-2.39,0-4.38.6-5.58,1.59-1.4,1-1.99,2.39-1.99,3.99,0,1.2.4,1.99,1,2.99.6.8,1.4,1.59,2.39,2.19s2.19,1.2,3.59,1.79c1.4.6,2.79,1,4.18,1.59,2.19.8,4.38,1.59,6.58,2.39s4.18,1.79,5.78,2.99c1.79,1.2,3.19,2.39,4.18,3.99s1.59,3.39,1.59,5.38c0,2.79-.6,5.18-1.79,7.17s-2.79,3.59-4.78,4.98c-1.99,1.2-4.38,2.19-6.97,2.79-2.59.6-5.38.8-8.37.8-2.79,0-5.58-.4-7.97-1.2-2.59-.8-4.78-1.79-6.58-3.39-1.99-1.4-3.39-3.39-4.58-5.58s-1.79-4.78-1.99-7.77l11.96.2h0Z"/>
    <path class="st2" d="M235.95,910.92v14.55h7.57v7.97h-7.57v31.09c0,1.79.4,3.19,1,3.79.6.6,1.4,1,2.39,1,.4,0,1,0,1.79-.2s2.19-.4,3.79-.6v7.57c-1.4.4-2.79.6-4.38.8-1.4.2-2.79.4-3.99.4-1.59,0-3.19-.2-4.58-.6-1.4-.4-2.79-1-3.79-1.79-1.2-.8-1.99-1.99-2.59-3.19-.6-1.4-1-2.99-1-4.78v-33.68h-8.17v-7.97h7.57v-14.55l11.96.2h0Z"/>
    <path class="st2" d="M251.3,925.47h10.36l.6,4.58c1.4-1.79,2.99-3.19,4.98-3.99,1.99-1,3.79-1.4,5.98-1.4.6,0,1.4.2,2.39.4,1,.2,1.99.4,2.99.8v9.57c-3.19-1.2-5.18-1.79-5.78-1.79-1.59,0-2.99.4-4.18,1s-2.39,1.59-3.19,2.79c-.8,1.2-1.59,2.39-1.99,3.99s-.6,2.99-.6,4.78v30.49h-11.56v-51.22h0Z"/>
    <path class="st2" d="M304.31,960.34l11.96-34.87h11.96l-21.52,61.38c-.8,1.99-1.59,3.79-2.59,5.18-1,1.4-2.19,2.59-3.39,3.39s-2.39,1.59-3.79,1.99c-1.2.4-2.59.6-3.79.6-1,0-2.19,0-3.39-.2s-2.59-.6-4.18-1.2v-8.57c.6.2,1.2.4,1.79.6s1.2.4,1.99.8c.6.2,1.2.4,1.59.6.6.2.8.2,1.2.2s.8-.2,1.2-.8c.4-.4.8-1,1.2-1.79s.6-1.4,1-2.19c.4-.8.6-1.4.8-2.19l2.19-6.78-18.73-50.82h12.36l12.16,34.68Z"/>
    <path class="st2" d="M353.33,950.98c0-3.59.6-6.97,1.59-10.16s2.59-5.98,4.78-8.37c1.99-2.39,4.58-4.38,7.57-5.58,2.99-1.4,6.58-1.99,10.56-1.99s7.37.6,10.56,1.99c2.99,1.4,5.58,3.19,7.77,5.58s3.79,5.18,4.78,8.37c1,3.19,1.59,6.58,1.59,10.16s-.6,6.97-1.59,10.16-2.59,5.98-4.78,8.37c-2.19,2.39-4.78,4.18-7.77,5.58s-6.58,1.99-10.56,1.99-7.37-.6-10.56-1.99c-2.99-1.4-5.58-3.19-7.57-5.58s-3.59-5.18-4.78-8.37c-1-2.99-1.59-6.38-1.59-10.16M364.89,950.98c0,2.59.2,4.98.8,7.17s1.4,4.18,2.59,5.78c1.2,1.59,2.39,2.99,3.99,3.99s3.39,1.4,5.38,1.4,3.79-.4,5.38-1.4c1.59-1,2.99-2.19,4.18-3.99,1.2-1.59,1.99-3.59,2.59-5.78.6-2.19,1-4.58,1-7.17,0-2.39-.4-4.78-1-7.17-.6-2.19-1.4-4.18-2.59-5.78-1.2-1.59-2.59-2.99-4.18-3.99-1.59-1-3.39-1.4-5.38-1.4s-3.79.4-5.38,1.4c-1.59,1-2.99,2.19-3.99,3.99-1.2,1.59-1.99,3.59-2.59,5.78-.4,2.39-.8,4.78-.8,7.17"/>
    <path class="st2" d="M416.1,925.47v-11.16c0-1.59.2-2.79.8-4.18.6-1.2,1.4-2.39,2.59-3.39,1.2-1,2.39-1.59,3.99-2.19s3.39-.8,5.38-.8c1.2,0,2.39.2,3.99.6s2.99,1.2,4.38,1.99v7.77c-1.59-.6-2.99-1.2-4.18-1.59-1-.4-1.59-.6-1.79-.6-1,0-1.79.2-2.39.8-.6.6-1,1.59-1,2.79v9.96h8.57v8.17h-8.57v42.85h-11.76v-42.85h-8.37v-8.17h8.37Z"/>
    <path class="st2" d="M476.49,940.22c0,5.18.6,9.57,1.79,13.35,1.2,3.79,2.79,6.97,4.78,9.37,1.99,2.39,4.38,4.38,6.78,5.58,2.59,1.2,5.18,1.79,7.77,1.79s5.18-.6,7.37-1.59c2.19-1,3.99-2.59,5.78-4.38,1.59-1.79,2.99-3.79,3.99-6.18,1-2.19,1.79-4.58,2.39-6.97h11.76c-.8,3.79-1.99,7.37-3.59,10.56-1.59,3.39-3.79,6.18-6.38,8.57s-5.78,4.38-9.17,5.78c-3.59,1.4-7.57,2.19-11.96,2.19-4.98,0-9.57-.8-13.55-2.59-3.99-1.79-7.57-4.18-10.36-7.57-2.79-3.19-5.18-7.37-6.58-11.96-1.59-4.78-2.39-10.16-2.39-16.14,0-2.99.4-6.18,1-9.17s1.59-5.78,2.99-8.57c1.2-2.59,2.79-5.18,4.78-7.37,1.79-2.19,3.99-4.18,6.58-5.98,2.39-1.59,5.18-2.99,8.17-3.79,2.99-1,6.18-1.4,9.76-1.4,4.38,0,8.37.6,11.96,1.79,3.39,1.2,6.58,2.79,9.17,4.98,2.59,1.99,4.78,4.58,6.58,7.37,1.79,2.79,2.99,5.98,3.99,9.37h-11.96c-1.79-5.18-4.38-8.97-7.57-11.56s-7.17-3.79-12.16-3.79c-3.19,0-5.98.8-8.57,2.19-2.59,1.59-4.78,3.59-6.78,6.18-1.79,2.59-3.39,5.58-4.38,8.97-1.59,3.59-1.99,7.17-1.99,10.96"/>
    <path class="st2" d="M536.47,950.98c0-3.59.6-6.97,1.59-10.16s2.59-5.98,4.78-8.37c1.99-2.39,4.58-4.38,7.57-5.58,2.99-1.4,6.58-1.99,10.56-1.99s7.37.6,10.56,1.99c2.99,1.4,5.58,3.19,7.77,5.58,2.19,2.39,3.79,5.18,4.78,8.37,1,3.19,1.59,6.58,1.59,10.16s-.6,6.97-1.59,10.16-2.59,5.98-4.78,8.37c-2.19,2.39-4.78,4.18-7.77,5.58s-6.58,1.99-10.56,1.99-7.37-.6-10.56-1.99c-2.99-1.4-5.58-3.19-7.57-5.58s-3.59-5.18-4.78-8.37c-1-2.99-1.59-6.38-1.59-10.16M548.23,950.98c0,2.59.2,4.98.8,7.17s1.4,4.18,2.59,5.78c1.2,1.59,2.39,2.99,3.99,3.99s3.39,1.4,5.38,1.4,3.79-.4,5.38-1.4,2.99-2.19,4.18-3.99c1.2-1.59,1.99-3.59,2.59-5.78.6-2.19,1-4.58,1-7.17,0-2.39-.4-4.78-1-7.17-.6-2.19-1.4-4.18-2.59-5.78-1.2-1.59-2.59-2.99-4.18-3.99-1.59-1-3.39-1.4-5.38-1.4s-3.79.4-5.38,1.4c-1.59,1-2.99,2.19-3.99,3.99-1.2,1.59-1.99,3.59-2.59,5.78-.6,2.39-.8,4.78-.8,7.17"/>
    <path class="st2" d="M593.66,925.47h11.56v3.79c1.99-1.59,4.18-2.79,6.58-3.59,2.39-.8,4.58-1,6.78-1,2.59,0,4.78.6,7.17,1.59,2.19,1,4.18,2.79,5.98,5.18,1-1.2,2.19-2.19,3.39-2.99,1.2-.8,2.59-1.59,3.99-2.19s2.79-1,4.18-1.2,2.79-.4,4.18-.4c2.59,0,4.98.4,7.17,1.2,2.19.8,3.99,1.99,5.58,3.39s2.79,2.99,3.59,4.98c.8,1.99,1.4,3.99,1.4,6.18v36.07h-11.56v-34.08c0-1.99-.2-3.39-.8-4.78-.4-1.2-1-2.19-1.79-2.99s-1.59-1.2-2.39-1.59c-.8-.2-1.79-.4-2.59-.4-1.2,0-2.59.4-3.79,1-1.2.6-2.39,1.59-3.39,2.59-1,1.2-1.79,2.39-2.59,3.99-.6,1.59-1,3.19-1,4.98v31.09h-11.56v-34.08c0-1.99-.2-3.39-.6-4.78-.4-1.2-1-2.19-1.79-2.99-.6-.8-1.4-1.2-2.19-1.59-.8-.2-1.59-.4-2.39-.4-1.59,0-3.19.4-4.58,1.2-1.4.8-2.59,1.99-3.59,3.19s-1.79,2.79-2.39,4.18c-.6,1.59-.8,2.99-.8,4.38v30.69h-11.56v-50.62h-.2Z"/>
    <path class="st2" d="M673.98,925.47h11.56v3.79c1.99-1.59,4.18-2.79,6.58-3.59,2.39-.8,4.58-1,6.78-1,2.59,0,4.78.6,7.17,1.59,2.19,1,4.18,2.79,5.98,5.18,1-1.2,2.19-2.19,3.39-2.99,1.2-.8,2.59-1.59,3.99-2.19s2.79-1,4.18-1.2,2.79-.4,4.18-.4c2.59,0,4.98.4,7.17,1.2,2.19.8,3.99,1.99,5.58,3.39s2.79,2.99,3.59,4.98c.8,1.99,1.4,3.99,1.4,6.18v36.07h-11.56v-34.08c0-1.99-.2-3.39-.8-4.78-.4-1.2-1-2.19-1.79-2.99s-1.59-1.2-2.39-1.59c-.8-.2-1.79-.4-2.59-.4-1.2,0-2.59.4-3.79,1-1.2.6-2.39,1.59-3.39,2.59-1,1.2-1.79,2.39-2.59,3.99-.6,1.59-1,3.19-1,4.98v31.09h-11.56v-34.08c0-1.99-.2-3.39-.6-4.78-.4-1.2-1-2.19-1.79-2.99-.6-.8-1.4-1.2-2.19-1.59-.8-.2-1.59-.4-2.39-.4-1.59,0-3.19.4-4.58,1.2-1.4.8-2.59,1.99-3.59,3.19s-1.79,2.79-2.39,4.18c-.6,1.59-.8,2.99-.8,4.38v30.69h-11.56v-50.62h-.2Z"/>
    <path class="st2" d="M766.04,953.17c.2,2.19.6,4.18,1.2,6.18s1.59,3.79,2.79,5.18c1.2,1.59,2.39,2.79,3.99,3.59,1.59.8,3.19,1.4,4.98,1.4,5.78,0,9.96-3.19,12.16-9.76h10.76c-.6,2.79-1.59,5.38-3.19,7.57-1.4,2.19-3.19,4.18-5.38,5.58-1.99,1.59-4.38,2.59-6.97,3.59-2.59.8-5.18,1.2-7.77,1.2-3.79,0-7.17-.8-10.36-2.19-2.99-1.4-5.58-3.39-7.77-5.98-2.19-2.59-3.79-5.38-4.98-8.57s-1.79-6.78-1.79-10.36c0-3.39.6-6.78,1.79-9.76,1.2-3.19,2.79-5.78,4.98-8.17,2.19-2.39,4.78-4.18,7.77-5.58s6.58-2.19,10.36-2.19c3.59,0,6.97.6,9.96,1.79,2.99,1.2,5.38,2.99,7.57,5.18,1.99,2.19,3.59,4.78,4.78,7.77,1.2,2.99,1.59,6.38,1.59,9.96v3.79l-36.47-.2h0ZM790.95,946c-.2-1.99-.4-3.59-1-5.18s-1.4-2.99-2.59-4.18c-1-1.2-2.39-2.19-3.79-2.79-1.59-.6-3.19-1-4.98-1-1.59,0-3.19.4-4.58,1-1.4.8-2.59,1.59-3.79,2.79-1,1.2-1.99,2.59-2.59,4.18s-1,3.19-1.2,4.98l24.51.2h0Z"/>
    <path class="st2" d="M810.09,925.47h10.36l.6,4.58c1.4-1.79,2.99-3.19,4.98-3.99,1.99-1,3.79-1.4,5.98-1.4.6,0,1.4.2,2.39.4,1,.2,1.99.4,2.99.8v9.57c-3.19-1.2-5.18-1.79-5.78-1.79-1.59,0-2.99.4-4.18,1s-2.39,1.59-3.19,2.79c-.8,1.2-1.59,2.39-1.99,3.99s-.6,2.99-.6,4.78v30.49h-11.56v-51.22h0Z"/>
    <path class="st2" d="M877.04,942.41c-1-3.59-2.19-5.98-3.99-7.37-1.59-1.4-3.79-2.19-6.38-2.19-1.99,0-3.59.4-5.18,1.4s-2.79,2.19-3.79,3.79c-1,1.59-1.79,3.39-2.39,5.58s-.8,4.38-.8,6.58c0,2.39.2,4.78.8,7.17.6,2.39,1.4,4.38,2.39,6.18,1,1.79,2.39,3.19,3.79,4.38,1.4,1.2,3.19,1.59,4.98,1.59,1.4,0,2.59-.4,3.79-1,1.2-.6,2.19-1.4,2.99-2.59.8-1,1.59-2.39,2.19-3.79s1-2.99,1.4-4.58h12.16c-.4,3.19-1.2,5.98-2.39,8.37-1.2,2.39-2.79,4.58-4.78,6.38s-4.18,2.99-6.97,3.99c-2.59,1-5.58,1.4-8.77,1.4-3.99,0-7.57-.8-10.56-2.39s-5.38-3.79-7.17-6.38c-1.99-2.59-3.39-5.58-4.18-8.77-.8-3.19-1.4-6.58-1.4-9.76,0-3.59.6-6.97,1.79-9.96,1.2-3.19,2.79-5.78,4.78-8.17,1.99-2.19,4.58-4.18,7.57-5.38,2.99-1.4,6.18-1.99,9.76-1.99,3.19,0,6.18.4,8.57,1.4,2.59.8,4.78,2.19,6.58,3.79,1.79,1.59,3.39,3.39,4.58,5.58,1.2,2.19,1.99,4.58,2.59,6.97l-11.96-.2h0Z"/>
    <path class="st2" d="M908.53,953.17c.2,2.19.6,4.18,1.2,6.18s1.59,3.79,2.79,5.18c1.2,1.59,2.39,2.79,3.99,3.59,1.59.8,3.19,1.4,4.98,1.4,5.78,0,9.96-3.19,12.16-9.76h10.76c-.6,2.79-1.59,5.38-3.19,7.57-1.4,2.19-3.19,4.18-5.38,5.58-1.99,1.59-4.38,2.59-6.97,3.59-2.59.8-5.18,1.2-7.77,1.2-3.79,0-7.17-.8-10.36-2.19-2.99-1.4-5.58-3.39-7.77-5.98-2.19-2.59-3.79-5.38-4.98-8.57s-1.79-6.78-1.79-10.36c0-3.39.6-6.78,1.79-9.76,1.2-3.19,2.79-5.78,4.98-8.17,2.19-2.39,4.78-4.18,7.77-5.58s6.58-2.19,10.36-2.19c3.59,0,6.97.6,9.96,1.79,2.99,1.2,5.38,2.99,7.57,5.18,1.99,2.19,3.59,4.78,4.78,7.77,1.2,2.99,1.59,6.38,1.59,9.96v3.79l-36.47-.2h0ZM933.44,946c-.2-1.99-.4-3.59-1-5.18s-1.4-2.99-2.59-4.18c-1-1.2-2.39-2.19-3.79-2.79-1.59-.6-3.19-1-4.98-1-1.59,0-3.19.4-4.58,1-1.4.8-2.59,1.59-3.79,2.79-1,1.2-1.99,2.59-2.59,4.18s-1,3.19-1.2,4.98l24.51.2h0Z"/>
  </g>
</svg>