<svg version="1.2" xmlns="http://www.w3.org/2000/svg" viewBox="0 0 403 405" width="403" height="405"><style>.a{fill:#4644b8}.b{fill:#d8e530}</style><path class="a" d="m202 3.5c-109.6 0-198.5 88.9-198.5 198.5 0 109.6 88.9 198.5 198.5 198.5 109.6 0 198.5-88.9 198.5-198.5 0-109.6-88.9-198.5-198.5-198.5zm38.8 132.8l41.6-41.8c3.4-3.4 8.9-3.4 12.3 0l15 14.9c3.4 3.4 3.4 8.9 0 12.3l-41.6 41.8c-7.5 7.5-19.7 7.6-27.3 0-7.5-7.5-7.5-19.7 0-27.2zm-112.6 84.9l-59 0.2c-4.8 0-8.7-3.9-8.7-8.7l-0.1-21.1c0-4.8 3.9-8.7 8.7-8.8l58.9-0.2c10.7 0 19.3 8.6 19.4 19.3 0 10.6-8.6 19.3-19.2 19.3zm35.5-58.1c-7.6 7.5-19.8 7.5-27.3-0.1l-41.6-41.7c-3.4-3.4-3.4-9 0-12.4l15-14.9c3.4-3.4 8.9-3.4 12.3 0.1l41.6 41.7c7.5 7.5 7.5 19.7 0 27.3zm49 180.4l-21.1 0.1c-4.8 0-8.7-3.9-8.8-8.7l-0.2-58.9c0-10.7 8.6-19.3 19.3-19.4 10.6 0 19.3 8.6 19.3 19.2l0.2 59c0 4.8-3.9 8.7-8.7 8.7zm-10.5-196.1c-10.7 0-19.3-8.6-19.4-19.2l-0.2-59c0-4.8 3.9-8.7 8.7-8.7l21.1-0.1c4.8 0 8.8 3.9 8.8 8.7l0.2 58.9c0 10.7-8.6 19.3-19.2 19.4zm107 147.7l-15 14.8c-3.4 3.4-8.9 3.4-12.3 0l-41.6-41.7c-7.5-7.6-7.5-19.8 0-27.3 7.6-7.5 19.8-7.5 27.3 0.1l41.6 41.7c3.4 3.4 3.4 9 0 12.4zm25.7-73.9l-58.9 0.2c-10.7 0-19.3-8.6-19.4-19.2 0-10.7 8.6-19.3 19.2-19.4l59-0.2c4.8 0 8.7 3.9 8.7 8.7l0.1 21.1c0 4.8-3.9 8.8-8.7 8.8z"/><path class="b" d="m163.2 267.7l-41.6 41.8c-3.4 3.4-8.8 3.4-12.2 0.1l-15.1-15.1c-3.4-3.4-3.4-8.8-0.1-12.2l41.7-41.8c7.6-7.6 19.8-7.6 27.3-0.1 7.5 7.5 7.5 19.8 0 27.3z"/><path fill-rule="evenodd" class="b" d="m202 234.3c-17.9 0-32.3-14.4-32.3-32.3 0-17.9 14.4-32.3 32.3-32.3 17.9 0 32.3 14.4 32.3 32.3 0 17.9-14.4 32.3-32.3 32.3z"/></svg>