<?xml version="1.0" encoding="UTF-8"?>
<svg id="Layer_1" xmlns="http://www.w3.org/2000/svg" version="1.1" viewBox="0 0 548.87 367.2">
  <!-- Generator: Adobe Illustrator 29.6.0, SVG Export Plug-In . SVG Version: 2.1.1 Build 207)  -->
  <defs>
    <style>
      .st0 {
        fill: #d5d505;
      }

      .st1 {
        fill: #1e1e21;
      }

      .st2 {
        fill: #2983c6;
      }

      .st3 {
        fill: #28316f;
      }

      .st4 {
        fill: #213466;
      }

      .st5 {
        fill: #fff;
      }

      .st6 {
        fill: #afacad;
      }

      .st7 {
        fill: #757a81;
      }

      .st8 {
        fill: #b4b1b3;
      }

      .st9 {
        fill: #75b12f;
      }

      .st10 {
        fill: #29b0ba;
      }

      .st11 {
        fill: #5aac4c;
      }
    </style>
  </defs>
  <rect class="st5" x="-1290" y=".31" width="595.28" height="366.89"/>
  <g>
    <g>
      <rect class="st1" x="-952.47" y="58.54" width="4.19" height="4.18"/>
      <rect class="st1" x="-865.38" y="110.51" width="4.19" height="4.18"/>
      <path class="st1" d="M-814.47,106.03c1.03-.49,1.86-1.19,2.49-2.12.63-.92,1.07-2.04,1.33-3.34.26-1.31.39-2.78.39-4.41v-29.26h-4.19v29.26c0,1.18-.06,2.18-.18,3s-.33,1.48-.63,1.99c-.3.5-.7.87-1.2,1.1-.51.23-1.16.34-1.96.34-.38,0-.72-.02-.99-.05-.28-.03-.66-.12-1.15-.26l-1.1,4.02c1.15.32,2.29.47,3.4.47,1.49,0,2.76-.25,3.79-.74Z"/>
      <path class="st1" d="M-828.87,59.49h-5.75v-.97c0-.53.11-.94.34-1.23.19-.24.64-.36,1.29-.36h2.88v-2.91h-2.95c-1.6,0-2.85.42-3.69,1.25-.85.83-1.28,2.19-1.28,4.02v3.41h9.17v-3.21h0Z"/>
      <rect class="st1" x="-873.76" y="110.51" width="4.19" height="4.18"/>
      <rect class="st1" x="-944.09" y="58.54" width="4.19" height="4.18"/>
      <path class="st1" d="M-847.74,91.95c1.59,1.13,3.43,1.97,5.52,2.51s4.31.81,6.65.81h1.11l1.41-2.95v4.15c0,2.19-.63,3.76-1.88,4.7-1.26.94-3.02,1.41-5.29,1.41-1.29,0-2.45-.12-3.48-.37-1.03-.24-2.21-.66-3.53-1.25l-1.31,4.02c1.6.59,3.03,1.04,4.27,1.33,1.24.3,2.49.44,3.74.44,4.08,0,7.05-.97,8.9-2.9,1.85-1.94,2.77-4.54,2.77-7.81v-29.14h-6.7c-2.58,0-4.94.37-7.07,1.1-2.13.73-3.95,1.73-5.47,3-1.52,1.27-2.7,2.79-3.53,4.55-.84,1.76-1.26,3.67-1.26,5.72,0,2.47.46,4.59,1.39,6.35.91,1.75,2.17,3.2,3.76,4.33ZM-847.74,77.14c.64-1.25,1.5-2.32,2.56-3.21s2.28-1.57,3.64-2.06c1.32-.47,2.69-.71,4.11-.72h0s6.77-.01,6.77-.01l-2.39,1.19v18.77h-4.24c-1.57,0-3.04-.22-4.42-.66-1.38-.43-2.59-1.07-3.64-1.91-1.05-.84-1.87-1.86-2.46-3.08s-.89-2.61-.89-4.18c-.01-1.5.31-2.88.96-4.13Z"/>
      <path class="st1" d="M-951.33,106.18h8.7v-3.13c.08.15.17.3.26.43.63.92,1.46,1.63,2.49,2.12,1.03.49,2.29.73,3.79.73h76.35v-39.43h-4.19v35.26h-72.01c-.8,0-1.46-.11-1.96-.34-.5-.23-.91-.59-1.2-1.1-.29-.51-.5-1.17-.63-1.99-.12-.82-.18-1.82-.18-3v-28.83h-11.32c-11.58,0-19.46,9.17-19.46,19.64v.11c.01,10.47,7.78,19.53,19.36,19.53ZM-966.22,86.43c0-8.63,6.2-15.57,14.89-15.57h9.8l-2.57,1.28v23.59c0,1.64.13,3.11.39,4.41.15.76.37,1.45.65,2.08h-8.17c-8.7,0-15-7.05-15-15.68v-.11h0Z"/>
      <polygon class="st1" points="-991.63 95.8 -989.8 100.62 -1016.4 66.85 -1020.55 66.85 -1020.55 106.1 -1016.23 106.1 -1016.23 76.52 -1018.69 70.8 -990.84 106.1 -987.3 106.1 -987.3 66.85 -991.63 66.85 -991.63 95.8"/>
      <path class="st1" d="M-931.99,168.8l24.14-23.01v-15.78h-64.52v17.97h33.08l12.27-7.88-30.63,30.75,3.28,13.34h8.73c11.73,0,18.69,4.36,18.69,12.12v.27c0,7.08-5.59,11.57-13.5,11.57-9.68,0-16.5-4.08-23.05-11.44l-14.46,13.75c8.18,9.67,20.05,16.47,37.24,16.47,21.28,0,34.37-13.21,34.37-31.18v-.27c0-17.69-12.68-24.5-25.64-26.68Z"/>
      <path class="st1" d="M-1047.81,66.18c-11.96,0-20.11,9.47-20.11,20.3v.11c0,10.82,8.03,20.18,20,20.18s20.11-9.47,20.11-20.29v-.11c0-10.83-8.04-20.19-20-20.19ZM-1032.42,86.59c0,8.91-6.4,16.09-15.39,16.09s-15.5-7.29-15.5-16.2v-.11c0-8.91,6.41-16.09,15.39-16.09s15.5,7.29,15.5,16.2v.11Z"/>
      <path class="st1" d="M-850.05,128.37c-29.46,0-50.88,22.19-50.88,49.28v.27c0,27.09,21.14,49.01,50.6,49.01s50.88-22.19,50.88-49.28v-.27c.01-27.09-21.14-49.01-50.6-49.01ZM-821.4,177.92c0,16.34-11.73,29.68-28.65,29.68s-28.92-13.61-28.92-29.95v-.27c0-16.34,11.73-29.68,28.64-29.68s28.92,13.61,28.92,29.95v.27h.01Z"/>
      <rect class="st1" x="-1080.02" y="66.85" width="4.44" height="39.24"/>
      <path class="st1" d="M-1151.3,214.41l4.05-3.12,20.87-16.08c16.91-13.07,25.1-20.96,25.1-36.89v-.27c0-17.84-13.09-29.41-32.87-29.41-17.05,0-26.19,6.94-35.6,19.74l14.73,11.84c7.09-8.71,12.14-12.79,19.51-12.79s12.82,4.36,12.82,12.39-4.64,13.07-16.5,22.87l-31.78,26v16.61h70.66v-18.11h-36.41l-14.58,7.22Z"/>
      <polygon class="st1" points="-1151.01 106.38 -1134.11 66.85 -1138.88 66.85 -1152.24 99.02 -1151.82 103.34 -1152.92 100.66 -1164.49 72.7 -1166.91 66.85 -1171.85 66.85 -1154.94 106.38 -1151.01 106.38"/>
      <rect class="st1" x="-1128.08" y="66.85" width="4.44" height="39.24"/>
      <path class="st1" d="M-1100.14,84.34c-8.65-1.85-10.67-3.92-10.67-7.62v-.11c0-3.53,3.26-6.33,8.37-6.33,4.04,0,7.7,1.29,11.35,4.26l2.58-3.42c-3.99-3.2-8.09-4.82-13.82-4.82-7.47,0-12.92,4.54-12.92,10.71v.11c0,6.45,4.16,9.36,13.2,11.33,8.26,1.74,10.22,3.81,10.22,7.46v.11c0,3.87-3.48,6.67-8.76,6.67s-9.38-1.85-13.48-5.55l-2.75,3.25c4.72,4.21,9.83,6.28,16.06,6.28,7.81,0,13.42-4.37,13.42-11.1v-.11c0-6.01-4.04-9.21-12.8-11.12Z"/>
    </g>
    <polygon class="st1" points="-1043.26 122.1 -1038.42 126.73 -1043.06 131.56 -1047.9 126.93 -1043.26 122.1"/>
    <polygon class="st1" points="-1032.19 126.93 -1027.36 131.56 -1022.72 126.73 -1027.55 122.1 -1032.19 126.93"/>
    <polygon class="st1" points="-1039 133.01 -1035.23 136.62 -1031.62 132.86 -1035.39 129.25 -1039 133.01"/>
    <polygon class="st1" points="-1025.19 135.07 -1021.43 138.68 -1017.82 134.92 -1021.58 131.32 -1025.19 135.07"/>
    <polygon class="st1" points="-1045.16 138.75 -1041.39 142.36 -1037.78 138.6 -1041.54 135 -1045.16 138.75"/>
    <polygon class="st1" points="-1032.52 139.19 -1028.76 142.8 -1025.15 139.04 -1028.91 135.43 -1032.52 139.19"/>
    <polygon class="st1" points="-1037.46 143.51 -1034.82 146.05 -1032.27 143.41 -1034.92 140.87 -1037.46 143.51"/>
    <polygon class="st1" points="-1027.47 145.51 -1024.83 148.04 -1022.28 145.4 -1024.93 142.86 -1027.47 145.51"/>
    <rect class="st1" x="-1004.95" y="124.59" width="8.35" height="8.34" transform="translate(-39.62 -178.33) rotate(-10.39)"/>
    <rect class="st1" x="-1015.74" y="128.14" width="6.7" height="6.69" transform="translate(-40.24 -180.19) rotate(-10.38)"/>
    <rect class="st1" x="-1003.1" y="137.37" width="6.7" height="6.69" transform="translate(-41.79 -178.04) rotate(-10.39)"/>
    <rect class="st1" x="-1012.25" y="138.42" width="5.22" height="5.21" transform="translate(-41.94 -179.63) rotate(-10.38)"/>
    <rect class="st1" x="-1002.26" y="148.15" width="5.22" height="5.21" transform="translate(-43.53 -177.67) rotate(-10.38)"/>
    <rect class="st1" x="-1019.93" y="140.51" width="5.22" height="5.21" transform="translate(-42.45 -180.98) rotate(-10.38)"/>
    <rect class="st1" x="-1010.61" y="147.22" width="5.22" height="5.21" transform="translate(-43.5 -179.19) rotate(-10.38)"/>
    <rect class="st1" x="-1017.33" y="148" width="3.67" height="3.66" transform="translate(-43.66 -180.64) rotate(-10.39)"/>
    <rect class="st1" x="-1010.4" y="155.45" width="3.67" height="3.66" transform="translate(-44.72 -178.78) rotate(-10.36)"/>
    <polygon class="st1" points="-981.22 152.26 -984.81 159.79 -977.27 163.37 -973.68 155.85 -981.22 152.26"/>
    <polygon class="st1" points="-991.93 148.78 -994.81 154.82 -988.76 157.7 -985.88 151.66 -991.93 148.78"/>
    <polygon class="st1" points="-986.98 163.66 -989.86 169.7 -983.8 172.57 -980.92 166.54 -986.98 163.66"/>
    <polygon class="st1" points="-994.91 159.13 -997.15 163.84 -992.44 166.07 -990.19 161.37 -994.91 159.13"/>
    <polygon class="st1" points="-992.51 172.86 -994.76 177.56 -990.05 179.8 -987.8 175.09 -992.51 172.86"/>
    <polygon class="st1" points="-1002.37 156.33 -1004.61 161.04 -999.9 163.27 -997.65 158.57 -1002.37 156.33"/>
    <polygon class="st1" points="-998.74 167.21 -1000.98 171.92 -996.27 174.15 -994.03 169.45 -998.74 167.21"/>
    <polygon class="st1" points="-1004.41 163.9 -1005.99 167.21 -1002.67 168.78 -1001.1 165.47 -1004.41 163.9"/>
    <rect class="st1" x="-1004.09" y="174.66" width="3.66" height="3.67" transform="translate(-730.97 -804.35) rotate(-64.55)"/>
    <polygon class="st1" points="-977.16 188.32 -984.48 192.32 -980.46 199.63 -973.14 195.63 -977.16 188.32"/>
    <polygon class="st1" points="-983.8 179.24 -989.68 182.46 -986.45 188.32 -980.58 185.1 -983.8 179.24"/>
    <polygon class="st1" points="-988.51 194.2 -994.38 197.42 -991.16 203.28 -985.28 200.06 -988.51 194.2"/>
    <polygon class="st1" points="-992.28 185.89 -996.86 188.4 -994.35 192.96 -989.77 190.46 -992.28 185.89"/>
    <polygon class="st1" points="-998.39 198.42 -1002.96 200.93 -1000.45 205.49 -995.88 202.99 -998.39 198.42"/>
    <polygon class="st1" points="-996.69 179.27 -1001.26 181.77 -998.76 186.34 -994.18 183.83 -996.69 179.27"/>
    <polygon class="st1" points="-1000.13 190.21 -1004.71 192.71 -1002.2 197.28 -997.62 194.77 -1000.13 190.21"/>
    <polygon class="st1" points="-1002.78 184.21 -1006 185.97 -1004.23 189.18 -1001.02 187.42 -1002.78 184.21"/>
    <polygon class="st1" points="-1007.68 193.13 -1010.9 194.89 -1009.13 198.1 -1005.91 196.34 -1007.68 193.13"/>
    <rect class="st1" x="-1003.76" y="219.46" width="8.34" height="8.35" transform="translate(-1099 -795.84) rotate(-82.96)"/>
    <rect class="st1" x="-1002.18" y="208.23" width="6.69" height="6.7" transform="translate(-1085.96 -805.7) rotate(-82.93)"/>
    <rect class="st1" x="-1014.77" y="217.62" width="6.69" height="6.7" transform="translate(-1106.32 -809.95) rotate(-82.93)"/>
    <rect class="st1" x="-1011.41" y="208.71" width="5.21" height="5.22" transform="translate(-1094.74 -815.8) rotate(-82.95)"/>
    <rect class="st1" x="-1023.71" y="215.3" width="5.21" height="5.22" transform="translate(-1112.07 -822.22) rotate(-82.95)"/>
    <rect class="st1" x="-1011.08" y="200.83" width="5.21" height="5.22" transform="translate(-1086.33 -822.4) rotate(-82.93)"/>
    <rect class="st1" x="-1020.28" y="207.69" width="5.21" height="5.22" transform="translate(-1101.21 -825.51) rotate(-82.93)"/>
    <rect class="st1" x="-1017.29" y="201.33" width="3.66" height="3.67" transform="translate(-1092.38 -829.56) rotate(-82.95)"/>
    <rect class="st1" x="-1026.45" y="205.68" width="3.66" height="3.67" transform="translate(-1104.84 -834.82) rotate(-82.95)"/>
    <polygon class="st1" points="-1027.99 235.14 -1034.11 229.47 -1039.8 235.58 -1033.68 241.25 -1027.99 235.14"/>
    <polygon class="st1" points="-1029.12 118.36 -1035.24 112.69 -1040.93 118.8 -1034.8 124.47 -1029.12 118.36"/>
    <polygon class="st1" points="-1021.46 225.99 -1026.37 221.44 -1030.93 226.34 -1026.02 230.89 -1021.46 225.99"/>
    <polygon class="st1" points="-1037.16 226.25 -1042.08 221.7 -1046.64 226.6 -1041.72 231.15 -1037.16 226.25"/>
    <polygon class="st1" points="-1030.46 220.06 -1034.28 216.51 -1037.83 220.33 -1034.01 223.87 -1030.46 220.06"/>
    <polygon class="st1" points="-1044.3 218.22 -1048.12 214.68 -1051.67 218.49 -1047.84 222.04 -1044.3 218.22"/>
    <polygon class="st1" points="-1025.55 213.79 -1029.37 210.25 -1032.92 214.06 -1029.1 217.61 -1025.55 213.79"/>
    <polygon class="st1" points="-1037.04 213.98 -1040.86 210.44 -1044.41 214.25 -1040.59 217.8 -1037.04 213.98"/>
    <polygon class="st1" points="-1032.17 209.58 -1034.86 207.08 -1037.36 209.77 -1034.67 212.26 -1032.17 209.58"/>
    <polygon class="st1" points="-1042.19 207.75 -1044.88 205.26 -1047.38 207.94 -1044.69 210.43 -1042.19 207.75"/>
    <rect class="st1" x="-1072.76" y="220.77" width="8.35" height="8.34" transform="translate(-65.03 -205.59) rotate(-11.33)"/>
    <rect class="st1" x="-1060.25" y="218.64" width="6.7" height="6.69" transform="translate(-64.18 -203.26) rotate(-11.33)"/>
    <rect class="st1" x="-1073.25" y="209.75" width="6.7" height="6.69" transform="translate(-62.81 -206.28) rotate(-11.34)"/>
    <rect class="st1" x="-1062.46" y="209.88" width="5.22" height="5.21" transform="translate(-62.38 -204.02) rotate(-11.33)"/>
    <rect class="st1" x="-1054.8" y="207.66" width="5.22" height="5.21" transform="translate(-61.79 -202.56) rotate(-11.33)"/>
    <rect class="st1" x="-1064.23" y="201.12" width="5.22" height="5.21" transform="translate(-60.69 -204.54) rotate(-11.33)"/>
    <rect class="st1" x="-1056.15" y="201.78" width="3.67" height="3.66" transform="translate(-60.44 -202.89) rotate(-11.31)"/>
    <rect class="st1" x="-1063.2" y="194.45" width="3.67" height="3.66" transform="translate(-59.34 -204.93) rotate(-11.34)"/>
    <polygon class="st1" points="-1088.55 201.76 -1085.08 194.17 -1092.69 190.72 -1096.15 198.3 -1088.55 201.76"/>
    <polygon class="st1" points="-1077.78 205.06 -1075.01 198.98 -1081.1 196.2 -1083.88 202.29 -1077.78 205.06"/>
    <polygon class="st1" points="-1082.98 190.27 -1080.2 184.18 -1086.3 181.41 -1089.08 187.5 -1082.98 190.27"/>
    <rect class="st1" x="-1078.8" y="188.6" width="5.21" height="5.22" transform="translate(-803.68 -867.32) rotate(-65.49)"/>
    <polygon class="st1" points="-1068.62 206.52 -1066.46 201.78 -1071.21 199.62 -1073.37 204.36 -1068.62 206.52"/>
    <rect class="st1" x="-1081.52" y="174.97" width="5.21" height="5.22" transform="translate(-792.62 -877.71) rotate(-65.47)"/>
    <rect class="st1" x="-1071.4" y="191.33" width="5.21" height="5.22" transform="translate(-801.59 -858.93) rotate(-65.47)"/>
    <rect class="st1" x="-1075.19" y="180.38" width="5.21" height="5.22" transform="translate(-793.48 -868.69) rotate(-65.45)"/>
    <polygon class="st1" points="-1065.56 189.74 -1064.03 186.41 -1067.37 184.89 -1068.9 188.23 -1065.56 189.74"/>
    <polygon class="st1" points="-1066.98 179.68 -1065.46 176.34 -1068.8 174.82 -1070.32 178.16 -1066.98 179.68"/>
    <polygon class="st1" points="-1093.21 165.78 -1085.95 161.65 -1090.09 154.41 -1097.35 158.54 -1093.21 165.78"/>
    <polygon class="st1" points="-1086.42 174.74 -1080.59 171.43 -1083.92 165.62 -1089.74 168.93 -1086.42 174.74"/>
    <polygon class="st1" points="-1081.96 159.71 -1076.14 156.4 -1079.46 150.59 -1085.28 153.9 -1081.96 159.71"/>
    <polygon class="st1" points="-1078.05 167.95 -1073.52 165.37 -1076.1 160.85 -1080.63 163.43 -1078.05 167.95"/>
    <polygon class="st1" points="-1072.15 155.33 -1067.62 152.75 -1070.2 148.22 -1074.74 150.8 -1072.15 155.33"/>
    <polygon class="st1" points="-1073.53 174.5 -1069 171.92 -1071.58 167.4 -1076.12 169.98 -1073.53 174.5"/>
    <polygon class="st1" points="-1070.27 163.51 -1065.74 160.93 -1068.32 156.4 -1072.86 158.99 -1070.27 163.51"/>
    <polygon class="st1" points="-1067.52 169.46 -1064.33 167.65 -1066.15 164.47 -1069.34 166.28 -1067.52 169.46"/>
    <polygon class="st1" points="-1062.77 160.47 -1059.58 158.65 -1061.4 155.47 -1064.59 157.28 -1062.77 160.47"/>
    <rect class="st1" x="-1075.48" y="125.93" width="8.34" height="8.35" transform="translate(-1086.8 -948.97) rotate(-83.9)"/>
    <rect class="st1" x="-1075.3" y="138.74" width="6.69" height="6.7" transform="translate(-1099.18 -938.9) rotate(-83.89)"/>
    <rect class="st1" x="-1062.87" y="129.16" width="6.69" height="6.7" transform="translate(-1078.54 -935.1) rotate(-83.89)"/>
    <rect class="st1" x="-1064.67" y="139.55" width="5.21" height="5.22" transform="translate(-1090.3 -929) rotate(-83.89)"/>
    <rect class="st1" x="-1052.38" y="132.87" width="5.21" height="5.22" transform="translate(-1073.11 -922.75) rotate(-83.91)"/>
    <rect class="st1" x="-1064.8" y="147.51" width="5.21" height="5.22" transform="translate(-1098.33 -922.02) rotate(-83.89)"/>
    <rect class="st1" x="-1055.71" y="140.49" width="5.21" height="5.22" transform="translate(-1083.23 -919.26) rotate(-83.89)"/>
    <rect class="st1" x="-1057.04" y="148.36" width="3.66" height="3.67" transform="translate(-1092.28 -915) rotate(-83.89)"/>
    <rect class="st1" x="-1047.93" y="143.92" width="3.66" height="3.67" transform="translate(-1080.36 -909.9) rotate(-83.93)"/>
    <path class="st1" d="M-1008.68,182.09c-.62-.35-1.75-.94-3.31-1.43-2.25-.72-5.39-1.26-9.11-.67-1.25.2-2.57.53-3.94,1.02-.13.05-.26.09-.39.14-.7.26-1.39.58-2.09.93-.59.3-1.19.63-1.78.99-1.35.81-2.68,1.73-3.97,2.73-1.47-8.89-.75-17.14-.41-21.19,0-.02.03-.03.05-.02,3.15,1.98,2.27,7.51,1.6,9.1-.01.03.03.05.06.03,3.92-4.63,2.01-9.75,1.2-11.04-.02-.03.02-.06.05-.04.57.46,1.03.95,1.42,1.45,1.21,1.55,1.66,3.22,1.78,4.7.06.78.04,1.5,0,2.12-.01.17-.02.32-.04.47,0,.02.02.03.04.02.01,0,.02,0,.02,0,1.06-2.08,1.57-5.22-.02-8.27-.43-.83-1.01-1.65-1.78-2.44-.22-.23-.46-.45-.71-.68-.02-.02,0-.06.03-.05.24.06.46.13.68.2.67.23,1.26.55,1.78.94,1.19.88,2,2.08,2.48,3.34.4,1.04.58,2.11.58,3.06,0,.04.05.04.06,0,.74-2.71.29-4.76-.64-6.25-.66-1.07-1.57-1.85-2.48-2.4-.62-.37-1.24-.63-1.78-.79-.32-.1-.6-.16-.85-.19-.04,0-.03-.06.01-.06.29-.03.57-.04.84-.05.66,0,1.25.05,1.78.14,1.05.2,1.87.56,2.48.98,1,.67,1.5,1.46,1.67,1.78.02.03.06,0,.06-.02-.14-1.43-.8-2.55-1.72-3.35-.71-.62-1.58-1.05-2.48-1.31-.59-.16-1.19-.25-1.78-.26-.8,0-1.57.12-2.22.4-.03,0-.05-.02-.04-.05.58-.83,1.4-1.33,2.26-1.6.6-.18,1.21-.25,1.78-.21.55.03,1.05.15,1.46.34.03,0,.05-.02.03-.05-.45-.51-.96-.91-1.49-1.21-.57-.32-1.17-.51-1.78-.58-1.59-.18-3.21.5-4.29,2.13-.01.02-.04.02-.05,0-.21-.37-.41-.78-.59-1.21-.43-1-.78-2.12-.97-3.24-.01-.04-.05-.04-.05,0-.19,1.12-.55,2.25-.98,3.25-.19.43-.38.83-.59,1.19-.01.02-.04.02-.05,0-1.88-2.85-5.41-2.79-7.56-.33-.02.02,0,.06.03.05,1.43-.68,4.14-.48,5.5,1.47.02.03-.01.06-.04.05-2.09-.88-5.33-.31-7.06,1.75-.62.73-1.04,1.66-1.15,2.77,0,.03.04.05.06.02.13-.25.47-.79,1.09-1.34,1.01-.89,2.77-1.79,5.68-1.52.04,0,.04.06.01.06-1.49.18-4.56,1.51-5.69,4.55-.5,1.34-.63,3.02-.07,5.08.01.03.06.03.06,0,0-.05,0-.09.01-.14.03-2.76,1.61-6.46,5.52-7.4.03,0,.05.03.03.05-4.37,3.84-3.94,8.58-2.51,11.38.02.03.06.02.06,0-.19-2.12-.34-5.89,3.16-8.74.03-.02.07,0,.05.04-.81,1.3-2.72,6.41,1.2,11.04.02.03.07,0,.06-.03-.66-1.58-1.54-7.12,1.6-9.1.02,0,.05,0,.05.02.34,4.05,1.06,12.3-.41,21.19-2.53-1.94-5.2-3.64-7.84-4.64-.33-.12-.65-.23-.96-.34-2.73-.9-5.23-1.15-7.41-1.05-3.5.15-6.18,1.2-7.65,1.93-.3.15-.55.29-.74.4-.08.05-.02.16.06.13.23-.07.45-.14.68-.2,2.69-.76,5.24-.96,7.65-.75,2.63.23,5.1.95,7.41,1.99,3.24,1.46,6.17,3.54,8.82,5.74-3.74,3.26-6.9,6.43-8.82,7.54-.1.05-.19.11-.28.16-.46-.63-1.26-.99-2.13-.8-.76.17-1.38.78-1.55,1.53-.15.67.02,1.4.4,1.78,1.02,1.02,2.2,1.09,3.56.52,2.59-1.09,5.81-4.51,9.76-8.13.33-.3.66-.61,1-.91.34.3.67.6,1,.9,1.79,1.64,3.43,3.24,4.93,4.6.62.56,1.21,1.08,1.78,1.54.88.72,1.71,1.31,2.48,1.72,1.51.8,2.82.9,3.94-.09.06-.05.12-.1.18-.16.26-.26.56-1.11.4-1.78-.09-.39-.3-.74-.59-1.01-.26-.25-.6-.44-.96-.52-.87-.19-1.67.17-2.13.8-.26-.13-.54-.31-.85-.52-.71-.49-1.54-1.18-2.48-2-.56-.49-1.15-1.03-1.78-1.6-1.22-1.11-2.56-2.33-3.98-3.58,1.26-1.05,2.59-2.07,3.98-3.01.58-.39,1.17-.77,1.78-1.13.81-.48,1.63-.92,2.48-1.33,1.27-.61,2.58-1.12,3.94-1.51,2.82-.81,5.85-1.08,9.11-.56,1.06.17,2.14.42,3.25.76.08.05.14-.06.06-.11"/>
    <g>
      <rect class="st1" x="-1152.46" y="272.9" width="2.46" height="2.46"/>
      <path class="st1" d="M-986.83,270.06v-16.24h-2.4v13.84h-9.05v-13.84h-2.4v13.84h-9.53v-13.84h-3.77c-1.5,0-2.86.2-4.08.61-1.22.41-2.26.98-3.12,1.7-.86.73-1.52,1.59-1.99,2.59s-.7,2.07-.7,3.23c0,1.42.27,2.63.81,3.65s1.26,1.85,2.16,2.51c.9.66,1.95,1.15,3.15,1.46,1.2.32,2.46.48,3.78.48h27.14ZM-1017.5,267.28c-.79-.26-1.48-.63-2.07-1.12s-1.05-1.09-1.39-1.79c-.34-.71-.51-1.51-.51-2.41s.19-1.64.56-2.35.86-1.31,1.47-1.82,1.3-.9,2.08-1.17c.78-.27,1.58-.4,2.4-.4h2.37v11.45h-2.37c-.9,0-1.75-.13-2.54-.39Z"/>
      <rect class="st1" x="-1038.1" y="248.6" width="2.4" height="21.46"/>
      <rect class="st1" x="-1012.67" y="248.6" width="2.46" height="2.46"/>
      <rect class="st1" x="-989.26" y="272.87" width="2.46" height="2.46"/>
      <rect class="st1" x="-1148.26" y="272.9" width="2.46" height="2.46"/>
      <path class="st1" d="M-1047.48,267.67h-3.92c-1.4,0-2.5-.2-3.3-.6s-1.43-1-1.89-1.79c.14-.62.21-1.37.21-2.24v-7.72h-2.4v8.1c0,1.38-.37,2.48-1.11,3.31s-1.86,1.24-3.36,1.24c-.7,0-1.34-.11-1.92-.33-.58-.22-1.08-.52-1.5-.9s-.75-.82-.99-1.33c-.24-.51-.37-1.05-.39-1.63v-8.46h-2.4v8.28c0,.74-.11,1.36-.33,1.87s-.52.93-.9,1.26c-.38.33-.81.57-1.29.72s-.99.22-1.53.22h-4.64v-12.35h-2.4v12.35h-12.58l4.19-10.02c-.64-.56-1.32-1.08-2.04-1.57-.72-.49-1.46-.92-2.22-1.29s-1.53-.66-2.31-.87c-.78-.21-1.55-.31-2.31-.31s-1.56.11-2.34.31c-.78.21-1.55.49-2.32.85-.77.36-1.51.79-2.22,1.29s-1.37,1.02-1.99,1.58l4.22,10.02h-8.3v-13.84h-3.83c-1.48,0-2.83.21-4.05.63-1.22.42-2.26.99-3.13,1.72-.87.73-1.54,1.6-2.02,2.6-.48,1.01-.72,2.1-.72,3.28,0,1.42.26,2.63.79,3.63.53,1.01,1.25,1.84,2.16,2.48.91.65,1.96,1.13,3.16,1.43,1.2.31,2.47.46,3.81.46h1.44v.69c0,1.26-.36,2.15-1.08,2.69s-1.73.81-3.03.81c-.74,0-1.4-.07-1.99-.21-.59-.14-1.26-.38-2.02-.72l-.75,2.3c.92.34,1.73.59,2.44.76s1.42.26,2.14.26c2.34,0,4.03-.55,5.09-1.66,1.06-1.11,1.59-2.6,1.59-4.47v-.45h37.24c1.16,0,2.19-.25,3.1-.75s1.64-1.17,2.2-2c.58.96,1.37,1.71,2.37,2.24,1,.54,2.19.81,3.57.81s2.66-.25,3.67-.75,1.78-1.26,2.32-2.3c.2.34.44.67.73,1s.66.62,1.12.88,1.02.47,1.66.63c.49.12,1.08.18,1.72.21v.03h6.92v-21.46h-2.4v19.08h.06ZM-1114.12,267.67h-2.43c-.9,0-1.74-.12-2.53-.37s-1.48-.61-2.08-1.09-1.07-1.07-1.41-1.76c-.34-.7-.51-1.5-.51-2.39s.18-1.64.55-2.36c.37-.72.86-1.33,1.47-1.84s1.3-.9,2.08-1.18c.78-.28,1.59-.42,2.43-.42h2.43v11.41ZM-1100.9,267.67l-3.74-9.18c.92-.78,1.86-1.35,2.83-1.7.97-.36,1.98-.54,3.04-.54s2.15.21,3.21.64c1.06.43,1.96.96,2.7,1.6l-3.74,9.18h-4.3Z"/>
      <rect class="st1" x="-1160.66" y="248.6" width="2.46" height="2.46"/>
      <rect class="st1" x="-918.23" y="248.6" width="2.46" height="2.46"/>
      <rect class="st1" x="-939.46" y="248.6" width="2.4" height="21.46"/>
      <rect class="st1" x="-1016.87" y="248.6" width="2.46" height="2.46"/>
      <path class="st1" d="M-1129.28,260.65c0-.94-.12-1.81-.38-2.63-.25-.82-.63-1.51-1.15-2.09-.64-.7-1.35-1.22-2.14-1.57s-1.75-.52-2.89-.52h-1.77v2.39h2.1c.58,0,1.13.13,1.65.37.52.25.95.57,1.29.97.34.42.57.88.7,1.38s.2,1.1.2,1.79v6.94h-11.24v2.39h13.63v-9.42h0Z"/>
      <rect class="st1" x="-812.66" y="248.6" width="2.4" height="21.46"/>
      <rect class="st1" x="-914.03" y="248.6" width="2.46" height="2.46"/>
      <path class="st1" d="M-819.64,248.6h-2.4v19.07h-8.24c.5-1.1.75-2.27.75-3.53s-.23-2.39-.67-3.45c-.45-1.07-1.06-1.99-1.84-2.76-.78-.78-1.7-1.39-2.77-1.84-1.07-.45-2.22-.67-3.46-.67s-2.32.23-3.36.69-1.94,1.08-2.71,1.87-1.37,1.71-1.81,2.77-.66,2.19-.66,3.41c0,.64.07,1.25.2,1.84s.3,1.15.52,1.69h-7.43c.5-1.1.75-2.27.75-3.53s-.23-2.39-.67-3.45c-.45-1.07-1.06-1.99-1.84-2.76-.78-.78-1.7-1.39-2.77-1.84-1.07-.45-2.22-.67-3.46-.67s-2.31.23-3.35.69-1.94,1.08-2.71,1.87-1.37,1.71-1.81,2.77-.66,2.19-.66,3.41c0,.64.07,1.25.2,1.84s.3,1.15.52,1.69h-7.61v-19.07h-2.4v19.07h-7.64v-3.66c0-.92-.12-1.79-.36-2.62s-.62-1.53-1.14-2.11c-.62-.7-1.32-1.22-2.1-1.56-.78-.34-1.77-.51-2.97-.51h-10.61l4.51-8.62h-2.61l-4.6,8.59c.08.52.2.97.38,1.35.17.38.4.74.7,1.08h12.22c.76,0,1.41.11,1.96.35.55.23.99.54,1.33.94s.57.86.69,1.38c.12.52.18,1.1.18,1.73v3.66h-22.17v-13.84h-3.78c-1.5,0-2.86.2-4.07.61-1.22.41-2.26.98-3.12,1.7-.86.73-1.52,1.59-1.99,2.59s-.7,2.07-.7,3.23c0,1.42.27,2.63.81,3.65s1.26,1.85,2.16,2.51c.9.66,1.95,1.15,3.15,1.46,1.2.32,2.46.48,3.77.48h47.55c.78.84,1.7,1.5,2.77,1.99s2.23.73,3.49.73,2.47-.24,3.58-.72c1.11-.48,2.06-1.15,2.86-2h10.55c.78.84,1.7,1.5,2.77,1.99s2.23.73,3.49.73,2.47-.24,3.58-.72c1.11-.48,2.06-1.15,2.86-2h12.19v-21.5h0ZM-913.96,267.67h-2.37c-.9,0-1.74-.13-2.53-.39-.79-.26-1.48-.63-2.07-1.12s-1.05-1.09-1.39-1.79c-.34-.71-.51-1.51-.51-2.41s.18-1.64.55-2.35.86-1.31,1.47-1.82,1.3-.9,2.08-1.17c.78-.27,1.58-.4,2.4-.4h2.37v11.45h0ZM-855.67,266.61c-.33.77-.78,1.43-1.35,1.99-.57.56-1.24.99-2.01,1.3s-1.6.46-2.5.46-1.69-.17-2.44-.49c-.75-.33-1.4-.78-1.95-1.35s-.98-1.23-1.29-1.99c-.31-.76-.46-1.57-.46-2.42s.16-1.67.46-2.44c.31-.77.74-1.43,1.28-2,.54-.57,1.18-1.02,1.93-1.36s1.57-.51,2.47-.51,1.76.16,2.53.48,1.44.76,2.01,1.32,1.01,1.22,1.33,1.99.48,1.61.48,2.53c0,.89-.16,1.72-.49,2.49ZM-832.42,266.61c-.33.77-.78,1.43-1.35,1.99-.57.56-1.24.99-2.01,1.3s-1.6.46-2.5.46-1.69-.17-2.44-.49c-.75-.33-1.4-.78-1.95-1.35s-.98-1.23-1.29-1.99c-.31-.76-.47-1.57-.47-2.42s.16-1.67.47-2.44.73-1.43,1.27-2c.54-.57,1.18-1.02,1.93-1.36s1.57-.51,2.47-.51,1.76.16,2.53.48,1.44.76,2.01,1.32,1.01,1.22,1.33,1.99.48,1.61.48,2.53c.02.89-.15,1.72-.48,2.49Z"/>
      <path class="st1" d="M-1165.74,269.58c1.2.32,2.46.48,3.77.48h15.7v-16.24h-2.4v13.84h-9.53v-13.84h-3.78c-1.5,0-2.85.2-4.07.61s-2.26.98-3.12,1.7c-.86.73-1.52,1.59-1.99,2.59s-.7,2.07-.7,3.23c0,1.42.27,2.63.81,3.65s1.26,1.85,2.16,2.51c.9.67,1.95,1.16,3.15,1.47ZM-1169.46,261.96c0-.86.19-1.64.56-2.35.37-.71.86-1.31,1.47-1.82s1.3-.9,2.08-1.17c.78-.27,1.58-.4,2.4-.4h2.37v11.45h-2.37c-.9,0-1.74-.13-2.53-.39s-1.48-.63-2.07-1.12-1.05-1.09-1.39-1.79c-.35-.71-.52-1.51-.52-2.41Z"/>
      <rect class="st1" x="-998.02" y="272.9" width="2.46" height="2.46"/>
      <rect class="st1" x="-1002.22" y="272.9" width="2.46" height="2.46"/>
      <path class="st1" d="M-977.5,273.1c.15-.75.23-1.59.23-2.53v-.51h30.83v-21.46h-2.4v19.07h-10.19l4.19-10.02c-.64-.56-1.32-1.08-2.04-1.57-.72-.49-1.46-.92-2.22-1.29-.76-.37-1.53-.66-2.31-.87-.78-.21-1.55-.31-2.31-.31s-1.56.11-2.34.31c-.78.21-1.55.49-2.32.85s-1.51.79-2.22,1.29c-.71.5-1.37,1.02-1.99,1.58l4.22,10.02h-8.93v-13.84h-2.4v16.75c0,.68-.03,1.25-.1,1.72-.07.47-.19.85-.36,1.14s-.4.5-.69.63-.66.2-1.12.2c-.22,0-.41-.01-.57-.03-.16-.02-.38-.07-.66-.15l-.63,2.3c.66.18,1.31.27,1.95.27.86,0,1.58-.14,2.17-.42.59-.28,1.06-.68,1.42-1.21.39-.53.64-1.17.79-1.92ZM-969.57,258.49c.92-.78,1.86-1.35,2.83-1.7.97-.36,1.98-.54,3.04-.54s2.15.21,3.21.64,1.96.96,2.7,1.6l-3.74,9.18h-4.28l-3.76-9.18Z"/>
      <rect class="st1" x="-1164.86" y="248.6" width="2.46" height="2.46"/>
      <polygon class="st1" points="-1154.66 285.78 -1158.35 285.78 -1166.5 294.38 -1166.5 285.78 -1169.51 285.78 -1169.51 302.87 -1166.5 302.87 -1166.5 297.92 -1163.83 295.18 -1157.99 302.87 -1154.34 302.87 -1161.78 293.13 -1154.66 285.78"/>
      <rect class="st1" x="-1151.6" y="285.78" width="3.01" height="17.09"/>
      <polygon class="st1" points="-1132 297.6 -1141.17 285.78 -1143.96 285.78 -1143.96 302.87 -1141 302.87 -1141 290.71 -1131.56 302.87 -1129.04 302.87 -1129.04 285.78 -1132 285.78 -1132 297.6"/>
      <path class="st1" d="M-1116.58,295.94h4.38v3.2c-1.05.78-2.52,1.29-4.13,1.29-3.5,0-5.82-2.59-5.82-6.1v-.05c0-3.27,2.39-6.03,5.55-6.03,2.18,0,3.47.71,4.79,1.83l1.91-2.27c-1.76-1.49-3.6-2.32-6.58-2.32-5.16,0-8.83,4.05-8.83,8.84v.05c0,4.98,3.52,8.79,8.88,8.79,3.03,0,5.46-1.22,7.14-2.66v-7.18h-7.29v2.61h0Z"/>
      <path class="st1" d="M-1098.76,285.78h-6.38v17.09h6.38c5.38,0,9.1-3.73,9.1-8.55v-.05c0-4.8-3.72-8.49-9.1-8.49ZM-1092.81,294.38c0,3.34-2.35,5.76-5.94,5.76h-3.37v-11.62h3.37c3.6,0,5.94,2.47,5.94,5.81v.05Z"/>
      <path class="st1" d="M-1077.86,285.49c-5.26,0-8.97,4.03-8.97,8.84v.05c0,4.81,3.67,8.79,8.93,8.79s8.98-4.03,8.98-8.84v-.05c-.02-4.81-3.69-8.79-8.94-8.79ZM-1072.09,294.38c0,3.32-2.37,6.03-5.77,6.03s-5.82-2.76-5.82-6.08v-.05c0-3.32,2.37-6.03,5.77-6.03s5.82,2.76,5.82,6.08v.05Z"/>
      <polygon class="st1" points="-1056.79 293.86 -1062 285.78 -1065.2 285.78 -1065.2 302.87 -1062.24 302.87 -1062.24 290.67 -1056.88 298.67 -1056.79 298.67 -1051.38 290.62 -1051.38 302.87 -1048.37 302.87 -1048.37 285.78 -1051.58 285.78 -1056.79 293.86"/>
      <path class="st1" d="M-1028.41,285.49c-5.26,0-8.97,4.03-8.97,8.84v.05c0,4.81,3.67,8.79,8.93,8.79s8.98-4.03,8.98-8.84v-.05c-.01-4.81-3.68-8.79-8.94-8.79ZM-1022.64,294.38c0,3.32-2.37,6.03-5.77,6.03s-5.82-2.76-5.82-6.08v-.05c0-3.32,2.37-6.03,5.77-6.03s5.82,2.76,5.82,6.08v.05h0Z"/>
      <polygon class="st1" points="-1015.74 302.87 -1012.73 302.87 -1012.73 295.91 -1004.1 295.91 -1004.1 293.18 -1012.73 293.18 -1012.73 288.52 -1003 288.52 -1003 285.78 -1015.74 285.78 -1015.74 302.87"/>
      <path class="st1" d="M-985.75,292.96c-3.28-.78-4.06-1.37-4.06-2.68v-.05c0-1.12,1.03-2.03,2.79-2.03,1.57,0,3.11.61,4.65,1.76l1.61-2.27c-1.74-1.39-3.72-2.15-6.21-2.15-3.4,0-5.85,2.03-5.85,4.95v.05c0,3.15,2.06,4.22,5.7,5.1,3.18.73,3.86,1.39,3.86,2.61v.06c0,1.3-1.17,2.15-3.03,2.15-2.13,0-3.77-.81-5.41-2.22l-1.81,2.15c2.06,1.83,4.52,2.73,7.14,2.73,3.6,0,6.11-1.9,6.11-5.1v-.05c.01-2.84-1.87-4.13-5.49-5.01Z"/>
      <path class="st1" d="M-971.03,285.66l-7.53,17.21h3.08l1.76-4.13h8.1l1.74,4.13h3.18l-7.53-17.21h-2.8ZM-972.62,296.09l2.94-6.84,2.96,6.84h-5.9Z"/>
      <path class="st1" d="M-947.3,295.62c0,3.15-1.64,4.76-4.31,4.76s-4.33-1.71-4.33-4.88v-9.72h-3.01v9.84c0,4.95,2.84,7.52,7.29,7.52s7.36-2.56,7.36-7.66v-9.69h-3.01v9.83h.01Z"/>
      <path class="st1" d="M-933.5,285.78h-6.38v17.09h6.38c5.38,0,9.1-3.73,9.1-8.55v-.05c0-4.8-3.72-8.49-9.1-8.49ZM-927.56,294.38c0,3.34-2.35,5.76-5.94,5.76h-3.37v-11.62h3.37c3.6,0,5.94,2.47,5.94,5.81v.05Z"/>
      <rect class="st1" x="-920.59" y="285.78" width="3.01" height="17.09"/>
      <path class="st1" d="M-899.61,285.66l-7.53,17.21h3.08l1.76-4.13h8.1l1.74,4.13h3.18l-7.53-17.21h-2.8ZM-901.2,296.09l2.94-6.84,2.96,6.84h-5.9Z"/>
      <path class="st1" d="M-872.45,291.23v-.05c0-1.49-.51-2.76-1.42-3.69-1.1-1.07-2.79-1.71-4.94-1.71h-7.63v17.09h3.01v-5.96h3.77l4.21,5.96h3.55l-4.62-6.47c2.38-.68,4.07-2.37,4.07-5.17ZM-883.43,294.25v-5.74h4.38c2.23,0,3.55,1,3.55,2.83v.05c0,1.73-1.37,2.86-3.52,2.86h-4.41Z"/>
      <path class="st1" d="M-862.17,285.66l-7.53,17.21h3.08l1.76-4.13h8.1l1.74,4.13h3.18l-7.53-17.21h-2.8ZM-863.76,296.09l2.94-6.84,2.96,6.84h-5.9Z"/>
      <path class="st1" d="M-838.15,293.99c1.27-.66,2.45-1.76,2.45-3.81v-.05c0-1.15-.39-2.07-1.15-2.83-.98-.98-2.52-1.51-4.48-1.51h-7.68v17.09h7.92c3.82,0,6.33-1.63,6.33-4.69v-.05c.01-2.32-1.38-3.47-3.39-4.15ZM-846.05,288.44h4.33c1.93,0,3.01.83,3.01,2.17v.05c0,1.56-1.3,2.32-3.23,2.32h-4.11v-4.54h0ZM-837.76,297.87c0,1.54-1.25,2.34-3.3,2.34h-4.99v-4.69h4.77c2.37,0,3.52.86,3.52,2.3v.05h0Z"/>
      <rect class="st1" x="-831.02" y="285.78" width="3.01" height="17.09"/>
      <path class="st1" d="M-814.82,285.66h-2.79l-7.53,17.21h3.08l1.76-4.13h8.1l1.74,4.13h3.18l-7.54-17.21ZM-819.2,296.09l2.94-6.84,2.96,6.84h-5.9Z"/>
    </g>
  </g>
  <g>
    <g>
      <rect class="st6" x="323.34" y="6.66" width="6.18" height="6.16"/>
      <rect class="st6" x="451.7" y="83.26" width="6.18" height="6.16"/>
      <path class="st6" d="M526.73,76.65c1.52-.72,2.74-1.75,3.67-3.12.93-1.36,1.58-3.01,1.96-4.92.38-1.93.57-4.1.57-6.5V18.98h-6.18v43.12c0,1.74-.09,3.21-.27,4.42s-.49,2.18-.93,2.93c-.44.74-1.03,1.28-1.77,1.62-.75.34-1.71.5-2.89.5-.56,0-1.06-.03-1.46-.07-.41-.04-.97-.18-1.69-.38l-1.62,5.92c1.69.47,3.38.69,5.01.69,2.2-.01,4.07-.37,5.59-1.09Z"/>
      <path class="st6" d="M505.51,8.06h-8.47v-1.43c0-.78.16-1.39.5-1.81.28-.35.94-.53,1.9-.53h4.24V0h-4.35c-2.36,0-4.2.62-5.44,1.84-1.25,1.22-1.89,3.23-1.89,5.92v5.03h13.51v-4.73h-.01Z"/>
      <rect class="st6" x="439.35" y="83.26" width="6.18" height="6.16"/>
      <rect class="st6" x="335.69" y="6.66" width="6.18" height="6.16"/>
      <path class="st6" d="M477.69,55.9c2.34,1.67,5.06,2.9,8.14,3.7s6.35,1.19,9.8,1.19h1.64l2.08-4.35v6.12c0,3.23-.93,5.54-2.77,6.93-1.86,1.39-4.45,2.08-7.8,2.08-1.9,0-3.61-.18-5.13-.55-1.52-.35-3.26-.97-5.2-1.84l-1.93,5.92c2.36.87,4.47,1.53,6.29,1.96,1.83.44,3.67.65,5.51.65,6.01,0,10.39-1.43,13.12-4.27,2.73-2.86,4.08-6.69,4.08-11.51V18.98h-9.87c-3.8,0-7.28.55-10.42,1.62-3.14,1.08-5.82,2.55-8.06,4.42s-3.98,4.11-5.2,6.71c-1.24,2.59-1.86,5.41-1.86,8.43,0,3.64.68,6.76,2.05,9.36,1.34,2.58,3.2,4.72,5.54,6.38ZM477.69,34.07c.94-1.84,2.21-3.42,3.77-4.73s3.36-2.31,5.36-3.04c1.95-.69,3.96-1.05,6.06-1.06h0s9.98-.01,9.98-.01l-3.52,1.75v27.66h-6.25c-2.31,0-4.48-.32-6.51-.97-2.03-.63-3.82-1.58-5.36-2.82-1.55-1.24-2.76-2.74-3.63-4.54s-1.31-3.85-1.31-6.16c-.01-2.21.46-4.24,1.41-6.09Z"/>
      <path class="st6" d="M325.02,76.87h12.82v-4.61c.12.22.25.44.38.63.93,1.36,2.15,2.4,3.67,3.12,1.52.72,3.38,1.08,5.59,1.08h112.53V18.98h-6.18v51.97h-106.13c-1.18,0-2.15-.16-2.89-.5-.74-.34-1.34-.87-1.77-1.62s-.74-1.72-.93-2.93c-.18-1.21-.27-2.68-.27-4.42V18.98h-16.68c-17.07,0-28.68,13.51-28.68,28.95v.16c.01,15.43,11.47,28.78,28.53,28.78ZM303.08,47.77c0-12.72,9.14-22.95,21.95-22.95h14.44l-3.79,1.89v34.77c0,2.42.19,4.58.57,6.5.22,1.12.55,2.14.96,3.07h-12.04c-12.82,0-22.11-10.39-22.11-23.11v-.16h.01Z"/>
      <polygon class="st6" points="265.63 61.58 268.32 68.68 229.12 18.91 223 18.91 223 76.76 229.37 76.76 229.37 33.16 225.75 24.73 266.79 76.76 272.01 76.76 272.01 18.91 265.63 18.91 265.63 61.58"/>
      <path class="st6" d="M353.53,169.17l35.58-33.91v-23.26h-95.09v26.48h48.75l18.08-11.61-45.14,45.32,4.83,19.66h12.87c17.29,0,27.55,6.43,27.55,17.86v.4c0,10.43-8.24,17.05-19.9,17.05-14.27,0-24.32-6.01-33.97-16.86l-21.31,20.27c12.06,14.25,29.55,24.27,54.89,24.27,31.36,0,50.66-19.47,50.66-45.95v-.4c.01-26.07-18.69-36.11-37.79-39.32Z"/>
      <path class="st6" d="M182.83,17.92c-17.63,0-29.64,13.96-29.64,29.92v.16c0,15.95,11.83,29.74,29.48,29.74s29.64-13.96,29.64-29.9v-.16c-.01-15.96-11.85-29.76-29.48-29.76ZM205.51,48c0,13.13-9.43,23.71-22.68,23.71s-22.84-10.74-22.84-23.88v-.16c0-13.13,9.45-23.71,22.68-23.71s22.84,10.74,22.84,23.88v.16Z"/>
      <path class="st6" d="M474.29,109.58c-43.42,0-74.99,32.7-74.99,72.63v.4c0,39.93,31.16,72.23,74.58,72.23s74.99-32.7,74.99-72.63v-.4c.01-39.93-31.16-72.23-74.58-72.23ZM516.52,182.61c0,24.08-17.29,43.74-42.22,43.74s-42.62-20.06-42.62-44.14v-.4c0-24.08,17.29-43.74,42.21-43.74s42.62,20.06,42.62,44.14v.4h.01Z"/>
      <rect class="st6" x="135.36" y="18.91" width="6.54" height="57.83"/>
      <path class="st6" d="M30.3,236.39l5.97-4.6,30.76-23.7c24.92-19.26,36.99-30.89,36.99-54.37v-.4c0-26.29-19.29-43.35-48.44-43.35-25.13,0-38.6,10.23-52.47,29.09l21.71,17.45c10.45-12.84,17.89-18.85,28.75-18.85s18.89,6.43,18.89,18.26-6.84,19.26-24.32,33.71L1.31,227.96v24.48h104.14v-26.69h-53.66l-21.49,10.64Z"/>
      <polygon class="st6" points="30.73 77.17 55.64 18.91 48.61 18.91 28.92 66.32 29.54 72.69 27.91 68.74 10.86 27.53 7.3 18.91 .01 18.91 24.94 77.17 30.73 77.17"/>
      <rect class="st6" x="64.52" y="18.91" width="6.54" height="57.83"/>
      <path class="st6" d="M105.7,44.69c-12.75-2.73-15.73-5.78-15.73-11.23v-.16c0-5.2,4.8-9.33,12.34-9.33,5.95,0,11.35,1.9,16.73,6.28l3.8-5.04c-5.88-4.72-11.92-7.1-20.37-7.1-11.01,0-19.04,6.69-19.04,15.78v.16c0,9.51,6.13,13.79,19.45,16.7,12.17,2.56,15.06,5.62,15.06,10.99v.16c0,5.7-5.13,9.83-12.91,9.83s-13.82-2.73-19.87-8.18l-4.05,4.79c6.96,6.2,14.49,9.26,23.67,9.26,11.51,0,19.78-6.44,19.78-16.36v-.16c0-8.86-5.95-13.57-18.86-16.39Z"/>
    </g>
    <polygon class="st3" points="189.53 100.34 196.67 107.16 189.83 114.28 182.69 107.46 189.53 100.34"/>
    <polygon class="st8" points="205.85 107.46 212.97 114.28 219.81 107.16 212.69 100.34 205.85 107.46"/>
    <polygon class="st0" points="195.81 116.42 201.37 121.74 206.69 116.2 201.13 110.88 195.81 116.42"/>
    <polygon class="st9" points="216.17 119.45 221.71 124.77 227.03 119.23 221.49 113.93 216.17 119.45"/>
    <polygon class="st0" points="186.73 124.88 192.29 130.2 197.61 124.66 192.07 119.35 186.73 124.88"/>
    <polygon class="st10" points="205.36 125.53 210.9 130.85 216.22 125.3 210.68 119.98 205.36 125.53"/>
    <polygon class="st9" points="198.08 131.89 201.97 135.64 205.73 131.74 201.83 128 198.08 131.89"/>
    <polygon class="st11" points="212.81 134.84 216.7 138.57 220.45 134.68 216.55 130.93 212.81 134.84"/>
    <rect class="st2" x="245.96" y="103.99" width="12.31" height="12.29" transform="translate(-15.73 47.26) rotate(-10.39)"/>
    <rect class="st4" x="229.91" y="109.28" width="9.87" height="9.86" transform="translate(-16.73 44.17) rotate(-10.38)"/>
    <rect class="st10" x="248.74" y="122.82" width="9.87" height="9.86" transform="translate(-18.88 47.86) rotate(-10.39)"/>
    <rect class="st0" x="235.13" y="124.43" width="7.69" height="7.68" transform="translate(-19.2 45.17) rotate(-10.38)"/>
    <rect class="st8" x="249.86" y="138.77" width="7.69" height="7.68" transform="translate(-21.55 48.05) rotate(-10.38)"/>
    <rect class="st10" x="223.8" y="127.51" width="7.69" height="7.68" transform="translate(-19.94 43.17) rotate(-10.38)"/>
    <rect class="st9" x="237.54" y="137.4" width="7.69" height="7.68" transform="translate(-21.5 45.81) rotate(-10.38)"/>
    <rect class="st8" x="227.72" y="138.55" width="5.41" height="5.39" transform="translate(-21.69 43.86) rotate(-10.39)"/>
    <rect class="st11" x="237.96" y="149.53" width="5.41" height="5.39" transform="translate(-23.45 45.75) rotate(-10.36)"/>
    <polygon class="st3" points="280.97 144.79 275.68 155.89 286.79 161.16 292.08 150.08 280.97 144.79"/>
    <polygon class="st10" points="265.18 139.66 260.94 148.56 269.86 152.81 274.1 143.9 265.18 139.66"/>
    <polygon class="st9" points="272.48 161.59 268.24 170.49 277.17 174.72 281.41 165.83 272.48 161.59"/>
    <polygon class="st0" points="260.79 154.91 257.49 161.86 264.43 165.14 267.75 158.21 260.79 154.91"/>
    <polygon class="st0" points="264.33 175.15 261.01 182.08 267.96 185.38 271.27 178.44 264.33 175.15"/>
    <polygon class="st2" points="249.8 150.79 246.5 157.73 253.44 161.01 256.75 154.09 249.8 150.79"/>
    <polygon class="st8" points="255.15 166.82 251.83 173.76 258.79 177.05 262.09 170.12 255.15 166.82"/>
    <polygon class="st9" points="246.79 161.94 244.46 166.82 249.36 169.14 251.67 164.26 246.79 161.94"/>
    <rect class="st10" x="247.25" y="177.68" width="5.39" height="5.41" transform="translate(-20.34 328.57) rotate(-64.55)"/>
    <polygon class="st2" points="286.95 197.93 276.16 203.83 282.09 214.6 292.88 208.71 286.95 197.93"/>
    <polygon class="st10" points="277.17 184.55 268.5 189.3 273.26 197.93 281.91 193.19 277.17 184.55"/>
    <polygon class="st10" points="270.23 206.6 261.57 211.35 266.32 219.98 274.99 215.24 270.23 206.6"/>
    <polygon class="st3" points="264.67 194.35 257.92 198.05 261.62 204.77 268.37 201.09 264.67 194.35"/>
    <polygon class="st11" points="255.66 212.82 248.93 216.52 252.63 223.24 259.36 219.56 255.66 212.82"/>
    <polygon class="st4" points="258.17 184.6 251.43 188.28 255.12 195.02 261.87 191.32 258.17 184.6"/>
    <polygon class="st0" points="253.1 200.72 246.35 204.4 250.05 211.14 256.8 207.44 253.1 200.72"/>
    <polygon class="st8" points="249.19 191.88 244.45 194.47 247.06 199.2 251.79 196.61 249.19 191.88"/>
    <polygon class="st10" points="241.97 205.02 237.23 207.62 239.83 212.35 244.58 209.75 241.97 205.02"/>
    <rect class="st9" x="247.67" y="243.64" width="12.29" height="12.31" transform="translate(-25.21 471.07) rotate(-82.96)"/>
    <rect class="st4" x="250.13" y="227.31" width="9.86" height="9.87" transform="translate(-6.79 456.81) rotate(-82.93)"/>
    <rect class="st10" x="231.6" y="241.15" width="9.86" height="9.87" transform="translate(-36.78 450.55) rotate(-82.93)"/>
    <rect class="st9" x="236.54" y="228.16" width="7.68" height="7.69" transform="translate(-19.36 442.1) rotate(-82.95)"/>
    <rect class="st8" x="218.42" y="237.87" width="7.68" height="7.69" transform="translate(-44.9 432.64) rotate(-82.95)"/>
    <rect class="st8" x="237.02" y="216.41" width="7.68" height="7.69" transform="translate(-7.35 432.2) rotate(-82.93)"/>
    <rect class="st9" x="223.46" y="226.51" width="7.68" height="7.69" transform="translate(-29.27 427.59) rotate(-82.93)"/>
    <rect class="st8" x="227.87" y="217.23" width="5.39" height="5.41" transform="translate(-16.02 421.74) rotate(-82.95)"/>
    <rect class="st8" x="214.29" y="223.68" width="5.39" height="5.41" transform="translate(-34.31 413.96) rotate(-82.95)"/>
    <polygon class="st0" points="212.04 266.94 203.02 258.58 194.63 267.59 203.65 275.94 212.04 266.94"/>
    <polygon class="st9" points="210.37 94.83 201.35 86.47 192.97 95.47 202 103.83 210.37 94.83"/>
    <polygon class="st10" points="221.66 253.45 214.43 246.75 207.71 253.97 214.94 260.67 221.66 253.45"/>
    <polygon class="st9" points="198.52 253.84 191.27 247.13 184.55 254.35 191.8 261.06 198.52 253.84"/>
    <polygon class="st2" points="208.4 244.71 202.77 239.48 197.54 245.11 203.17 250.33 208.4 244.71"/>
    <polygon class="st0" points="188 242 182.37 236.78 177.14 242.4 182.78 247.63 188 242"/>
    <polygon class="st0" points="215.63 235.47 210 230.26 204.77 235.87 210.4 241.1 215.63 235.47"/>
    <polygon class="st8" points="198.7 235.75 193.07 230.54 187.84 236.15 193.47 241.38 198.7 235.75"/>
    <polygon class="st4" points="205.88 229.27 201.91 225.58 198.23 229.55 202.19 233.22 205.88 229.27"/>
    <polygon class="st8" points="191.11 226.57 187.15 222.9 183.46 226.85 187.43 230.52 191.11 226.57"/>
    <rect class="st2" x="146.05" y="245.77" width="12.31" height="12.29" transform="translate(-46.53 34.82) rotate(-11.33)"/>
    <rect class="st10" x="164.41" y="242.6" width="9.87" height="9.86" transform="translate(-45.32 38.08) rotate(-11.33)"/>
    <rect class="st9" x="145.47" y="229.42" width="9.87" height="9.86" transform="translate(-43.16 34.16) rotate(-11.34)"/>
    <rect class="st0" x="161.14" y="229.72" width="7.69" height="7.68" transform="translate(-42.66 36.95) rotate(-11.33)"/>
    <rect class="st3" x="172.43" y="226.45" width="7.69" height="7.68" transform="translate(-41.8 39.11) rotate(-11.33)"/>
    <rect class="st2" x="158.54" y="216.79" width="7.69" height="7.68" transform="translate(-40.17 36.19) rotate(-11.33)"/>
    <rect class="st9" x="170.67" y="217.81" width="5.41" height="5.39" transform="translate(-39.89 38.3) rotate(-11.31)"/>
    <rect class="st8" x="160.29" y="206.98" width="5.41" height="5.39" transform="translate(-38.06 36.16) rotate(-11.34)"/>
    <polygon class="st10" points="122.78 217.74 127.9 206.56 116.68 201.47 111.58 212.64 122.78 217.74"/>
    <polygon class="st0" points="138.66 222.61 142.74 213.65 133.76 209.55 129.67 218.52 138.66 222.61"/>
    <polygon class="st2" points="130.99 200.81 135.09 191.83 126.1 187.75 122 196.73 130.99 200.81"/>
    <rect class="st10" x="137.02" y="198.34" width="7.68" height="7.69" transform="translate(-101.55 246.46) rotate(-65.49)"/>
    <polygon class="st8" points="152.16 224.76 155.34 217.77 148.34 214.59 145.16 221.57 152.16 224.76"/>
    <rect class="st3" x="133.21" y="178.18" width="7.68" height="7.69" transform="translate(-85.45 231.15) rotate(-65.47)"/>
    <rect class="st11" x="148.14" y="202.31" width="7.68" height="7.69" transform="translate(-98.66 258.84) rotate(-65.47)"/>
    <rect class="st0" x="142.49" y="186.39" width="7.68" height="7.69" transform="translate(-87.5 244.32) rotate(-65.45)"/>
    <polygon class="st4" points="156.67 200.03 158.92 195.12 154 192.88 151.74 197.8 156.67 200.03"/>
    <polygon class="st9" points="154.57 185.2 156.81 180.28 151.89 178.04 149.65 182.96 154.57 185.2"/>
    <polygon class="st10" points="115.92 164.71 126.62 158.63 120.51 147.96 109.81 154.04 115.92 164.71"/>
    <polygon class="st9" points="125.92 177.92 134.52 173.04 129.61 164.48 121.03 169.36 125.92 177.92"/>
    <polygon class="st4" points="132.5 155.77 141.07 150.89 136.18 142.33 127.6 147.21 132.5 155.77"/>
    <polygon class="st2" points="138.26 167.91 144.94 164.11 141.13 157.45 134.46 161.25 138.26 167.91"/>
    <polygon class="st9" points="146.95 149.31 153.63 145.51 149.83 138.83 143.14 142.64 146.95 149.31"/>
    <polygon class="st10" points="144.92 177.57 151.6 173.76 147.79 167.1 141.1 170.9 144.92 177.57"/>
    <polygon class="st0" points="149.73 161.37 156.4 157.57 152.6 150.89 145.91 154.71 149.73 161.37"/>
    <polygon class="st8" points="153.78 170.14 158.48 167.47 155.8 162.78 151.1 165.45 153.78 170.14"/>
    <polygon class="st9" points="160.78 156.89 165.48 154.21 162.8 149.52 158.1 152.19 160.78 156.89"/>
    <rect class="st9" x="142.04" y="106.11" width="12.29" height="12.31" transform="translate(20.8 247.68) rotate(-83.9)"/>
    <rect class="st8" x="142.29" y="124.95" width="9.86" height="9.87" transform="translate(2.41 262.45) rotate(-83.89)"/>
    <rect class="st10" x="160.62" y="110.83" width="9.86" height="9.87" transform="translate(32.83 268.06) rotate(-83.89)"/>
    <rect class="st0" x="158.07" y="126.11" width="7.68" height="7.69" transform="translate(15.45 277.1) rotate(-83.89)"/>
    <rect class="st2" x="176.04" y="116.03" width="7.68" height="7.69" transform="translate(41.6 286.02) rotate(-83.91)"/>
    <rect class="st10" x="157.81" y="137.82" width="7.68" height="7.69" transform="translate(3.57 287.31) rotate(-83.89)"/>
    <rect class="st9" x="171.2" y="127.49" width="7.68" height="7.69" transform="translate(25.81 291.39) rotate(-83.89)"/>
    <rect class="st4" x="169.23" y="139.13" width="5.39" height="5.41" transform="translate(12.61 297.69) rotate(-83.89)"/>
    <rect class="st8" x="182.68" y="132.45" width="5.39" height="5.41" transform="translate(31.37 305.19) rotate(-83.93)"/>
    <path class="st7" d="M240.5,188.75c-.91-.52-2.58-1.39-4.88-2.11-3.32-1.06-7.94-1.86-13.43-.99-1.84.29-3.79.78-5.81,1.5-.19.07-.38.13-.57.21-1.03.38-2.05.85-3.08,1.37-.88.44-1.75.93-2.62,1.46-1.99,1.19-3.95,2.55-5.85,4.02-2.17-13.1-1.11-25.26-.6-31.23,0-.03.04-.04.07-.03,4.64,2.92,3.35,11.07,2.36,13.41-.01.04.04.07.09.04,5.78-6.82,2.96-14.37,1.77-16.27-.03-.04.03-.09.07-.06.84.68,1.52,1.4,2.09,2.14,1.78,2.28,2.45,4.75,2.62,6.93.09,1.15.06,2.21,0,3.12-.01.25-.03.47-.06.69,0,.03.03.04.06.03.01,0,.03,0,.03-.01,1.56-3.07,2.31-7.69-.03-12.19-.63-1.22-1.49-2.43-2.62-3.6-.32-.34-.68-.66-1.05-1-.03-.03,0-.09.04-.07.35.09.68.19,1,.29.99.34,1.86.81,2.62,1.39,1.75,1.3,2.95,3.07,3.66,4.92.59,1.53.85,3.11.85,4.51,0,.06.07.06.09.01,1.09-3.99.43-7.02-.94-9.21-.97-1.58-2.31-2.73-3.66-3.54-.91-.55-1.83-.93-2.62-1.16-.47-.15-.88-.24-1.25-.28-.06,0-.04-.09.01-.09.43-.04.84-.06,1.24-.07.97-.01,1.84.07,2.62.21,1.55.29,2.76.83,3.66,1.44,1.47.99,2.21,2.15,2.46,2.62.01.04.09.01.09-.03-.21-2.11-1.18-3.76-2.53-4.94-1.05-.91-2.33-1.55-3.66-1.93-.87-.24-1.75-.37-2.62-.38-1.18-.01-2.31.18-3.27.59-.04.01-.07-.03-.06-.07.85-1.22,2.06-1.96,3.33-2.36.88-.27,1.78-.37,2.62-.31.81.04,1.55.22,2.15.5.04.01.07-.03.04-.07-.66-.75-1.41-1.34-2.2-1.78-.84-.47-1.72-.75-2.62-.85-2.34-.27-4.73.74-6.32,3.14-.01.03-.06.03-.07,0-.31-.55-.6-1.15-.87-1.78-.63-1.47-1.15-3.12-1.43-4.78-.01-.06-.07-.06-.07,0-.28,1.65-.81,3.32-1.44,4.79-.28.63-.56,1.22-.87,1.75-.01.03-.06.03-.07,0-2.77-4.2-7.97-4.11-11.14-.49-.03.03,0,.09.04.07,2.11-1,6.1-.71,8.11,2.17.03.04-.01.09-.06.07-3.08-1.3-7.86-.46-10.41,2.58-.91,1.08-1.53,2.45-1.69,4.08,0,.04.06.07.09.03.19-.37.69-1.16,1.61-1.97,1.49-1.31,4.08-2.64,8.37-2.24.06.01.06.09.01.09-2.2.27-6.72,2.23-8.39,6.71-.74,1.97-.93,4.45-.1,7.49.01.04.09.04.09-.01,0-.07,0-.13.01-.21.04-4.07,2.37-9.52,8.14-10.91.04-.01.07.04.04.07-6.44,5.66-5.81,12.65-3.7,16.77.03.04.09.03.09-.01-.28-3.12-.5-8.68,4.66-12.88.04-.03.1.01.07.06-1.19,1.92-4.01,9.45,1.77,16.27.03.04.1.01.09-.04-.97-2.33-2.27-10.49,2.36-13.41.03-.01.07,0,.07.03.5,5.97,1.56,18.13-.6,31.23-3.73-2.86-7.66-5.36-11.55-6.84-.49-.18-.96-.34-1.41-.5-4.02-1.33-7.71-1.69-10.92-1.55-5.16.22-9.11,1.77-11.27,2.84-.44.22-.81.43-1.09.59-.12.07-.03.24.09.19.34-.1.66-.21,1-.29,3.96-1.12,7.72-1.41,11.27-1.11,3.88.34,7.52,1.4,10.92,2.93,4.78,2.15,9.09,5.22,13,8.46-5.51,4.8-10.17,9.48-13,11.11-.15.07-.28.16-.41.24-.68-.93-1.86-1.46-3.14-1.18-1.12.25-2.03,1.15-2.28,2.25-.22.99.03,2.06.59,2.62,1.5,1.5,3.24,1.61,5.25.77,3.82-1.61,8.56-6.65,14.38-11.98.49-.44.97-.9,1.47-1.34.5.44.99.88,1.47,1.33,2.64,2.42,5.06,4.78,7.27,6.78.91.83,1.78,1.59,2.62,2.27,1.3,1.06,2.52,1.93,3.66,2.53,2.23,1.18,4.16,1.33,5.81-.13.09-.07.18-.15.27-.24.38-.38.83-1.64.59-2.62-.13-.57-.44-1.09-.87-1.49-.38-.37-.88-.65-1.41-.77-1.28-.28-2.46.25-3.14,1.18-.38-.19-.8-.46-1.25-.77-1.05-.72-2.27-1.74-3.66-2.95-.83-.72-1.69-1.52-2.62-2.36-1.8-1.64-3.77-3.43-5.87-5.28,1.86-1.55,3.82-3.05,5.87-4.44.85-.57,1.72-1.13,2.62-1.67,1.19-.71,2.4-1.36,3.66-1.96,1.87-.9,3.8-1.65,5.81-2.23,4.16-1.19,8.62-1.59,13.43-.83,1.56.25,3.15.62,4.79,1.12.12.07.21-.09.09-.16"/>
    <g>
      <rect class="st6" x="28.59" y="322.59" width="3.63" height="3.63"/>
      <path class="st6" d="M272.7,318.4v-23.93h-3.54v20.4h-13.34v-20.4h-3.54v20.4h-14.05v-20.4h-5.56c-2.21,0-4.22.29-6.01.9s-3.33,1.44-4.6,2.51c-1.27,1.08-2.24,2.34-2.93,3.82s-1.03,3.05-1.03,4.76c0,2.09.4,3.88,1.19,5.38s1.86,2.73,3.18,3.7,2.87,1.69,4.64,2.15c1.77.47,3.63.71,5.57.71h40ZM227.5,314.31c-1.16-.38-2.18-.93-3.05-1.65s-1.55-1.61-2.05-2.64c-.5-1.05-.75-2.23-.75-3.55s.28-2.42.83-3.46,1.27-1.93,2.17-2.68c.9-.75,1.92-1.33,3.07-1.72,1.15-.4,2.33-.59,3.54-.59h3.49v16.88h-3.49c-1.33,0-2.58-.19-3.74-.57Z"/>
      <rect class="st6" x="197.14" y="286.78" width="3.54" height="31.63"/>
      <rect class="st6" x="234.62" y="286.78" width="3.63" height="3.63"/>
      <rect class="st6" x="269.12" y="322.55" width="3.63" height="3.63"/>
      <rect class="st6" x="34.78" y="322.59" width="3.63" height="3.63"/>
      <path class="st6" d="M183.31,314.88h-5.78c-2.06,0-3.68-.29-4.86-.88s-2.11-1.47-2.79-2.64c.21-.91.31-2.02.31-3.3v-11.38h-3.54v11.94c0,2.03-.55,3.66-1.64,4.88s-2.74,1.83-4.95,1.83c-1.03,0-1.97-.16-2.83-.49s-1.59-.77-2.21-1.33-1.11-1.21-1.46-1.96c-.35-.75-.55-1.55-.57-2.4v-12.47h-3.54v12.2c0,1.09-.16,2-.49,2.76s-.77,1.37-1.33,1.86c-.56.49-1.19.84-1.9,1.06s-1.46.32-2.25.32h-6.84v-18.2h-3.54v18.2h-18.51l6.18-14.77c-.94-.83-1.95-1.59-3.01-2.31-1.06-.72-2.15-1.36-3.27-1.9s-2.25-.97-3.4-1.28c-1.15-.31-2.28-.46-3.4-.46s-2.3.16-3.45.46c-1.15.31-2.28.72-3.42,1.25s-2.23,1.16-3.27,1.9-2.02,1.5-2.93,2.33l6.22,14.77h-12.23v-20.4h-5.64c-2.18,0-4.17.31-5.97.93s-3.33,1.46-4.61,2.53c-1.28,1.08-2.27,2.36-2.98,3.83-.71,1.49-1.06,3.1-1.06,4.83,0,2.09.38,3.88,1.16,5.35.78,1.49,1.84,2.71,3.18,3.66,1.34.96,2.89,1.67,4.66,2.11,1.77.46,3.64.68,5.62.68h2.12v1.02c0,1.86-.53,3.17-1.59,3.96s-2.55,1.19-4.47,1.19c-1.09,0-2.06-.1-2.93-.31-.87-.21-1.86-.56-2.98-1.06l-1.11,3.39c1.36.5,2.55.87,3.6,1.12s2.09.38,3.15.38c3.45,0,5.94-.81,7.5-2.45,1.56-1.64,2.34-3.83,2.34-6.59v-.66h54.89c1.71,0,3.23-.37,4.57-1.11s2.42-1.72,3.24-2.95c.85,1.41,2.02,2.52,3.49,3.3,1.47.8,3.23,1.19,5.26,1.19s3.92-.37,5.41-1.11,2.62-1.86,3.42-3.39c.29.5.65.99,1.08,1.47s.97.91,1.65,1.3c.68.38,1.5.69,2.45.93.72.18,1.59.27,2.53.31v.04h10.2v-31.63h-3.54v28.12h.06ZM85.1,314.88h-3.58c-1.33,0-2.56-.18-3.73-.55s-2.18-.9-3.07-1.61-1.58-1.58-2.08-2.59c-.5-1.03-.75-2.21-.75-3.52s.27-2.42.81-3.48c.55-1.06,1.27-1.96,2.17-2.71s1.92-1.33,3.07-1.74,2.34-.62,3.58-.62h3.58v16.82ZM104.58,314.88l-5.51-13.53c1.36-1.15,2.74-1.99,4.17-2.51,1.43-.53,2.92-.8,4.48-.8s3.17.31,4.73.94c1.56.63,2.89,1.41,3.98,2.36l-5.51,13.53h-6.34Z"/>
      <rect class="st6" x="16.51" y="286.78" width="3.63" height="3.63"/>
      <rect class="st6" x="373.81" y="286.78" width="3.63" height="3.63"/>
      <rect class="st6" x="342.52" y="286.78" width="3.54" height="31.63"/>
      <rect class="st6" x="228.43" y="286.78" width="3.63" height="3.63"/>
      <path class="st6" d="M62.76,304.54c0-1.39-.18-2.67-.56-3.88-.37-1.21-.93-2.23-1.69-3.08-.94-1.03-1.99-1.8-3.15-2.31s-2.58-.77-4.26-.77h-2.61v3.52h3.1c.85,0,1.67.19,2.43.55.77.37,1.4.84,1.9,1.43.5.62.84,1.3,1.03,2.03.19.74.29,1.62.29,2.64v10.23h-16.57v3.52h20.09v-13.88h0Z"/>
      <rect class="st6" x="529.4" y="286.78" width="3.54" height="31.63"/>
      <rect class="st6" x="380" y="286.78" width="3.63" height="3.63"/>
      <path class="st6" d="M519.11,286.78h-3.54v28.11h-12.14c.74-1.62,1.11-3.35,1.11-5.2s-.34-3.52-.99-5.08c-.66-1.58-1.56-2.93-2.71-4.07-1.15-1.15-2.51-2.05-4.08-2.71-1.58-.66-3.27-.99-5.1-.99s-3.42.34-4.95,1.02c-1.53.68-2.86,1.59-3.99,2.76s-2.02,2.52-2.67,4.08-.97,3.23-.97,5.03c0,.94.1,1.84.29,2.71s.44,1.69.77,2.49h-10.95c.74-1.62,1.11-3.35,1.11-5.2s-.34-3.52-.99-5.08c-.66-1.58-1.56-2.93-2.71-4.07-1.15-1.15-2.51-2.05-4.08-2.71-1.58-.66-3.27-.99-5.1-.99s-3.4.34-4.94,1.02-2.86,1.59-3.99,2.76-2.02,2.52-2.67,4.08-.97,3.23-.97,5.03c0,.94.1,1.84.29,2.71s.44,1.69.77,2.49h-11.22v-28.11h-3.54v28.11h-11.26v-5.39c0-1.36-.18-2.64-.53-3.86s-.91-2.25-1.68-3.11c-.91-1.03-1.95-1.8-3.1-2.3s-2.61-.75-4.38-.75h-15.64l6.65-12.7h-3.85l-6.78,12.66c.12.77.29,1.43.56,1.99.25.56.59,1.09,1.03,1.59h18.01c1.12,0,2.08.16,2.89.52.81.34,1.46.8,1.96,1.39s.84,1.27,1.02,2.03c.18.77.27,1.62.27,2.55v5.39h-32.67v-20.4h-5.57c-2.21,0-4.22.29-6,.9-1.8.6-3.33,1.44-4.6,2.51-1.27,1.08-2.24,2.34-2.93,3.82s-1.03,3.05-1.03,4.76c0,2.09.4,3.88,1.19,5.38s1.86,2.73,3.18,3.7,2.87,1.69,4.64,2.15c1.77.47,3.63.71,5.56.71h70.08c1.15,1.24,2.51,2.21,4.08,2.93,1.58.72,3.29,1.08,5.14,1.08s3.64-.35,5.28-1.06,3.04-1.69,4.22-2.95h15.55c1.15,1.24,2.51,2.21,4.08,2.93,1.58.72,3.29,1.08,5.14,1.08s3.64-.35,5.28-1.06,3.04-1.69,4.22-2.95h17.97v-31.69h0ZM380.1,314.88h-3.49c-1.33,0-2.56-.19-3.73-.57s-2.18-.93-3.05-1.65-1.55-1.61-2.05-2.64c-.5-1.05-.75-2.23-.75-3.55s.27-2.42.81-3.46,1.27-1.93,2.17-2.68c.9-.75,1.92-1.33,3.07-1.72,1.15-.4,2.33-.59,3.54-.59h3.49v16.88h0ZM466.01,313.32c-.49,1.13-1.15,2.11-1.99,2.93s-1.83,1.46-2.96,1.92c-1.13.46-2.36.68-3.68.68s-2.49-.25-3.6-.72c-1.11-.49-2.06-1.15-2.87-1.99-.81-.84-1.44-1.81-1.9-2.93-.46-1.12-.68-2.31-.68-3.57s.24-2.46.68-3.6c.46-1.13,1.09-2.11,1.89-2.95s1.74-1.5,2.84-2,2.31-.75,3.64-.75,2.59.24,3.73.71,2.12,1.12,2.96,1.95,1.49,1.8,1.96,2.93c.47,1.13.71,2.37.71,3.73.01,1.31-.24,2.54-.72,3.67ZM500.27,313.32c-.49,1.13-1.15,2.11-1.99,2.93s-1.83,1.46-2.96,1.92c-1.13.46-2.36.68-3.68.68s-2.49-.25-3.6-.72c-1.11-.49-2.06-1.15-2.87-1.99-.81-.84-1.44-1.81-1.9-2.93-.46-1.12-.69-2.31-.69-3.57s.24-2.46.69-3.6,1.08-2.11,1.87-2.95c.8-.84,1.74-1.5,2.84-2s2.31-.75,3.64-.75,2.59.24,3.73.71,2.12,1.12,2.96,1.95,1.49,1.8,1.96,2.93c.47,1.13.71,2.37.71,3.73.03,1.31-.22,2.54-.71,3.67Z"/>
      <path class="st6" d="M9.02,317.7c1.77.47,3.63.71,5.56.71h23.14v-23.93h-3.54v20.4h-14.05v-20.4h-5.57c-2.21,0-4.2.29-6,.9s-3.33,1.44-4.6,2.51c-1.27,1.08-2.24,2.34-2.93,3.82S0,304.74,0,306.45c0,2.09.4,3.88,1.19,5.38s1.86,2.73,3.18,3.7c1.33.99,2.87,1.71,4.64,2.17ZM3.54,306.47c0-1.27.28-2.42.83-3.46.55-1.05,1.27-1.93,2.17-2.68s1.92-1.33,3.07-1.72c1.15-.4,2.33-.59,3.54-.59h3.49v16.88h-3.49c-1.33,0-2.56-.19-3.73-.57s-2.18-.93-3.05-1.65-1.55-1.61-2.05-2.64c-.52-1.05-.77-2.23-.77-3.55Z"/>
      <rect class="st6" x="256.21" y="322.59" width="3.63" height="3.63"/>
      <rect class="st6" x="250.02" y="322.59" width="3.63" height="3.63"/>
      <path class="st6" d="M286.45,322.88c.22-1.11.34-2.34.34-3.73v-.75h45.44v-31.63h-3.54v28.11h-15.02l6.18-14.77c-.94-.83-1.95-1.59-3.01-2.31-1.06-.72-2.15-1.36-3.27-1.9s-2.25-.97-3.4-1.28c-1.15-.31-2.28-.46-3.4-.46s-2.3.16-3.45.46c-1.15.31-2.28.72-3.42,1.25-1.13.53-2.23,1.16-3.27,1.9s-2.02,1.5-2.93,2.33l6.22,14.77h-13.16v-20.4h-3.54v24.69c0,1-.04,1.84-.15,2.53s-.28,1.25-.53,1.68c-.25.43-.59.74-1.02.93s-.97.29-1.65.29c-.32,0-.6-.01-.84-.04s-.56-.1-.97-.22l-.93,3.39c.97.27,1.93.4,2.87.4,1.27,0,2.33-.21,3.2-.62.87-.41,1.56-1,2.09-1.78.57-.78.94-1.72,1.16-2.83ZM298.14,301.35c1.36-1.15,2.74-1.99,4.17-2.51,1.43-.53,2.92-.8,4.48-.8s3.17.31,4.73.94,2.89,1.41,3.98,2.36l-5.51,13.53h-6.31l-5.54-13.53Z"/>
      <rect class="st6" x="10.32" y="286.78" width="3.63" height="3.63"/>
      <polygon class="st6" points="25.35 341.57 19.91 341.57 7.9 354.25 7.9 341.57 3.46 341.57 3.46 366.76 7.9 366.76 7.9 359.46 11.83 355.43 20.44 366.76 25.82 366.76 14.86 352.41 25.35 341.57"/>
      <rect class="st6" x="29.86" y="341.57" width="4.44" height="25.19"/>
      <polygon class="st6" points="58.75 358.99 45.23 341.57 41.12 341.57 41.12 366.76 45.48 366.76 45.48 348.84 59.39 366.76 63.11 366.76 63.11 341.57 58.75 341.57 58.75 358.99"/>
      <path class="st6" d="M81.47,356.55h6.46v4.72c-1.55,1.15-3.71,1.9-6.09,1.9-5.16,0-8.58-3.82-8.58-8.99v-.07c0-4.82,3.52-8.89,8.18-8.89,3.21,0,5.11,1.05,7.06,2.7l2.82-3.35c-2.59-2.2-5.31-3.42-9.7-3.42-7.6,0-13.01,5.97-13.01,13.03v.07c0,7.34,5.19,12.95,13.09,12.95,4.47,0,8.05-1.8,10.52-3.92v-10.58h-10.74v3.85Z"/>
      <path class="st6" d="M107.74,341.57h-9.4v25.19h9.4c7.93,0,13.41-5.5,13.41-12.6v-.07c0-7.07-5.48-12.51-13.41-12.51ZM116.51,354.25c0,4.92-3.46,8.49-8.75,8.49h-4.97v-17.13h4.97c5.31,0,8.75,3.64,8.75,8.56v.07Z"/>
      <path class="st6" d="M138.54,341.15c-7.75,0-13.22,5.94-13.22,13.03v.07c0,7.09,5.41,12.95,13.16,12.95s13.23-5.94,13.23-13.03v-.07c-.03-7.09-5.44-12.95-13.18-12.95ZM147.04,354.25c0,4.89-3.49,8.89-8.5,8.89s-8.58-4.07-8.58-8.96v-.07c0-4.89,3.49-8.89,8.5-8.89s8.58,4.07,8.58,8.96v.07Z"/>
      <polygon class="st6" points="169.59 353.48 161.91 341.57 157.2 341.57 157.2 366.76 161.56 366.76 161.56 348.78 169.46 360.57 169.59 360.57 177.57 348.71 177.57 366.76 182 366.76 182 341.57 177.27 341.57 169.59 353.48"/>
      <path class="st6" d="M211.42,341.15c-7.75,0-13.22,5.94-13.22,13.03v.07c0,7.09,5.41,12.95,13.16,12.95s13.23-5.94,13.23-13.03v-.07c-.01-7.09-5.42-12.95-13.18-12.95ZM219.92,354.25c0,4.89-3.49,8.89-8.5,8.89s-8.58-4.07-8.58-8.96v-.07c0-4.89,3.49-8.89,8.5-8.89s8.58,4.07,8.58,8.96v.07Z"/>
      <polygon class="st6" points="230.09 366.76 234.53 366.76 234.53 356.5 247.25 356.5 247.25 352.48 234.53 352.48 234.53 345.61 248.87 345.61 248.87 341.57 230.09 341.57 230.09 366.76"/>
      <path class="st6" d="M274.29,352.15c-4.83-1.15-5.98-2.02-5.98-3.95v-.07c0-1.65,1.52-2.99,4.11-2.99,2.31,0,4.58.9,6.85,2.59l2.37-3.35c-2.56-2.05-5.48-3.17-9.15-3.17-5.01,0-8.62,2.99-8.62,7.3v.07c0,4.64,3.04,6.22,8.4,7.52,4.69,1.08,5.69,2.05,5.69,3.85v.09c0,1.92-1.72,3.17-4.47,3.17-3.14,0-5.56-1.19-7.97-3.27l-2.67,3.17c3.04,2.7,6.66,4.02,10.52,4.02,5.31,0,9.01-2.8,9.01-7.52v-.07c.01-4.19-2.76-6.09-8.09-7.38Z"/>
      <path class="st6" d="M295.99,341.4l-11.1,25.36h4.54l2.59-6.09h11.94l2.56,6.09h4.69l-11.1-25.36h-4.13ZM293.64,356.77l4.33-10.08,4.36,10.08h-8.7Z"/>
      <path class="st6" d="M330.96,356.08c0,4.64-2.42,7.02-6.35,7.02s-6.38-2.52-6.38-7.19v-14.33h-4.44v14.5c0,7.3,4.19,11.08,10.74,11.08s10.85-3.77,10.85-11.29v-14.28h-4.44v14.49h.01Z"/>
      <path class="st6" d="M351.3,341.57h-9.4v25.19h9.4c7.93,0,13.41-5.5,13.41-12.6v-.07c0-7.07-5.48-12.51-13.41-12.51ZM360.05,354.25c0,4.92-3.46,8.49-8.75,8.49h-4.97v-17.13h4.97c5.31,0,8.75,3.64,8.75,8.56v.07Z"/>
      <rect class="st6" x="370.33" y="341.57" width="4.44" height="25.19"/>
      <path class="st6" d="M401.25,341.4l-11.1,25.36h4.54l2.59-6.09h11.94l2.56,6.09h4.69l-11.1-25.36h-4.13ZM398.9,356.77l4.33-10.08,4.36,10.08h-8.7Z"/>
      <path class="st6" d="M441.28,349.61v-.07c0-2.2-.75-4.07-2.09-5.44-1.62-1.58-4.11-2.52-7.28-2.52h-11.25v25.19h4.44v-8.78h5.56l6.2,8.78h5.23l-6.81-9.54c3.51-1,6-3.49,6-7.62ZM425.09,354.06v-8.46h6.46c3.29,0,5.23,1.47,5.23,4.17v.07c0,2.55-2.02,4.22-5.19,4.22h-6.5Z"/>
      <path class="st6" d="M456.43,341.4l-11.1,25.36h4.54l2.59-6.09h11.94l2.56,6.09h4.69l-11.1-25.36h-4.13ZM454.08,356.77l4.33-10.08,4.36,10.08h-8.7Z"/>
      <path class="st6" d="M491.83,353.67c1.87-.97,3.61-2.59,3.61-5.62v-.07c0-1.69-.57-3.05-1.69-4.17-1.44-1.44-3.71-2.23-6.6-2.23h-11.32v25.19h11.67c5.63,0,9.33-2.4,9.33-6.91v-.07c.01-3.42-2.03-5.11-5-6.12ZM480.19,345.49h6.38c2.84,0,4.44,1.22,4.44,3.2v.07c0,2.3-1.92,3.42-4.76,3.42h-6.06v-6.69ZM492.4,359.39c0,2.27-1.84,3.45-4.86,3.45h-7.35v-6.91h7.03c3.49,0,5.19,1.27,5.19,3.39v.07Z"/>
      <rect class="st6" x="502.34" y="341.57" width="4.44" height="25.19"/>
      <path class="st6" d="M526.21,341.4h-4.11l-11.1,25.36h4.54l2.59-6.09h11.94l2.56,6.09h4.69l-11.11-25.36ZM519.76,356.77l4.33-10.08,4.36,10.08h-8.7Z"/>
    </g>
  </g>
</svg>