<?xml version="1.0" encoding="UTF-8"?>
<svg id="Layer_1" xmlns="http://www.w3.org/2000/svg" version="1.1" viewBox="0 0 603.4 144.92">
  <!-- Generator: Adobe Illustrator 29.6.0, SVG Export Plug-In . SVG Version: 2.1.1 Build 207)  -->
  <defs>
    <style>
      .st0 {
        fill: #2a4b8f;
      }

      .st0, .st1, .st2, .st3, .st4, .st5, .st6 {
        fill-rule: evenodd;
      }

      .st1 {
        fill: #146cb5;
      }

      .st2 {
        fill: #532d7b;
      }

      .st3 {
        fill: #2b2e69;
      }

      .st4 {
        fill: #59529f;
      }

      .st5 {
        fill: #3b3b3b;
      }

      .st6 {
        fill: #75348a;
      }
    </style>
  </defs>
  <g id="Symbol">
    <g id="Molecules-_x2F_-Menu-_x2F_-Light-overlapping-_x2F_-white">
      <g id="Group">
        <path id="Fill-276" class="st5" d="M58.68,91.93c-.25,1.99-.75,3.73-1.49,5.1s-1.74,2.49-2.86,3.36-2.36,1.37-3.73,1.74-2.86.5-4.35.5-2.86-.12-4.11-.5-2.36-.87-3.36-1.74c-.87-.75-1.62-1.74-2.11-3.11-.5-1.24-.5-2.86-.37-4.6.12-1.12.5-2.36,1-3.86.5-1.49,1.24-2.99,2.24-4.35l4.73,1.74c-.37.75-.62,1.37-.87,1.87s-.5,1-.62,1.49c-.12.5-.25,1-.37,1.37-.12.5-.25,1-.25,1.37-.12,1-.12,1.87.12,2.61s.62,1.24,1.12,1.74c.5.37,1.12.75,1.74.87s1.37.25,1.99.25c1.74,0,3.11-.5,4.11-1.37s1.62-2.36,1.87-4.35l3.48-26.87h5.6l-3.48,26.75Z"/>
        <path id="Fill-278" class="st5" d="M73.85,93.29c-.12.75-.25,1.37-.25,1.74-.12.37-.12.5-.25.5-1.24,0-2.49-.12-3.61-.25s-2.11-.5-2.99-1c-.87-.5-1.49-1.12-1.99-1.99-.37-.87-.5-1.87-.37-2.99l3.11-23.76h5.6l-2.86,21.89c-.12.62-.12,1.24,0,1.74s.37.87.62,1.12c.25.25.62.37,1,.5s.87.12,1.24.12.62.25.62.62c.25.37.25.87.12,1.74"/>
        <path id="Fill-280" class="st5" d="M87.66,81.6c-.75,0-1.37.25-1.99.62s-1.12.87-1.49,1.62c-.5.62-.87,1.37-1.12,2.24-.37.87-.62,1.74-.75,2.86.75.75,1.37,1.24,1.99,1.62s1.37.5,2.24.5c1.12,0,2.11-.37,2.86-1.24.75-.75,1.24-1.87,1.37-3.11.25-1.62,0-2.86-.5-3.73-.5-.87-1.37-1.37-2.61-1.37h0ZM73.35,95.53c-.62,0-1.12-.12-1.49-.5-.37-.37-.37-.87-.37-1.62.12-.75.25-1.37.62-1.74.25-.37.62-.62,1.12-.62h1.12c.5,0,1-.12,1.24-.25.37-.25.62-.5.87-.75.25-.37.37-.75.5-1.12.12-.5.37-1,.5-1.62.25-1.49.75-2.86,1.37-4.11s1.37-2.36,2.36-3.23c.87-.87,1.99-1.62,3.11-2.11,1.24-.5,2.49-.75,3.86-.75,1.49,0,2.86.25,3.98.75,1.12.5,2.11,1.12,2.74,1.99.75.87,1.24,1.87,1.49,2.99s.25,2.36.12,3.73c-.12.5-.12,1-.25,1.49-.12.5-.25.87-.37,1.37.25.5.75,1,1.37,1.24.62.37,1.37.5,2.11.5.37,0,.62.25.62.62.12.37.12,1,0,1.74-.12.5-.12.87-.12,1.24,0,.25-.12.5-.12.75,0,.12-.12.25-.12.25,0,0,0,.12-.12.12-.5,0-.87,0-1.49-.12-.5-.12-1-.25-1.62-.37-.5-.25-1-.5-1.49-.87-.5-.37-.87-.87-1.24-1.37-1.12,1-2.24,1.74-3.48,2.24s-2.49.62-3.86.62c-1.24,0-2.36-.12-3.36-.5-1-.37-1.99-1-2.99-1.87-.75.87-1.62,1.37-2.36,1.74-.75.25-1.74.5-3.11.5h-1.12v-.37Z"/>
        <path id="Fill-282" class="st5" d="M99.35,95.53c-.75,0-1.24-.12-1.49-.5s-.37-.87-.37-1.62c.12-.75.25-1.37.62-1.74.25-.37.62-.62,1.12-.62h3.73c-.37-.75-.62-1.49-.87-2.36-.12-.75-.25-1.62-.12-2.36.25-1.49.62-2.86,1.37-4.11s1.62-2.11,2.61-2.86,2.24-1.37,3.48-1.74c1.24-.37,2.61-.62,3.98-.62,1,0,2.11.12,3.11.25,1.12.12,1.99.37,2.61.62l-1.49,4.35c-.37-.12-1-.25-1.74-.37-.75-.12-1.62-.12-2.36-.12-.62,0-1.12.12-1.87.25-.62.12-1.24.37-1.74.75-.62.37-1,.87-1.49,1.37-.37.62-.75,1.37-.75,2.24-.25,1.49.12,2.61,1,3.48.87.87,2.11,1.24,3.86,1.24h5.6l-.62,4.6h-18.16v-.12Z"/>
        <path id="Fill-284" class="st5" d="M129.83,65.18c-.25-.75-.37-1.37-.37-1.99.12-1.24.75-2.24,1.62-2.99.87-.75,2.11-1.12,3.48-1.12.37,0,.75,0,1.12.12.37,0,.87.12,1.24.25l-.87,2.24c-.5-.25-1.12-.25-1.74-.25-.75,0-1.37.12-1.74.5s-.62.75-.75,1.37.12,1.12.5,1.49c.37.37,1,.5,1.74.5h2.49l-.25,2.36h-8.33l.25-2.36h1.62v-.12ZM129.09,70.03h5.6l-2.49,18.91h-5.6l2.49-18.91ZM141.77,92.8c-.75,1-1.74,1.62-2.86,2.11-1.12.37-2.49.62-4.11.62h-13.06l.62-4.6h10.7c1.62,0,2.86-.37,3.61-1.12.75-.75,1.24-1.99,1.49-3.86l2.61-20.53h5.6l-2.74,21.52c-.12,1.24.12,2.11.87,2.86.75.75,1.74,1.12,3.23,1.12.37,0,.75.12.87.5.12.37.12.87.12,1.74-.12,1-.25,1.62-.37,1.87s-.25.5-.37.5c-.5,0-1.12,0-1.74-.12s-1.24-.25-1.74-.5c-.5-.25-1-.5-1.49-.87-.5-.25-.87-.75-1.24-1.24h0Z"/>
        <path id="Fill-286" class="st5" d="M147.75,90.93c.87,0,1.62-.12,2.11-.25.62-.12,1-.37,1.37-.75.37-.37.62-.75.75-1.12.12-.5.25-1,.37-1.62l2.74-21.65h5.6l-2.86,22.64c-.12,1.24-.5,2.36-.87,3.23s-1,1.62-1.74,2.24c-.75.62-1.74,1.12-2.99,1.37s-2.61.5-4.35.5c-.62,0-1.12-.12-1.49-.5s-.37-.87-.37-1.62c.12-.75.25-1.37.62-1.74.37-.5.75-.75,1.12-.75"/>
        <path id="Fill-288" class="st5" d="M184.69,105.73c.12-.87.5-1.49,1.12-2.11.62-.5,1.37-.87,2.24-.87s1.49.25,1.99.87c.5.5.62,1.24.5,2.11s-.5,1.62-1.12,2.11c-.62.5-1.37.87-2.11.87-.87,0-1.49-.25-1.99-.87s-.75-1.24-.62-2.11M177.48,105.73c.12-.87.5-1.49,1.12-2.11.62-.5,1.37-.87,2.24-.87s1.49.25,1.99.87c.5.5.62,1.24.5,2.11s-.5,1.62-1.12,2.11c-.62.5-1.37.87-2.11.87-.87,0-1.49-.25-1.99-.87s-.75-1.24-.62-2.11M178.1,89.19c-.25,1.87.37,3.36,1.74,4.23,1.37,1,3.48,1.37,6.47,1.37,1.37,0,2.61-.12,3.73-.25s1.99-.37,2.86-.62c.75-.25,1.37-.62,1.87-1,.37-.37.62-.75.75-1,0-.5-.25-1-1-1.62s-1.87-1.24-3.36-2.11c-1.62-.87-2.86-1.87-3.61-2.86-.75-1-1-2.36-.87-3.86.12-1,.5-1.99,1-2.99.5-.87,1.24-1.74,2.11-2.49s1.99-1.24,3.23-1.62,2.74-.62,4.23-.62h1.12c.37,0,.87.12,1.37.12.5.12.87.12,1.37.25.37.12.75.25,1.12.37l-1.49,4.11c-.37-.12-.87-.25-1.49-.37s-1.37-.12-1.99-.12c-.5,0-1,0-1.49.12s-1.12.25-1.62.5c-.5.25-1,.5-1.24.87-.37.37-.5.87-.62,1.37,0,.37,0,.75.25,1.12.25.37.5.75.87,1.12.37.37.87.75,1.37,1,.5.37,1,.62,1.62.87.75.37,1.37.87,1.99,1.24s1.12.87,1.62,1.37c.37.5.75,1,1,1.62.25.62.25,1.24.25,1.99-.12,1.24-.62,2.24-1.37,3.23-.75,1-1.74,1.87-2.99,2.49-1.24.75-2.86,1.24-4.6,1.62s-3.86.62-6.1.62c-2.36,0-4.35-.12-6.1-.5s-3.23-1-4.48-1.74c-1.24-.87-1.99-1.87-2.61-3.11-.5-1.24-.62-2.86-.37-4.6.12-1,.5-2.11,1-3.61.5-1.37,1.24-2.86,2.24-4.35l4.73,1.87c-.5,1-1,1.99-1.49,3.11-.62,1.12-1,1.99-1,2.86"/>
        <path id="Fill-290" class="st5" d="M211.44,90.93c1.37,0,2.36-.25,2.99-.87.75-.5,1.12-1.49,1.37-2.99l.12-1c.12-1.37-.12-2.49-1-3.11-.87-.75-2.11-1.12-3.86-1.12h-3.86l.62-4.6h4.98c1.74,0,3.11.25,4.35.62s2.11,1,2.86,1.62c.75.75,1.24,1.49,1.49,2.49s.37,1.99.25,3.11l-.37,2.74c-.37,2.74-1.12,4.73-2.36,5.85-1.24,1.24-3.23,1.87-5.85,1.87h-10.08l.62-4.6h7.71Z"/>
        <path id="Fill-292" class="st5" d="M231.34,86.33c-.25,1.49,0,2.74.62,3.48s1.62,1.12,3.11,1.12h3.23l.62-4.73c.12-.62.12-1.24,0-1.74,0-.5-.25-1-.37-1.49-.25-.5-.5-.75-1-1-.37-.25-1-.37-1.49-.37s-1,.12-1.49.25c-.5.12-1,.5-1.37.87s-.75.87-1.12,1.49c-.5.62-.75,1.24-.75,2.11M232.09,98.15c.87,0,1.49,0,2.24-.12.62-.12,1.24-.25,1.62-.37.5-.25.87-.5,1.12-.87.25-.37.37-.87.5-1.37h-3.86c-1.37,0-2.61-.12-3.61-.5-1.12-.37-1.99-.87-2.74-1.49-.75-.75-1.24-1.62-1.62-2.74-.37-1.12-.37-2.36-.25-3.86.12-1.24.5-2.49,1.12-3.73.5-1.24,1.24-2.24,2.24-3.23s2.11-1.62,3.36-2.24c1.24-.5,2.74-.87,4.35-.87,1.24,0,2.36.25,3.36.62s1.99,1,2.74,1.62c.75.75,1.24,1.62,1.62,2.74s.37,2.36.25,3.86l-.62,5.1h2.99c.37,0,.62.12.75.5s.12,1,.12,1.74c-.12.87-.25,1.49-.37,1.87-.12.25-.25.37-.37.37h-3.73c-.37,1.24-.87,2.36-1.49,3.36-.62.87-1.49,1.62-2.49,2.24s-2.11,1-3.36,1.24-2.61.37-4.11.37c-.87,0-1.74,0-2.61-.12-.87-.12-1.74-.25-2.49-.5l1.37-4.35c.62.12,1.24.25,1.99.37.5.37,1.24.37,1.99.37"/>
        <path id="Fill-294" class="st5" d="M259.08,81.6c-.5,0-1,0-1.49.12-.5.12-1,.12-1.37.25-.5.12-.87.25-1.24.37s-.62.25-.75.37c1,.87,1.99,1.87,2.61,2.86.75,1,1.37,1.87,1.87,2.86.37-.25.87-.5,1.37-.87s.87-.75,1.24-1.12c.37-.37.75-.75.87-1.24.25-.37.37-.87.5-1.37,0-.25,0-.5-.12-.75-.12-.25-.25-.5-.62-.75-.25-.25-.62-.37-1.12-.5-.5-.25-1-.25-1.74-.25h0ZM246.89,95.53c-.75,0-1.24-.25-1.49-.62s-.37-.87-.37-1.62c.12-.75.25-1.37.62-1.74.25-.37.62-.62,1.12-.62h4.35c.75,0,1.49,0,2.11-.12s1.12-.25,1.49-.37c-.62-.62-1.12-1.24-1.49-1.74-.5-.5-.87-1-1.37-1.37-.37-.37-.87-.87-1.37-1.24s-1.12-.87-1.87-1.24c0-.25.12-.62.25-1.12s.25-1,.37-1.49c.12-.5.25-1,.5-1.37.12-.37.25-.75.37-1,.5-.25,1.12-.62,1.87-.87s1.49-.62,2.36-.87c.87-.25,1.74-.5,2.61-.62s1.74-.25,2.61-.25c1.37,0,2.49.12,3.61.37s2.11.62,2.86,1.24c.75.5,1.37,1.12,1.87,1.99.37.75.5,1.74.37,2.74-.12.75-.37,1.37-.62,2.11-.37.75-.87,1.37-1.37,1.99s-1.24,1.24-1.87,1.87c-.75.62-1.49,1.12-2.36,1.49.37.12.75.12,1.37.25h5.6c.37,0,.62.12.75.5s.12,1,.12,1.74c-.12,1-.25,1.62-.37,1.87-.12.25-.25.37-.37.37h-5.72c-1.49,0-2.61-.12-3.73-.5-1-.25-1.87-.62-2.36-1.12-1,.5-2.24.87-3.48,1.12-1.24.25-2.61.5-3.86.5h-3.11v-.25Z"/>
        <path id="Fill-296" class="st5" d="M282.84,95.53c-1.37,0-2.49-.25-3.48-.62-1-.5-1.62-1.12-1.99-1.87-.75.87-1.74,1.49-3.11,1.87s-2.99.62-5.1.62c-.62,0-1.12-.12-1.49-.5-.37-.37-.37-.87-.37-1.62.12-.75.25-1.37.62-1.74s.62-.62,1.12-.62c1.49,0,2.61-.25,3.36-.75s1.12-1.49,1.37-2.99l.87-6.34h5.6l-.87,6.84c0,.5-.12.87,0,1.24,0,.37.12.75.37,1,.12.25.5.5.87.75.37.12.87.25,1.49.25,1,0,1.62-.25,2.11-.75.5-.5.87-1.49,1-3.11l.87-6.34h5.6l-.87,6.84c0,.5-.12.87,0,1.24,0,.37.12.75.25,1,.12.25.5.5.87.75.37.12.87.25,1.49.25,1,0,1.74-.25,2.11-.75.5-.5.75-1.49,1-2.99l1.24-9.95h5.6l-1.24,9.7c-.12,1.12.12,2.11.87,2.86s1.74,1.12,3.23,1.12c.37,0,.75.12.87.5s.12.87.12,1.74c-.12,1-.25,1.62-.37,1.87-.12.25-.25.5-.37.5-.5,0-1.12,0-1.62-.12-.62-.12-1.12-.25-1.74-.37-.62-.25-1.12-.5-1.62-.87-.5-.37-.87-.75-1.12-1.24-.75.87-1.49,1.49-2.49,1.99-1,.37-2.11.62-3.36.62-1.37,0-2.49-.25-3.48-.62-.87-.5-1.62-1.12-1.87-1.87-1.87,1.62-3.86,2.49-6.34,2.49"/>
        <path id="Fill-298" class="st5" d="M305.98,90.93c.87,0,1.62-.12,2.11-.25.62-.12,1-.37,1.37-.75.37-.37.62-.75.75-1.12.12-.5.25-1,.37-1.62l2.74-21.65h5.6l-2.86,22.64c-.12,1.24-.5,2.36-.87,3.23-.37.87-1,1.62-1.74,2.24s-1.74,1.12-2.99,1.37-2.61.5-4.35.5c-.62,0-1.24-.12-1.49-.5-.37-.37-.37-.87-.37-1.62.12-.75.25-1.37.62-1.74.25-.5.62-.75,1.12-.75"/>
        <polygon id="Fill-300" class="st5" points="329.99 65.55 326.13 95.53 320.54 95.53 324.39 65.55 329.99 65.55"/>
        <path id="Fill-302" class="st5" d="M347.41,70.4c.12-.87.5-1.49,1.12-2.11.62-.5,1.37-.87,2.24-.87s1.49.25,1.99.87c.5.5.62,1.24.5,2.11s-.5,1.62-1.12,2.11-1.37.87-2.11.87c-.87,0-1.49-.25-1.99-.87-.5-.62-.75-1.37-.62-2.11M341.68,102.62c-.87,0-1.62,0-2.24-.12s-1.24-.25-1.62-.37l1.24-4.35c.37,0,.62.12.87.12s.62.12.87.12c1,0,1.87-.25,2.36-.87s.87-1.62,1-2.86l2.11-16.92h5.6l-1.74,13.68h3.48c.37,0,.62.12.87.5.12.37.12,1,.12,1.74-.12.87-.25,1.49-.37,1.74-.12.25-.25.5-.37.5h-4.11c-.25,1.49-.62,2.61-1.12,3.61-.5.87-1.12,1.62-1.87,2.24-.75.5-1.49.87-2.36,1.12-1,0-1.87.12-2.74.12"/>
        <path id="Fill-304" class="st5" d="M353.87,95.53c-.62,0-1.12-.12-1.49-.5-.37-.37-.5-.87-.37-1.62.12-.75.25-1.37.62-1.74.25-.37.62-.62,1.12-.62h11.94c1.37,0,2.49-.25,3.11-.87s1.12-1.62,1.24-2.86l.12-1.12c.37-2.86-1.12-4.23-4.48-4.23h-8.83l.62-4.6,12.56-11.69,3.36,3.48-8.96,8.21h3.23c1.62,0,2.99.25,4.11.62s1.99,1,2.61,1.62c.62.75,1.12,1.49,1.37,2.49s.25,1.99.12,3.11l-.37,2.74c-.37,2.74-1.12,4.73-2.49,5.97s-3.23,1.74-5.85,1.74h-13.31v-.12Z"/>
        <path id="Fill-306" class="st5" d="M378.88,102.62c-.87,0-1.62,0-2.24-.12s-1.24-.25-1.62-.37l1.24-4.35c.37,0,.62.12.87.12s.62.12.87.12c1,0,1.87-.25,2.36-.87s.87-1.62,1-2.86l2.24-16.92h5.6l-1.74,13.68h3.48c.37,0,.62.12.75.5s.12,1,.12,1.74c-.12.87-.25,1.49-.37,1.74-.12.25-.25.5-.37.5h-4.11c-.25,1.49-.62,2.61-1.12,3.61-.5.87-1.12,1.62-1.87,2.24-.75.5-1.49.87-2.36,1.12-1,0-1.87.12-2.74.12"/>
        <path id="Fill-308" class="st5" d="M405.38,81.6c-.75,0-1.37.25-1.99.62s-1.12.87-1.49,1.62c-.5.62-.87,1.37-1.12,2.24-.37.87-.62,1.74-.75,2.86.75.75,1.37,1.24,1.99,1.62s1.37.5,2.24.5c1.12,0,2.11-.37,2.86-1.24.75-.75,1.24-1.87,1.37-3.11.25-1.62,0-2.86-.5-3.73-.5-.87-1.37-1.37-2.61-1.37h0ZM391.07,95.53c-.62,0-1.24-.12-1.49-.5-.37-.37-.37-.87-.37-1.62.12-.75.25-1.37.62-1.74.25-.37.62-.62,1.12-.62h1.12c.5,0,1-.12,1.24-.25.37-.25.62-.5.87-.75.25-.37.37-.75.5-1.12.12-.5.37-1,.5-1.62.25-1.49.75-2.86,1.37-4.11s1.37-2.36,2.36-3.23c.87-.87,1.99-1.62,3.11-2.11,1.24-.5,2.49-.75,3.86-.75,1.49,0,2.86.25,3.98.75,1.12.5,2.11,1.12,2.74,1.99.75.87,1.24,1.87,1.49,2.99s.25,2.36.12,3.73c-.12.5-.12,1-.25,1.49s-.25.87-.37,1.37c.25.5.75,1,1.37,1.24.62.37,1.37.5,2.11.5.37,0,.62.25.62.62.12.37.12,1,0,1.74-.12.5-.12.87-.12,1.24,0,.25-.12.5-.12.75,0,.12-.12.25-.12.25,0,0,0,.12-.12.12-.5,0-.87,0-1.49-.12-.5-.12-1-.25-1.62-.37-.5-.25-1-.5-1.49-.87-.5-.37-.87-.87-1.24-1.37-1.12,1-2.24,1.74-3.48,2.24s-2.49.62-3.86.62c-1.24,0-2.36-.12-3.36-.5-1-.37-1.99-1-2.99-1.87-.75.87-1.62,1.37-2.36,1.74-.75.25-1.74.5-3.11.5h-1.12v-.37Z"/>
        <path id="Fill-310" class="st5" d="M416.95,90.93c.87,0,1.49-.12,2.11-.25s1-.37,1.37-.75c.37-.37.62-.75.75-1.12.12-.5.25-1,.37-1.62l2.74-21.65h5.6l-2.86,22.64c-.12,1.24-.5,2.36-.87,3.23-.37.87-1,1.62-1.74,2.24s-1.74,1.12-2.99,1.37-2.61.5-4.35.5c-.62,0-1.24-.12-1.49-.5-.37-.37-.37-.87-.37-1.62.12-.75.25-1.37.62-1.74.37-.5.75-.75,1.12-.75"/>
        <polygon id="Fill-312" class="st5" points="440.95 65.55 437.1 95.53 431.5 95.53 435.36 65.55 440.95 65.55"/>
        <path id="Fill-314" class="st5" d="M19.61,120.54c-1-.37-1.99-.62-2.99-.87-1-.12-2.11-.25-3.11-.25-.62,0-1.24,0-1.74.12-.62.12-1.12.25-1.62.5-.5.25-.87.62-1.12,1-.37.37-.5.87-.62,1.49-.12.5,0,1,.12,1.37.12.37.5.75.87,1.12.37.37.87.75,1.62,1,.62.37,1.37.75,2.36,1.12,1.12.5,2.11,1,3.11,1.49.87.5,1.74,1.12,2.36,1.87s1.12,1.49,1.37,2.36.37,1.99.12,3.23c-.12,1.49-.62,2.74-1.37,3.86s-1.62,1.99-2.74,2.74c-1.12.75-2.36,1.24-3.61,1.62-1.37.37-2.74.5-4.11.5s-2.74-.12-4.23-.37c-1.49-.25-2.99-.62-4.35-1.12l1.74-4.85c1.24.5,2.61,1,3.86,1.24s2.49.37,3.48.37c1.62,0,2.86-.25,3.86-.87.87-.5,1.49-1.37,1.62-2.49.12-.5,0-1-.12-1.49-.12-.37-.5-.87-.87-1.24-.37-.37-1-.75-1.62-1.12s-1.49-.75-2.36-1.12c-1.12-.5-2.11-1-2.99-1.49-.87-.5-1.62-1.12-2.24-1.87s-1.12-1.49-1.37-2.36c-.25-.87-.37-1.87-.12-2.99.25-1.49.62-2.74,1.37-3.86s1.62-1.99,2.74-2.61,2.24-1.12,3.48-1.49c1.24-.25,2.49-.5,3.73-.5,1.37,0,2.74.12,4.11.25,1.24.12,2.49.5,3.48.75l-2.11,4.98Z"/>
        <path id="Fill-316" class="st5" d="M36.66,134.47c-1,0-1.87,0-2.74.12s-1.62.25-2.36.5c-.75.25-1.24.62-1.74,1.12-.37.5-.75,1-.75,1.74-.12.87.12,1.62.62,2.11.5.5,1.24.75,2.24.75.87,0,1.49-.12,2.24-.37.62-.25,1.24-.62,1.62-1.12.5-.5.87-1,1.12-1.62.25-.62.37-1.12.5-1.74l.25-1.49h-1ZM38.02,130.36c.12-1.12-.12-1.99-.87-2.61s-1.87-1-3.48-1c-.75,0-1.62.12-2.61.25-1,.12-1.99.5-3.11.87l-.5-4.11c1-.37,2.11-.62,3.48-.87,1.37-.25,2.61-.37,3.73-.37,3.48,0,5.97.75,7.46,2.11,1.49,1.49,1.99,3.48,1.62,6.1l-1.12,8.96c-.12.75-.12,1.62-.25,2.49s-.12,1.74,0,2.36h-5.22c-.12-.37-.12-.75-.12-1.37v-1.37h-.12c-.62,1-1.62,1.74-2.74,2.24-1.12.62-2.49.87-3.86.87-1,0-1.87-.12-2.74-.37-.87-.25-1.74-.62-2.36-1.12-.75-.5-1.24-1.24-1.49-2.11-.37-.87-.37-1.87-.25-3.11.25-1.49.75-2.86,1.49-3.86.87-1,1.87-1.74,3.23-2.24s2.86-.87,4.6-1.12c1.74-.25,3.48-.25,5.22-.25v-.37Z"/>
        <path id="Fill-318" class="st5" d="M62.03,144.42l.37-2.86h-.12c-.75,1.12-1.62,1.87-2.99,2.49-1.24.62-2.61.87-3.98.87-1.24,0-2.36-.25-3.23-.62-1-.37-1.74-.87-2.36-1.62-.62-.62-1-1.49-1.24-2.49s-.25-1.99-.12-3.23l1.87-14.18h5.85l-1.49,12.07c-.12.87-.12,1.62-.12,2.36,0,.62.12,1.24.37,1.74.25.5.62.87,1.12,1.12.5.25,1.12.37,1.87.37.62,0,1.12-.12,1.74-.37.62-.25,1.12-.5,1.62-1s.87-1.12,1.24-1.87.62-1.74.75-2.86l1.49-11.69h5.85l-2.74,21.52h-5.72v.25Z"/>
        <path id="Fill-320" class="st5" d="M79.57,133.6c-.12,1-.12,1.87-.12,2.74.12.87.25,1.62.62,2.24s.75,1.12,1.37,1.49c.62.37,1.24.5,2.11.5s1.62-.12,2.36-.5c.75-.37,1.37-.87,1.87-1.49s1-1.37,1.37-2.24c.37-.87.62-1.74.75-2.74.12-1,.12-1.87,0-2.74s-.37-1.62-.75-2.24-.87-1.12-1.49-1.37-1.37-.5-2.11-.5c-.87,0-1.62.12-2.24.5-.75.37-1.24.87-1.74,1.49s-.87,1.37-1.12,2.24c-.5.75-.75,1.62-.87,2.61h0ZM92.01,114.44h5.85l-3.86,29.98h-5.72l.37-2.74h-.12c-1,1.12-2.11,1.99-3.36,2.49s-2.49.75-3.73.75c-1.49,0-2.74-.25-3.86-.87s-1.87-1.37-2.49-2.36-1.12-2.24-1.24-3.61c-.25-1.37-.25-2.86,0-4.35.25-1.62.62-3.11,1.24-4.48s1.37-2.61,2.24-3.61c.87-1,1.99-1.74,3.23-2.36s2.61-.87,4.11-.87c1.24,0,2.36.25,3.48.62,1.12.5,1.87,1.24,2.61,2.24h.12l1.12-10.82Z"/>
        <path id="Fill-322" class="st5" d="M109.31,114.57l-.62,4.98h-5.85l.62-4.98h5.85ZM108.19,122.78l-2.74,21.52h-5.85l2.74-21.52h5.85Z"/>
        <path id="Fill-324" class="st5" d="M130.2,127.13h4.23c1.62,0,2.86-.25,3.86-.87.87-.62,1.49-1.49,1.62-2.86.12-.75,0-1.24-.12-1.74-.25-.5-.5-.75-.87-1-.37-.25-.87-.37-1.37-.5-.5-.12-1.12-.12-1.74-.12h-4.48l-1.12,7.09ZM128.59,139.57h4.85c.75,0,1.49,0,2.11-.12s1.24-.25,1.74-.62c.5-.25.87-.62,1.24-1.24.25-.5.5-1.12.62-1.87s0-1.37-.25-1.87-.62-.87-1-1.24c-.5-.25-1-.5-1.74-.62-.75-.12-1.49-.12-2.36-.12h-4.11l-1.12,7.71ZM125.85,115.19h12.19c1.24,0,2.49.12,3.48.37,1,.25,1.99.75,2.61,1.24.75.62,1.24,1.37,1.62,2.24.37.87.37,1.99.25,3.36-.25,1.87-.87,3.36-1.87,4.35s-2.24,1.74-3.61,2.24v.12c.75.25,1.37.5,1.99.87.62.37,1.12.75,1.49,1.37.37.5.75,1.24.87,1.99.12.75.25,1.74.12,2.74-.12,1.12-.5,2.11-1,3.11-.5,1-1.12,1.87-1.99,2.61-.87.75-1.99,1.37-3.11,1.74-1.24.37-2.61.62-4.35.62h-12.44l3.73-28.99Z"/>
        <path id="Fill-326" class="st5" d="M163.05,144.42l.37-2.86h-.12c-.75,1.12-1.62,1.87-2.99,2.49-1.24.62-2.61.87-3.98.87-1.24,0-2.36-.25-3.23-.62-1-.37-1.74-.87-2.36-1.62-.62-.62-1-1.49-1.24-2.49s-.25-1.99-.12-3.23l1.87-14.18h5.85l-1.49,12.07c-.12.87-.12,1.62-.12,2.36,0,.62.12,1.24.37,1.74s.62.87,1.12,1.12c.5.25,1.12.37,1.87.37.62,0,1.12-.12,1.74-.37.62-.25,1.12-.5,1.62-1,.5-.5.87-1.12,1.24-1.87s.62-1.74.75-2.86l1.49-11.69h5.85l-2.74,21.52h-5.72v.25Z"/>
        <path id="Fill-328" class="st5" d="M189.67,127.88c-1.12-.37-2.11-.75-2.99-.87-1-.12-1.87-.25-2.74-.25s-1.49.12-2.11.37c-.5.25-.87.75-1,1.37s.12,1.12.62,1.49c.5.37,1.49.87,2.99,1.24,1.12.37,2.11.75,2.86,1.12.87.37,1.49.87,2.11,1.49.5.5,1,1.24,1.12,1.87.25.75.25,1.49.12,2.49-.12,1.24-.5,2.24-1.24,3.11-.62.87-1.37,1.49-2.36,1.99-.87.5-1.87.87-2.99,1.12-1.12.25-2.24.37-3.23.37-1.37,0-2.74-.12-4.11-.37-1.37-.25-2.61-.62-3.73-1.12l1.74-4.35c1.12.5,2.36.87,3.48,1.12,1.24.25,2.24.37,3.11.37,1.12,0,1.99-.12,2.61-.37.62-.25,1-.75,1.12-1.49.12-.62-.12-1.12-.75-1.62-.62-.37-1.74-.87-3.36-1.37-2.24-.75-3.73-1.62-4.73-2.74-.87-1-1.24-2.36-1.12-3.86.12-1.12.5-2.11,1.12-2.99.62-.87,1.24-1.49,2.11-2.11.87-.5,1.87-1,2.86-1.24s2.11-.37,3.11-.37c1.12,0,2.36.12,3.61.25,1.24.25,2.36.5,3.36.87l-1.62,4.48Z"/>
        <path id="Fill-330" class="st5" d="M204.1,114.57l-.62,4.98h-5.85l.62-4.98h5.85ZM202.98,122.78l-2.74,21.52h-5.85l2.74-21.52h5.85Z"/>
        <path id="Fill-332" class="st5" d="M214.42,122.78l-.37,2.86h.12c.75-1.12,1.62-1.87,2.99-2.49,1.24-.62,2.61-.87,3.98-.87,1.24,0,2.36.12,3.23.5.87.37,1.74.87,2.36,1.62.62.75,1,1.49,1.24,2.49s.25,1.99.12,3.23l-1.87,14.18h-5.85l1.49-12.07c.12-.87.12-1.62.12-2.36s-.12-1.37-.37-1.74c-.25-.5-.62-.87-1.12-1.12-.5-.25-1.12-.37-1.87-.37-.62,0-1.12.12-1.74.25-.5.25-1.12.5-1.62,1-.5.5-1,1.12-1.37,1.87s-.62,1.74-.75,2.74l-1.49,11.69h-5.85l2.74-21.52h5.85v.12Z"/>
        <path id="Fill-334" class="st5" d="M243.78,126.26c-1.37,0-2.49.5-3.61,1.37-1,.87-1.74,2.11-2.11,3.61h9.33c.25-1.49,0-2.74-.75-3.61-.5-.87-1.49-1.37-2.86-1.37h0ZM237.69,135.34c0,1,.12,1.74.5,2.49.25.62.75,1.12,1.37,1.62.62.37,1.24.75,2.11.87.75.25,1.62.25,2.61.25.87,0,1.74,0,2.61-.12s1.74-.37,2.61-.62l.12,4.23c-1,.25-1.99.5-3.11.62s-2.24.25-3.48.25c-1.99,0-3.61-.25-5.1-.87-1.49-.5-2.61-1.37-3.48-2.36s-1.49-2.11-1.87-3.61c-.37-1.37-.5-2.86-.25-4.6.25-1.62.62-3.11,1.37-4.48.62-1.37,1.49-2.61,2.61-3.61,1-1,2.24-1.74,3.73-2.36,1.37-.5,2.99-.87,4.6-.87s2.99.25,4.11.75,2.11,1.24,2.74,2.11c.75.87,1.12,1.99,1.37,3.36s.25,2.74,0,4.35l-.25,2.36h-14.93v.25Z"/>
        <path id="Fill-336" class="st5" d="M271.15,127.88c-1.12-.37-2.11-.75-2.99-.87-1-.12-1.87-.25-2.74-.25s-1.49.12-2.11.37c-.5.25-.87.75-1,1.37-.12.62.12,1.12.62,1.49.5.37,1.49.87,2.99,1.24,1.12.37,2.11.75,2.86,1.12.87.37,1.49.87,2.11,1.49.5.5,1,1.24,1.12,1.87.25.75.25,1.49.12,2.49-.12,1.24-.5,2.24-1.24,3.11-.62.87-1.37,1.49-2.36,1.99-.87.5-1.87.87-2.99,1.12-1.12.25-2.24.37-3.23.37-1.37,0-2.74-.12-4.11-.37-1.37-.25-2.61-.62-3.73-1.12l1.74-4.35c1.12.5,2.36.87,3.48,1.12,1.24.25,2.24.37,3.11.37,1.12,0,1.99-.12,2.61-.37.62-.25,1-.75,1.12-1.49.12-.62-.12-1.12-.75-1.62-.62-.37-1.74-.87-3.36-1.37-2.24-.75-3.73-1.62-4.73-2.74-.87-1-1.24-2.36-1.12-3.86.12-1.12.5-2.11,1.12-2.99.62-.87,1.24-1.49,2.11-2.11.87-.5,1.87-1,2.86-1.24s2.11-.37,3.11-.37c1.12,0,2.36.12,3.61.25,1.24.25,2.36.5,3.36.87l-1.62,4.48Z"/>
        <path id="Fill-338" class="st5" d="M290.68,127.88c-1.12-.37-2.11-.75-2.99-.87-1-.12-1.87-.25-2.74-.25s-1.49.12-2.11.37c-.5.25-.87.75-1,1.37-.12.62.12,1.12.62,1.49.5.37,1.49.87,2.99,1.24,1.12.37,2.11.75,2.86,1.12.87.37,1.49.87,2.11,1.49.5.5,1,1.24,1.12,1.87.25.75.25,1.49.12,2.49-.12,1.24-.5,2.24-1.24,3.11-.62.87-1.37,1.49-2.36,1.99-.87.5-1.87.87-2.99,1.12-1.12.25-2.24.37-3.23.37-1.37,0-2.74-.12-4.11-.37-1.37-.25-2.61-.62-3.73-1.12l1.74-4.35c1.12.5,2.36.87,3.48,1.12,1.24.25,2.24.37,3.11.37,1.12,0,1.99-.12,2.61-.37.62-.25,1-.75,1.12-1.49.12-.62-.12-1.12-.75-1.62-.62-.37-1.74-.87-3.36-1.37-2.24-.75-3.73-1.62-4.73-2.74-.87-1-1.24-2.36-1.12-3.86.12-1.12.5-2.11,1.12-2.99.62-.87,1.24-1.49,2.11-2.11.87-.5,1.87-1,2.86-1.24s2.11-.37,3.11-.37c1.12,0,2.36.12,3.61.25,1.24.25,2.36.5,3.36.87l-1.62,4.48Z"/>
        <path id="Fill-340" class="st5" d="M328.87,120.54c-.75-.25-1.62-.5-2.49-.75s-1.74-.25-2.61-.25c-1.49,0-2.99.25-4.23.87-1.24.5-2.36,1.24-3.23,2.24-.87.87-1.62,1.99-2.11,3.36-.5,1.24-.87,2.61-1.12,3.98-.12,1.37-.12,2.61.12,3.86s.62,2.36,1.37,3.23c.62,1,1.49,1.74,2.61,2.24s2.36.87,3.98.87c1.12,0,2.11-.12,2.99-.25.87-.25,1.74-.5,2.61-.87l.37,4.6c-1.12.5-2.24.75-3.48,1-1.24.25-2.49.25-3.86.25-2.24,0-4.11-.37-5.85-1.12-1.74-.75-3.11-1.74-4.23-3.11s-1.87-2.86-2.36-4.73-.5-3.86-.25-6.1c.25-2.24.87-4.23,1.74-6.1.87-1.87,2.11-3.48,3.48-4.85,1.49-1.37,3.11-2.36,5.1-3.11s4.11-1.12,6.34-1.12c1.24,0,2.49.12,3.61.25,1.12.25,2.11.5,3.11.87l-1.62,4.73Z"/>
        <path id="Fill-342" class="st5" d="M342.68,126.26c-1.37,0-2.49.5-3.61,1.37-1,.87-1.74,2.11-2.11,3.61h9.33c.25-1.49,0-2.74-.75-3.61-.5-.87-1.49-1.37-2.86-1.37h0ZM336.46,135.34c0,1,.12,1.74.5,2.49.25.62.75,1.12,1.37,1.62.62.37,1.24.75,2.11.87.75.25,1.62.25,2.61.25.87,0,1.74,0,2.61-.12s1.74-.37,2.61-.62l.12,4.23c-1,.25-1.99.5-3.11.62s-2.24.25-3.48.25c-1.99,0-3.61-.25-5.1-.87-1.49-.5-2.61-1.37-3.48-2.36-.87-1-1.49-2.11-1.87-3.61-.37-1.37-.5-2.86-.25-4.6.25-1.62.62-3.11,1.37-4.48.62-1.37,1.49-2.61,2.61-3.61,1-1,2.24-1.74,3.73-2.36,1.37-.5,2.99-.87,4.6-.87s2.99.25,4.11.75,2.11,1.24,2.74,2.11c.75.87,1.12,1.99,1.37,3.36s.25,2.74,0,4.35l-.25,2.36h-14.93v.25Z"/>
        <path id="Fill-344" class="st5" d="M363.08,122.78l-.37,2.86h.12c.75-1.12,1.62-1.87,2.99-2.49,1.24-.62,2.61-.87,3.98-.87,1.24,0,2.36.12,3.23.5s1.74.87,2.36,1.62c.62.75,1,1.49,1.24,2.49s.25,1.99.12,3.23l-1.87,14.18h-5.85l1.49-12.07c.12-.87.12-1.62.12-2.36s-.12-1.37-.37-1.74c-.25-.5-.62-.87-1.12-1.12-.5-.25-1.12-.37-1.87-.37-.62,0-1.12.12-1.74.25-.5.25-1.12.5-1.62,1s-1,1.12-1.37,1.87c-.37.75-.62,1.74-.75,2.74l-1.49,11.69h-5.85l2.74-21.52h5.85v.12Z"/>
        <path id="Fill-346" class="st5" d="M380.75,122.78h3.36l.75-5.72h5.85l-.75,5.72h4.48l-.62,4.35h-4.48l-1.24,9.58c-.12.75-.12,1.37-.12,1.74,0,.5.12.75.25,1,.12.25.37.37.62.5s.75.12,1.24.12h1c.25,0,.62-.12,1-.12l-.5,4.35c-.5,0-1.12.12-1.87.12h-1.99c-1.37,0-2.49-.12-3.23-.37-.75-.25-1.37-.62-1.74-1.24-.37-.5-.62-1.12-.75-1.99-.12-.75,0-1.74.12-2.74l1.49-11.2h-3.36l.5-4.11Z"/>
        <path id="Fill-348" class="st5" d="M407.12,126.26c-1.37,0-2.49.5-3.61,1.37-1,.87-1.74,2.11-2.11,3.61h9.33c.25-1.49,0-2.74-.75-3.61-.62-.87-1.62-1.37-2.86-1.37h0ZM400.9,135.34c0,1,.12,1.74.5,2.49.37.62.75,1.12,1.37,1.62.62.37,1.24.75,2.11.87.75.25,1.62.25,2.61.25.87,0,1.74,0,2.61-.12s1.74-.37,2.61-.62l.12,4.23c-1,.25-1.99.5-3.11.62s-2.24.25-3.48.25c-1.99,0-3.61-.25-5.1-.87-1.49-.5-2.61-1.37-3.48-2.36-.87-1-1.49-2.11-1.87-3.61-.37-1.37-.5-2.86-.25-4.6.25-1.62.62-3.11,1.37-4.48.62-1.37,1.49-2.61,2.61-3.61s2.24-1.74,3.73-2.36c1.37-.5,2.99-.87,4.6-.87s2.99.25,4.11.75,2.11,1.24,2.74,2.11c.75.87,1.12,1.99,1.37,3.36s.25,2.74,0,4.35l-.25,2.36h-14.93v.25Z"/>
        <path id="Fill-350" class="st5" d="M433.99,126.88c-.25,0-.5-.12-.75-.12h-.87c-.75,0-1.37.12-1.99.37-.62.25-1.24.62-1.87,1.24s-1,1.37-1.49,2.24c-.37,1-.62,2.11-.87,3.36l-1.37,10.45h-5.72l2.74-21.52h5.72l-.37,2.86h.12c1.37-2.24,3.36-3.36,6.1-3.36h1.62l-1,4.48Z"/>
        <path id="Fill-352" class="st4" d="M581.53,87.94c-.75,1.37-2.36,1.99-3.86,1.49-2.86-.87-5.6-1.74-8.33-2.49-2.74-.87-5.6-1.62-8.33-2.24-5.6-1.37-11.2-2.74-16.79-3.73h0c-2.61-.5-4.48-2.99-3.98-5.72.12-.5.25-1,.5-1.49,2.74-4.98,5.72-9.45,8.83-13.81s6.47-8.58,10.08-12.56c1.24-1.37,3.36-1.49,4.73-.25,1.12,1,1.37,2.74.75,3.98h0c-2.49,4.73-5.1,9.21-7.84,13.81l-3.98,6.72c-.12.25-.37.62-.5.87,3.73.87,7.34,1.99,10.95,3.23,2.86,1,5.72,2.11,8.46,3.36s5.6,2.61,8.21,4.11c1.49,1.12,2.11,3.11,1.12,4.73"/>
        <path id="Fill-354" class="st2" d="M516.09,80.48c-.5.25-1,.37-1.49.5h0c-5.6,1-11.2,2.24-16.79,3.73-2.74.75-5.6,1.49-8.33,2.24s-5.47,1.62-8.33,2.49h0c-1.74.5-3.61-.5-4.11-2.24-.37-1.49.25-2.99,1.49-3.86,2.61-1.49,5.35-2.86,8.09-4.11s5.6-2.36,8.46-3.36c3.61-1.24,7.22-2.36,10.95-3.23-.12-.25-.37-.62-.5-.87l-3.98-6.72c-2.74-4.48-5.35-9.08-7.84-13.81h0c-.87-1.62-.25-3.61,1.37-4.48,1.37-.75,2.99-.37,3.98.75,3.61,3.98,6.97,8.21,10.08,12.56s6.1,8.83,8.83,13.81c1.37,2.24.62,5.22-1.87,6.59"/>
        <path id="Fill-356" class="st0" d="M550.67,142.56c-1.49.5-3.11,0-3.98-1.37h0c-1.87-2.99-3.61-6.1-5.47-9.21l-5.22-9.21-5.22-9.21c-.37-.75-.87-1.37-1.24-2.11-.37.75-.87,1.37-1.24,2.11l-5.22,9.21-5.35,9.21c-1.87,2.99-3.61,6.1-5.47,9.08h0c-1,1.49-2.99,1.99-4.6,1-1.37-.87-1.87-2.49-1.37-3.98,1.24-3.36,2.61-6.59,4.11-9.95,1.37-3.23,2.99-6.47,4.48-9.7,1.62-3.23,3.23-6.47,4.98-9.58s3.48-6.34,5.6-9.45v-.12c1.49-2.24,4.48-2.86,6.72-1.37.5.37,1,.87,1.37,1.37,2.11,3.23,3.86,6.34,5.6,9.58,1.62,3.23,3.36,6.34,4.85,9.58,1.62,3.23,3.11,6.47,4.48,9.7,1.37,3.36,2.86,6.59,4.23,9.95.62,1.99-.25,3.86-1.99,4.48"/>
        <path id="Fill-358" class="st6" d="M526.04,32.84c-.75-2.49-1.12-4.98-1.37-7.59-.25-2.49-.25-4.98-.25-7.59.12-4.98.5-10.08,1.74-15.05.5-1.87,2.24-2.99,4.11-2.49,1.24.37,2.24,1.37,2.49,2.49,1.24,4.98,1.49,10.08,1.62,15.05,0,2.49-.12,4.98-.25,7.59-.25,2.49-.62,4.98-1.37,7.59-.5,1.87-2.49,2.86-4.35,2.24-1.24-.25-1.99-1.12-2.36-2.24"/>
        <path id="Fill-360" class="st1" d="M593.47,110.34c-1,1.49-2.86,2.24-4.48,1.62h0c-3.61-1.24-7.09-2.61-10.7-3.73-3.61-1.24-7.22-2.24-10.82-3.36-3.48-1-6.97-1.87-10.45-2.61,2.36,4.23,4.73,8.46,7.22,12.81,2.24,3.86,4.35,7.84,6.47,11.94,1.99,4.11,4.11,8.09,5.72,12.32.87,1.99-.12,4.11-1.99,4.98-1.74.75-3.61,0-4.6-1.37l-14.55-22.27c-4.85-7.46-9.7-15.3-13.68-23.51h0c-1.37-2.74-.25-6.1,2.49-7.59,1.12-.5,2.36-.75,3.48-.5,7.96,1.37,15.67,3.36,23.26,6.1,3.73,1.37,7.46,2.86,11.07,4.6,3.61,1.74,7.09,3.48,10.57,5.6,1.49.75,2.11,3.11,1,4.98"/>
        <path id="Fill-362" class="st3" d="M517.34,96.9h0c-4.11,8.33-8.83,16.17-13.68,23.64l-14.43,22.39c-1.12,1.74-3.48,2.24-5.22,1.12-1.62-1-2.11-2.99-1.49-4.6,1.74-4.23,3.73-8.33,5.72-12.44,2.11-3.98,4.23-7.96,6.47-11.94,2.36-4.35,4.85-8.58,7.09-12.81-3.48.87-6.97,1.74-10.45,2.74-3.61,1-7.22,2.11-10.82,3.36-3.61,1.12-7.22,2.49-10.7,3.73h0c-1.99.75-4.11-.37-4.85-2.24-.62-1.74.12-3.61,1.62-4.48,3.36-2.11,6.97-3.86,10.57-5.6,3.61-1.62,7.34-3.23,11.07-4.6,7.46-2.74,15.3-4.73,23.26-6.22,2.99-.5,5.97,1.49,6.47,4.6,0,1.12-.12,2.36-.62,3.36"/>
        <path id="Fill-364" class="st1" d="M580.66,117.43c2.49,1.24,4.6,2.74,6.72,4.35s3.98,3.36,5.85,5.35c3.73,3.73,7.09,7.84,9.83,12.56.87,1.62.25,3.73-1.37,4.6-1.12.62-2.49.5-3.61-.25h0c-4.23-2.99-8.09-6.47-11.69-9.95-1.87-1.74-3.61-3.61-5.35-5.47-1.74-1.99-3.36-3.98-4.73-6.22h0c-1-1.62-.5-3.73,1.12-4.73,1-.75,2.24-.75,3.23-.25"/>
        <path id="Fill-366" class="st3" d="M482.5,122.15c-1.37,2.24-2.99,4.35-4.73,6.22s-3.48,3.73-5.35,5.6c-3.73,3.48-7.46,6.97-11.69,9.95h0c-1.49,1.12-3.61.75-4.73-.87-.75-1.12-.75-2.49-.25-3.61,2.61-4.85,6.1-8.83,9.7-12.69,1.87-1.87,3.86-3.61,5.85-5.35,2.11-1.62,4.23-3.11,6.72-4.35,1.74-.87,3.73-.12,4.6,1.49.62,1.37.5,2.61-.12,3.61h0Z"/>
        <path id="Fill-368" class="st6" d="M556.52,29.35c-3.23,6.84-6.84,13.56-10.57,20.03-3.73,6.59-7.59,13.06-11.69,19.41h0c-1.12,1.62-2.86,2.61-4.73,2.61h0c-1.99,0-3.73-1.12-4.73-2.61-3.98-6.47-7.84-12.94-11.57-19.53-1.87-3.23-3.73-6.59-5.47-9.95s-3.61-6.72-5.22-10.08c-.87-1.87-.12-4.11,1.74-5.1,1.62-.87,3.61-.25,4.6,1.12,2.36,2.99,4.48,6.1,6.72,9.21s4.35,6.22,6.47,9.33c2.49,3.73,4.98,7.59,7.46,11.44,2.49-3.86,4.98-7.71,7.46-11.44,4.23-6.34,8.58-12.44,13.31-18.41,1.24-1.62,3.61-1.99,5.35-.62,1.12,1.12,1.49,3.11.87,4.6"/>
      </g>
    </g>
  </g>
</svg>